SplineFontDB: 3.2
FontName: Minecraft
FullName: Minecraft
FamilyName: Minecraft
Weight: Medium
Copyright: CraftronGaming
Version: 001.000
ItalicAngle: 0
UnderlinePosition: -153
UnderlineWidth: 51
Ascent: 768
Descent: 256
InvalidEm: 0
sfntRevision: 0x00010000
LayerCount: 2
Layer: 0 1 "Back" 1
Layer: 1 1 "Fore" 0
XUID: [1021 14 429558478 20598]
StyleMap: 0x0040
FSType: 0
OS2Version: 1
OS2_WeightWidthSlopeOnly: 0
OS2_UseTypoMetrics: 0
CreationTime: 1280473793
ModificationTime: 1737969332
PfmFamily: 17
TTFWeight: 500
TTFWidth: 5
LineGap: 92
VLineGap: 0
Panose: 2 0 6 3 0 0 0 0 0 0
OS2TypoAscent: 768
OS2TypoAOffset: 0
OS2TypoDescent: -256
OS2TypoDOffset: 0
OS2TypoLinegap: 92
OS2WinAscent: 768
OS2WinAOffset: 0
OS2WinDescent: 256
OS2WinDOffset: 0
HheadAscent: 768
HheadAOffset: 0
HheadDescent: -256
HheadDOffset: 0
OS2SubXSize: 665
OS2SubYSize: 716
OS2SubXOff: 0
OS2SubYOff: 143
OS2SupXSize: 665
OS2SupYSize: 716
OS2SupXOff: 0
OS2SupYOff: 491
OS2StrikeYSize: 51
OS2StrikeYPos: 265
OS2Vendor: '2ttf'
OS2CodePages: 00000001.00000000
OS2UnicodeRanges: 00000003.00010002.00000000.00000000
MarkAttachClasses: 1
DEI: 91125
ShortTable: cvt  2
  34
  648
EndShort
ShortTable: maxp 16
  1
  0
  110
  146
  23
  0
  0
  2
  0
  1
  1
  0
  64
  46
  0
  0
EndShort
LangName: 1033 "" "" "" "CraftronGaming:Minecraft"
GaspTable: 1 65535 2 0
Encoding: UnicodeBmp
UnicodeInterp: none
NameList: AGL For New Fonts
DisplaySize: -48
AntiAlias: 1
FitToEm: 0
WinInfo: 38 38 14
BeginChars: 65539 129

StartChar: .notdef
Encoding: 65536 -1 0
Width: 374
GlyphClass: 1
Flags: W
LayerCount: 2
Fore
SplineSet
34 0 m 1,0,-1
 34 682 l 1,1,-1
 306 682 l 1,2,-1
 306 0 l 1,3,-1
 34 0 l 1,0,-1
68 34 m 1,4,-1
 272 34 l 1,5,-1
 272 648 l 1,6,-1
 68 648 l 1,7,-1
 68 34 l 1,4,-1
EndSplineSet
Validated: 1
EndChar

StartChar: exclam
Encoding: 33 33 4
Width: 192
GlyphClass: 1
Flags: W
LayerCount: 2
Fore
SplineSet
64 0 m 1,0,-1
 0 0 l 1,1,-1
 0 64 l 1,2,-1
 0 128 l 1,3,-1
 64 128 l 1,4,-1
 128 128 l 1,5,-1
 128 64 l 1,6,-1
 128 0 l 1,7,-1
 64 0 l 1,0,-1
64 192 m 1,8,-1
 0 192 l 1,9,-1
 0 256 l 1,10,-1
 0 320 l 1,11,-1
 0 384 l 1,12,-1
 0 448 l 1,13,-1
 0 512 l 1,14,-1
 0 576 l 1,15,-1
 0 640 l 1,16,-1
 0 704 l 1,17,-1
 0 768 l 1,18,-1
 64 768 l 1,19,-1
 128 768 l 1,20,-1
 128 704 l 1,21,-1
 128 640 l 1,22,-1
 128 576 l 1,23,-1
 128 512 l 1,24,-1
 128 448 l 1,25,-1
 128 384 l 1,26,-1
 128 320 l 1,27,-1
 128 256 l 1,28,-1
 128 192 l 1,29,-1
 64 192 l 1,8,-1
EndSplineSet
Validated: 1
EndChar

StartChar: quotedbl
Encoding: 34 34 5
Width: 576
GlyphClass: 1
Flags: W
LayerCount: 2
Fore
SplineSet
320 384 m 1,0,-1
 256 384 l 1,1,-1
 256 448 l 1,2,-1
 256 512 l 1,3,-1
 320 512 l 1,4,-1
 384 512 l 1,5,-1
 384 448 l 1,6,-1
 384 384 l 1,7,-1
 320 384 l 1,0,-1
64 384 m 1,8,-1
 0 384 l 1,9,-1
 0 448 l 1,10,-1
 0 512 l 1,11,-1
 64 512 l 1,12,-1
 128 512 l 1,13,-1
 128 448 l 1,14,-1
 128 384 l 1,15,-1
 64 384 l 1,8,-1
384 512 m 1,16,-1
 384 576 l 1,17,-1
 384 640 l 1,18,-1
 384 704 l 1,19,-1
 384 768 l 1,20,-1
 448 768 l 1,21,-1
 512 768 l 1,22,-1
 512 704 l 1,23,-1
 512 640 l 1,24,-1
 512 576 l 1,25,-1
 512 512 l 1,26,-1
 448 512 l 1,27,-1
 384 512 l 1,16,-1
256 512 m 1,28,-1
 192 512 l 1,29,-1
 128 512 l 1,30,-1
 128 576 l 1,31,-1
 128 640 l 1,32,-1
 128 704 l 1,33,-1
 128 768 l 1,34,-1
 192 768 l 1,35,-1
 256 768 l 1,36,-1
 256 704 l 1,37,-1
 256 640 l 1,38,-1
 256 576 l 1,39,-1
 256 512 l 1,28,-1
EndSplineSet
Validated: 5
EndChar

StartChar: numbersign
Encoding: 35 35 6
Width: 704
GlyphClass: 1
Flags: W
LayerCount: 2
Fore
SplineSet
448 0 m 1,0,-1
 384 0 l 1,1,-1
 384 64 l 1,2,-1
 384 128 l 1,3,-1
 384 192 l 1,4,-1
 320 192 l 1,5,-1
 256 192 l 1,6,-1
 256 128 l 1,7,-1
 256 64 l 1,8,-1
 256 0 l 1,9,-1
 192 0 l 1,10,-1
 128 0 l 1,11,-1
 128 64 l 1,12,-1
 128 128 l 1,13,-1
 128 192 l 1,14,-1
 64 192 l 1,15,-1
 0 192 l 1,16,-1
 0 256 l 1,17,-1
 0 320 l 1,18,-1
 64 320 l 1,19,-1
 128 320 l 1,20,-1
 128 384 l 1,21,-1
 128 448 l 1,22,-1
 64 448 l 1,23,-1
 0 448 l 1,24,-1
 0 512 l 1,25,-1
 0 576 l 1,26,-1
 64 576 l 1,27,-1
 128 576 l 1,28,-1
 128 640 l 1,29,-1
 128 704 l 1,30,-1
 128 768 l 1,31,-1
 192 768 l 1,32,-1
 256 768 l 1,33,-1
 256 704 l 1,34,-1
 256 640 l 1,35,-1
 256 576 l 1,36,-1
 320 576 l 1,37,-1
 384 576 l 1,38,-1
 384 640 l 1,39,-1
 384 704 l 1,40,-1
 384 768 l 1,41,-1
 448 768 l 1,42,-1
 512 768 l 1,43,-1
 512 704 l 1,44,-1
 512 640 l 1,45,-1
 512 576 l 1,46,-1
 576 576 l 1,47,-1
 640 576 l 1,48,-1
 640 512 l 1,49,-1
 640 448 l 1,50,-1
 576 448 l 1,51,-1
 512 448 l 1,52,-1
 512 384 l 1,53,-1
 512 320 l 1,54,-1
 576 320 l 1,55,-1
 640 320 l 1,56,-1
 640 256 l 1,57,-1
 640 192 l 1,58,-1
 576 192 l 1,59,-1
 512 192 l 1,60,-1
 512 128 l 1,61,-1
 512 64 l 1,62,-1
 512 0 l 1,63,-1
 448 0 l 1,0,-1
320 320 m 1,64,-1
 384 320 l 1,65,-1
 384 384 l 1,66,-1
 384 448 l 1,67,-1
 320 448 l 1,68,-1
 256 448 l 1,69,-1
 256 384 l 1,70,-1
 256 320 l 1,71,-1
 320 320 l 1,64,-1
EndSplineSet
Validated: 1
EndChar

StartChar: dollar
Encoding: 36 36 7
Width: 576
GlyphClass: 1
Flags: W
LayerCount: 2
Fore
SplineSet
320 -128 m 1,0,-1
 256 -128 l 1,1,-1
 256 -64 l 1,2,-1
 256 0 l 1,3,-1
 192 0 l 1,4,-1
 128 0 l 1,5,-1
 64 0 l 1,6,-1
 0 0 l 1,7,-1
 0 64 l 1,8,-1
 0 128 l 1,9,-1
 64 128 l 1,10,-1
 128 128 l 1,11,-1
 192 128 l 1,12,-1
 256 128 l 1,13,-1
 256 192 l 1,14,-1
 256 256 l 1,15,-1
 320 256 l 1,16,-1
 384 256 l 1,17,-1
 384 192 l 1,18,-1
 384 128 l 1,19,-1
 448 128 l 1,20,-1
 512 128 l 1,21,-1
 512 64 l 1,22,-1
 512 0 l 1,23,-1
 448 0 l 1,24,-1
 384 0 l 1,25,-1
 384 -64 l 1,26,-1
 384 -128 l 1,27,-1
 320 -128 l 1,0,-1
256 256 m 1,28,-1
 192 256 l 1,29,-1
 128 256 l 1,30,-1
 128 320 l 1,31,-1
 128 384 l 1,32,-1
 192 384 l 1,33,-1
 256 384 l 1,34,-1
 256 320 l 1,35,-1
 256 256 l 1,28,-1
128 384 m 1,36,-1
 64 384 l 1,37,-1
 0 384 l 1,38,-1
 0 448 l 1,39,-1
 0 512 l 1,40,-1
 64 512 l 1,41,-1
 128 512 l 1,42,-1
 128 448 l 1,43,-1
 128 384 l 1,36,-1
448 512 m 1,44,-1
 384 512 l 1,45,-1
 320 512 l 1,46,-1
 256 512 l 1,47,-1
 192 512 l 1,48,-1
 128 512 l 1,49,-1
 128 576 l 1,50,-1
 128 640 l 1,51,-1
 192 640 l 1,52,-1
 256 640 l 1,53,-1
 256 704 l 1,54,-1
 256 768 l 1,55,-1
 320 768 l 1,56,-1
 384 768 l 1,57,-1
 384 704 l 1,58,-1
 384 640 l 1,59,-1
 448 640 l 1,60,-1
 512 640 l 1,61,-1
 512 576 l 1,62,-1
 512 512 l 1,63,-1
 448 512 l 1,44,-1
EndSplineSet
Validated: 5
EndChar

StartChar: percent
Encoding: 37 37 8
Width: 896
GlyphClass: 1
Flags: W
LayerCount: 2
Fore
SplineSet
192 0 m 1,0,-1
 192 64 l 1,1,-1
 256 64 l 1,2,-1
 256 0 l 1,3,-1
 192 0 l 1,0,-1
704 64 m 1,4,-1
 768 64 l 1,5,-1
 768 0 l 1,6,-1
 704 0 l 1,7,-1
 640 0 l 1,8,-1
 640 64 l 1,9,-1
 704 64 l 1,4,-1
768 64 m 1,10,-1
 768 128 l 1,11,-1
 768 192 l 1,12,-1
 768 256 l 1,13,-1
 768 320 l 1,14,-1
 832 320 l 1,15,-1
 832 256 l 1,16,-1
 832 192 l 1,17,-1
 832 128 l 1,18,-1
 832 64 l 1,19,-1
 768 64 l 1,10,-1
640 64 m 1,20,-1
 576 64 l 1,21,-1
 576 128 l 1,22,-1
 576 192 l 1,23,-1
 576 256 l 1,24,-1
 576 320 l 1,25,-1
 640 320 l 1,26,-1
 640 256 l 1,27,-1
 640 192 l 1,28,-1
 640 128 l 1,29,-1
 640 64 l 1,20,-1
256 64 m 1,30,-1
 256 128 l 1,31,-1
 256 192 l 1,32,-1
 320 192 l 1,33,-1
 320 128 l 1,34,-1
 320 64 l 1,35,-1
 256 64 l 1,30,-1
320 192 m 1,36,-1
 320 256 l 1,37,-1
 384 256 l 1,38,-1
 384 192 l 1,39,-1
 320 192 l 1,36,-1
384 256 m 1,40,-1
 384 320 l 1,41,-1
 384 384 l 1,42,-1
 448 384 l 1,43,-1
 448 320 l 1,44,-1
 448 256 l 1,45,-1
 384 256 l 1,40,-1
768 320 m 1,46,-1
 704 320 l 1,47,-1
 640 320 l 1,48,-1
 640 384 l 1,49,-1
 704 384 l 1,50,-1
 768 384 l 1,51,-1
 768 320 l 1,46,-1
448 384 m 1,52,-1
 448 448 l 1,53,-1
 512 448 l 1,54,-1
 512 384 l 1,55,-1
 448 384 l 1,52,-1
192 448 m 1,56,-1
 256 448 l 1,57,-1
 256 384 l 1,58,-1
 192 384 l 1,59,-1
 128 384 l 1,60,-1
 128 448 l 1,61,-1
 192 448 l 1,56,-1
512 448 m 1,62,-1
 512 512 l 1,63,-1
 512 576 l 1,64,-1
 576 576 l 1,65,-1
 576 512 l 1,66,-1
 576 448 l 1,67,-1
 512 448 l 1,62,-1
256 448 m 1,68,-1
 256 512 l 1,69,-1
 256 576 l 1,70,-1
 256 640 l 1,71,-1
 256 704 l 1,72,-1
 320 704 l 1,73,-1
 320 640 l 1,74,-1
 320 576 l 1,75,-1
 320 512 l 1,76,-1
 320 448 l 1,77,-1
 256 448 l 1,68,-1
128 448 m 1,78,-1
 64 448 l 1,79,-1
 64 512 l 1,80,-1
 64 576 l 1,81,-1
 64 640 l 1,82,-1
 64 704 l 1,83,-1
 128 704 l 1,84,-1
 128 640 l 1,85,-1
 128 576 l 1,86,-1
 128 512 l 1,87,-1
 128 448 l 1,78,-1
576 576 m 1,88,-1
 576 640 l 1,89,-1
 640 640 l 1,90,-1
 640 576 l 1,91,-1
 576 576 l 1,88,-1
640 640 m 1,92,-1
 640 704 l 1,93,-1
 640 768 l 1,94,-1
 704 768 l 1,95,-1
 704 704 l 1,96,-1
 704 640 l 1,97,-1
 640 640 l 1,92,-1
256 704 m 1,98,-1
 192 704 l 1,99,-1
 128 704 l 1,100,-1
 128 768 l 1,101,-1
 192 768 l 1,102,-1
 256 768 l 1,103,-1
 256 704 l 1,98,-1
EndSplineSet
Validated: 5
EndChar

StartChar: ampersand
Encoding: 38 38 9
Width: 704
GlyphClass: 1
Flags: W
LayerCount: 2
Fore
SplineSet
576 0 m 1,0,-1
 512 0 l 1,1,-1
 512 64 l 1,2,-1
 512 128 l 1,3,-1
 576 128 l 1,4,-1
 640 128 l 1,5,-1
 640 64 l 1,6,-1
 640 0 l 1,7,-1
 576 0 l 1,0,-1
320 0 m 1,8,-1
 256 0 l 1,9,-1
 192 0 l 1,10,-1
 128 0 l 1,11,-1
 128 64 l 1,12,-1
 128 128 l 1,13,-1
 192 128 l 1,14,-1
 256 128 l 1,15,-1
 320 128 l 1,16,-1
 384 128 l 1,17,-1
 384 64 l 1,18,-1
 384 0 l 1,19,-1
 320 0 l 1,8,-1
512 128 m 1,20,-1
 448 128 l 1,21,-1
 384 128 l 1,22,-1
 384 192 l 1,23,-1
 384 256 l 1,24,-1
 384 320 l 1,25,-1
 384 384 l 1,26,-1
 448 384 l 1,27,-1
 512 384 l 1,28,-1
 512 320 l 1,29,-1
 512 256 l 1,30,-1
 512 192 l 1,31,-1
 512 128 l 1,20,-1
128 128 m 1,32,-1
 64 128 l 1,33,-1
 0 128 l 1,34,-1
 0 192 l 1,35,-1
 0 256 l 1,36,-1
 0 320 l 1,37,-1
 0 384 l 1,38,-1
 64 384 l 1,39,-1
 128 384 l 1,40,-1
 128 320 l 1,41,-1
 128 256 l 1,42,-1
 128 192 l 1,43,-1
 128 128 l 1,32,-1
512 384 m 1,44,-1
 512 448 l 1,45,-1
 512 512 l 1,46,-1
 576 512 l 1,47,-1
 640 512 l 1,48,-1
 640 448 l 1,49,-1
 640 384 l 1,50,-1
 576 384 l 1,51,-1
 512 384 l 1,44,-1
384 384 m 1,52,-1
 320 384 l 1,53,-1
 256 384 l 1,54,-1
 192 384 l 1,55,-1
 128 384 l 1,56,-1
 128 448 l 1,57,-1
 128 512 l 1,58,-1
 128 576 l 1,59,-1
 128 640 l 1,60,-1
 192 640 l 1,61,-1
 256 640 l 1,62,-1
 256 576 l 1,63,-1
 256 512 l 1,64,-1
 320 512 l 1,65,-1
 384 512 l 1,66,-1
 384 448 l 1,67,-1
 384 384 l 1,52,-1
512 512 m 1,68,-1
 448 512 l 1,69,-1
 384 512 l 1,70,-1
 384 576 l 1,71,-1
 384 640 l 1,72,-1
 448 640 l 1,73,-1
 512 640 l 1,74,-1
 512 576 l 1,75,-1
 512 512 l 1,68,-1
384 640 m 1,76,-1
 320 640 l 1,77,-1
 256 640 l 1,78,-1
 256 704 l 1,79,-1
 256 768 l 1,80,-1
 320 768 l 1,81,-1
 384 768 l 1,82,-1
 384 704 l 1,83,-1
 384 640 l 1,76,-1
EndSplineSet
Validated: 5
EndChar

StartChar: quotesingle
Encoding: 39 39 10
Width: 192
GlyphClass: 1
Flags: W
LayerCount: 2
Fore
SplineSet
64 512 m 1,0,-1
 0 512 l 1,1,-1
 0 576 l 1,2,-1
 0 640 l 1,3,-1
 0 704 l 1,4,-1
 0 768 l 1,5,-1
 64 768 l 1,6,-1
 128 768 l 1,7,-1
 128 704 l 1,8,-1
 128 640 l 1,9,-1
 128 576 l 1,10,-1
 128 512 l 1,11,-1
 64 512 l 1,0,-1
EndSplineSet
Validated: 1
EndChar

StartChar: parenleft
Encoding: 40 40 11
Width: 448
GlyphClass: 1
Flags: W
LayerCount: 2
Fore
SplineSet
320 0 m 1,0,-1
 256 0 l 1,1,-1
 192 0 l 1,2,-1
 128 0 l 1,3,-1
 128 64 l 1,4,-1
 128 128 l 1,5,-1
 192 128 l 1,6,-1
 256 128 l 1,7,-1
 320 128 l 1,8,-1
 384 128 l 1,9,-1
 384 64 l 1,10,-1
 384 0 l 1,11,-1
 320 0 l 1,0,-1
128 128 m 1,12,-1
 64 128 l 1,13,-1
 0 128 l 1,14,-1
 0 192 l 1,15,-1
 0 256 l 1,16,-1
 0 320 l 1,17,-1
 0 384 l 1,18,-1
 0 448 l 1,19,-1
 0 512 l 1,20,-1
 0 576 l 1,21,-1
 0 640 l 1,22,-1
 64 640 l 1,23,-1
 128 640 l 1,24,-1
 128 576 l 1,25,-1
 128 512 l 1,26,-1
 128 448 l 1,27,-1
 128 384 l 1,28,-1
 128 320 l 1,29,-1
 128 256 l 1,30,-1
 128 192 l 1,31,-1
 128 128 l 1,12,-1
320 640 m 1,32,-1
 256 640 l 1,33,-1
 192 640 l 1,34,-1
 128 640 l 1,35,-1
 128 704 l 1,36,-1
 128 768 l 1,37,-1
 192 768 l 1,38,-1
 256 768 l 1,39,-1
 320 768 l 1,40,-1
 384 768 l 1,41,-1
 384 704 l 1,42,-1
 384 640 l 1,43,-1
 320 640 l 1,32,-1
EndSplineSet
Validated: 5
EndChar

StartChar: parenright
Encoding: 41 41 12
Width: 448
GlyphClass: 1
Flags: W
LayerCount: 2
Fore
SplineSet
192 0 m 1,0,-1
 128 0 l 1,1,-1
 64 0 l 1,2,-1
 0 0 l 1,3,-1
 0 64 l 1,4,-1
 0 128 l 1,5,-1
 64 128 l 1,6,-1
 128 128 l 1,7,-1
 192 128 l 1,8,-1
 256 128 l 1,9,-1
 256 64 l 1,10,-1
 256 0 l 1,11,-1
 192 0 l 1,0,-1
256 128 m 1,12,-1
 256 192 l 1,13,-1
 256 256 l 1,14,-1
 256 320 l 1,15,-1
 256 384 l 1,16,-1
 256 448 l 1,17,-1
 256 512 l 1,18,-1
 256 576 l 1,19,-1
 256 640 l 1,20,-1
 320 640 l 1,21,-1
 384 640 l 1,22,-1
 384 576 l 1,23,-1
 384 512 l 1,24,-1
 384 448 l 1,25,-1
 384 384 l 1,26,-1
 384 320 l 1,27,-1
 384 256 l 1,28,-1
 384 192 l 1,29,-1
 384 128 l 1,30,-1
 320 128 l 1,31,-1
 256 128 l 1,12,-1
256 640 m 1,32,-1
 192 640 l 1,33,-1
 128 640 l 1,34,-1
 64 640 l 1,35,-1
 0 640 l 1,36,-1
 0 704 l 1,37,-1
 0 768 l 1,38,-1
 64 768 l 1,39,-1
 128 768 l 1,40,-1
 192 768 l 1,41,-1
 256 768 l 1,42,-1
 256 704 l 1,43,-1
 256 640 l 1,32,-1
EndSplineSet
Validated: 5
EndChar

StartChar: asterisk
Encoding: 42 42 13
Width: 448
GlyphClass: 1
Flags: W
LayerCount: 2
Fore
SplineSet
320 384 m 1,0,-1
 256 384 l 1,1,-1
 256 448 l 1,2,-1
 256 512 l 1,3,-1
 192 512 l 1,4,-1
 128 512 l 1,5,-1
 128 448 l 1,6,-1
 128 384 l 1,7,-1
 64 384 l 1,8,-1
 0 384 l 1,9,-1
 0 448 l 1,10,-1
 0 512 l 1,11,-1
 64 512 l 1,12,-1
 64 576 l 1,13,-1
 64 640 l 1,14,-1
 0 640 l 1,15,-1
 0 704 l 1,16,-1
 0 768 l 1,17,-1
 64 768 l 1,18,-1
 128 768 l 1,19,-1
 128 704 l 1,20,-1
 128 640 l 1,21,-1
 192 640 l 1,22,-1
 256 640 l 1,23,-1
 256 704 l 1,24,-1
 256 768 l 1,25,-1
 320 768 l 1,26,-1
 384 768 l 1,27,-1
 384 704 l 1,28,-1
 384 640 l 1,29,-1
 320 640 l 1,30,-1
 320 576 l 1,31,-1
 320 512 l 1,32,-1
 384 512 l 1,33,-1
 384 448 l 1,34,-1
 384 384 l 1,35,-1
 320 384 l 1,0,-1
EndSplineSet
Validated: 1
EndChar

StartChar: plus
Encoding: 43 43 14
Width: 640
GlyphClass: 1
Flags: W
LayerCount: 2
Fore
SplineSet
320 128 m 1,0,-1
 256 128 l 1,1,-1
 256 192 l 1,2,-1
 256 256 l 1,3,-1
 256 320 l 1,4,-1
 192 320 l 1,5,-1
 128 320 l 1,6,-1
 64 320 l 1,7,-1
 64 384 l 1,8,-1
 64 448 l 1,9,-1
 128 448 l 1,10,-1
 192 448 l 1,11,-1
 256 448 l 1,12,-1
 256 512 l 1,13,-1
 256 576 l 1,14,-1
 256 640 l 1,15,-1
 320 640 l 1,16,-1
 384 640 l 1,17,-1
 384 576 l 1,18,-1
 384 512 l 1,19,-1
 384 448 l 1,20,-1
 448 448 l 1,21,-1
 512 448 l 1,22,-1
 576 448 l 1,23,-1
 576 384 l 1,24,-1
 576 320 l 1,25,-1
 512 320 l 1,26,-1
 448 320 l 1,27,-1
 384 320 l 1,28,-1
 384 256 l 1,29,-1
 384 192 l 1,30,-1
 384 128 l 1,31,-1
 320 128 l 1,0,-1
EndSplineSet
Validated: 1
EndChar

StartChar: comma
Encoding: 44 44 15
Width: 192
GlyphClass: 1
Flags: W
LayerCount: 2
Fore
SplineSet
0 -128 m 1,0,-1
 0 -64 l 1,1,-1
 64 -64 l 1,2,-1
 64 -128 l 1,3,-1
 0 -128 l 1,0,-1
64 -64 m 1,4,-1
 64 0 l 1,5,-1
 0 0 l 1,6,-1
 0 64 l 1,7,-1
 0 128 l 1,8,-1
 64 128 l 1,9,-1
 128 128 l 1,10,-1
 128 64 l 1,11,-1
 128 0 l 1,12,-1
 128 -64 l 1,13,-1
 64 -64 l 1,4,-1
EndSplineSet
Validated: 5
EndChar

StartChar: hyphen
Encoding: 45 45 16
Width: 384
GlyphClass: 1
Flags: W
LayerCount: 2
Fore
SplineSet
256 192 m 1,0,-1
 192 192 l 1,1,-1
 128 192 l 1,2,-1
 64 192 l 1,3,-1
 0 192 l 1,4,-1
 0 256 l 1,5,-1
 0 320 l 1,6,-1
 64 320 l 1,7,-1
 128 320 l 1,8,-1
 192 320 l 1,9,-1
 256 320 l 1,10,-1
 320 320 l 1,11,-1
 320 256 l 1,12,-1
 320 192 l 1,13,-1
 256 192 l 1,0,-1
EndSplineSet
Validated: 1
EndChar

StartChar: period
Encoding: 46 46 17
Width: 192
GlyphClass: 1
Flags: W
LayerCount: 2
Fore
SplineSet
64 0 m 1,0,-1
 0 0 l 1,1,-1
 0 64 l 1,2,-1
 0 128 l 1,3,-1
 64 128 l 1,4,-1
 128 128 l 1,5,-1
 128 64 l 1,6,-1
 128 0 l 1,7,-1
 64 0 l 1,0,-1
EndSplineSet
Validated: 1
EndChar

StartChar: slash
Encoding: 47 47 18
Width: 576
GlyphClass: 1
Flags: W
LayerCount: 2
Fore
SplineSet
0 0 m 1,0,-1
 0 64 l 1,1,-1
 64 64 l 1,2,-1
 64 0 l 1,3,-1
 0 0 l 1,0,-1
64 64 m 1,4,-1
 64 128 l 1,5,-1
 64 192 l 1,6,-1
 128 192 l 1,7,-1
 128 128 l 1,8,-1
 128 64 l 1,9,-1
 64 64 l 1,4,-1
128 192 m 1,10,-1
 128 256 l 1,11,-1
 192 256 l 1,12,-1
 192 192 l 1,13,-1
 128 192 l 1,10,-1
192 256 m 1,14,-1
 192 320 l 1,15,-1
 192 384 l 1,16,-1
 256 384 l 1,17,-1
 256 320 l 1,18,-1
 256 256 l 1,19,-1
 192 256 l 1,14,-1
256 384 m 1,20,-1
 256 448 l 1,21,-1
 320 448 l 1,22,-1
 320 384 l 1,23,-1
 256 384 l 1,20,-1
320 448 m 1,24,-1
 320 512 l 1,25,-1
 320 576 l 1,26,-1
 384 576 l 1,27,-1
 384 512 l 1,28,-1
 384 448 l 1,29,-1
 320 448 l 1,24,-1
384 576 m 1,30,-1
 384 640 l 1,31,-1
 448 640 l 1,32,-1
 448 576 l 1,33,-1
 384 576 l 1,30,-1
448 640 m 1,34,-1
 448 704 l 1,35,-1
 448 768 l 1,36,-1
 512 768 l 1,37,-1
 512 704 l 1,38,-1
 512 640 l 1,39,-1
 448 640 l 1,34,-1
EndSplineSet
Validated: 5
EndChar

StartChar: zero
Encoding: 48 48 19
Width: 576
GlyphClass: 1
Flags: W
LayerCount: 2
Fore
SplineSet
320 0 m 1,0,-1
 256 0 l 1,1,-1
 192 0 l 1,2,-1
 128 0 l 1,3,-1
 128 64 l 1,4,-1
 128 128 l 1,5,-1
 192 128 l 1,6,-1
 256 128 l 1,7,-1
 320 128 l 1,8,-1
 384 128 l 1,9,-1
 384 64 l 1,10,-1
 384 0 l 1,11,-1
 320 0 l 1,0,-1
384 128 m 1,12,-1
 384 192 l 1,13,-1
 384 256 l 1,14,-1
 384 320 l 1,15,-1
 384 384 l 1,16,-1
 384 448 l 1,17,-1
 320 448 l 1,18,-1
 320 384 l 1,19,-1
 320 320 l 1,20,-1
 256 320 l 1,21,-1
 192 320 l 1,22,-1
 192 256 l 1,23,-1
 192 192 l 1,24,-1
 128 192 l 1,25,-1
 128 128 l 1,26,-1
 64 128 l 1,27,-1
 0 128 l 1,28,-1
 0 192 l 1,29,-1
 0 256 l 1,30,-1
 0 320 l 1,31,-1
 0 384 l 1,32,-1
 0 448 l 1,33,-1
 0 512 l 1,34,-1
 0 576 l 1,35,-1
 0 640 l 1,36,-1
 64 640 l 1,37,-1
 128 640 l 1,38,-1
 128 576 l 1,39,-1
 128 512 l 1,40,-1
 128 448 l 1,41,-1
 128 384 l 1,42,-1
 128 320 l 1,43,-1
 192 320 l 1,44,-1
 192 384 l 1,45,-1
 192 448 l 1,46,-1
 256 448 l 1,47,-1
 320 448 l 1,48,-1
 320 512 l 1,49,-1
 320 576 l 1,50,-1
 384 576 l 1,51,-1
 384 640 l 1,52,-1
 448 640 l 1,53,-1
 512 640 l 1,54,-1
 512 576 l 1,55,-1
 512 512 l 1,56,-1
 512 448 l 1,57,-1
 512 384 l 1,58,-1
 512 320 l 1,59,-1
 512 256 l 1,60,-1
 512 192 l 1,61,-1
 512 128 l 1,62,-1
 448 128 l 1,63,-1
 384 128 l 1,12,-1
384 640 m 1,64,-1
 320 640 l 1,65,-1
 256 640 l 1,66,-1
 192 640 l 1,67,-1
 128 640 l 1,68,-1
 128 704 l 1,69,-1
 128 768 l 1,70,-1
 192 768 l 1,71,-1
 256 768 l 1,72,-1
 320 768 l 1,73,-1
 384 768 l 1,74,-1
 384 704 l 1,75,-1
 384 640 l 1,64,-1
EndSplineSet
Validated: 5
EndChar

StartChar: one
Encoding: 49 49 20
Width: 448
GlyphClass: 1
Flags: W
LayerCount: 2
Fore
SplineSet
320 0 m 1,0,-1
 256 0 l 1,1,-1
 192 0 l 1,2,-1
 128 0 l 1,3,-1
 64 0 l 1,4,-1
 0 0 l 1,5,-1
 0 64 l 1,6,-1
 0 128 l 1,7,-1
 64 128 l 1,8,-1
 128 128 l 1,9,-1
 128 192 l 1,10,-1
 128 256 l 1,11,-1
 128 320 l 1,12,-1
 128 384 l 1,13,-1
 128 448 l 1,14,-1
 128 512 l 1,15,-1
 64 512 l 1,16,-1
 0 512 l 1,17,-1
 0 576 l 1,18,-1
 0 640 l 1,19,-1
 64 640 l 1,20,-1
 128 640 l 1,21,-1
 128 704 l 1,22,-1
 128 768 l 1,23,-1
 192 768 l 1,24,-1
 256 768 l 1,25,-1
 256 704 l 1,26,-1
 256 640 l 1,27,-1
 256 576 l 1,28,-1
 256 512 l 1,29,-1
 256 448 l 1,30,-1
 256 384 l 1,31,-1
 256 320 l 1,32,-1
 256 256 l 1,33,-1
 256 192 l 1,34,-1
 256 128 l 1,35,-1
 320 128 l 1,36,-1
 384 128 l 1,37,-1
 384 64 l 1,38,-1
 384 0 l 1,39,-1
 320 0 l 1,0,-1
EndSplineSet
Validated: 1
EndChar

StartChar: two
Encoding: 50 50 21
Width: 576
GlyphClass: 1
Flags: W
LayerCount: 2
Fore
SplineSet
448 0 m 1,0,-1
 384 0 l 1,1,-1
 320 0 l 1,2,-1
 256 0 l 1,3,-1
 192 0 l 1,4,-1
 128 0 l 1,5,-1
 64 0 l 1,6,-1
 0 0 l 1,7,-1
 0 64 l 1,8,-1
 0 128 l 1,9,-1
 0 192 l 1,10,-1
 0 256 l 1,11,-1
 64 256 l 1,12,-1
 128 256 l 1,13,-1
 128 192 l 1,14,-1
 128 128 l 1,15,-1
 192 128 l 1,16,-1
 256 128 l 1,17,-1
 320 128 l 1,18,-1
 384 128 l 1,19,-1
 448 128 l 1,20,-1
 512 128 l 1,21,-1
 512 64 l 1,22,-1
 512 0 l 1,23,-1
 448 0 l 1,0,-1
128 256 m 1,24,-1
 128 320 l 1,25,-1
 128 384 l 1,26,-1
 192 384 l 1,27,-1
 256 384 l 1,28,-1
 256 320 l 1,29,-1
 256 256 l 1,30,-1
 192 256 l 1,31,-1
 128 256 l 1,24,-1
256 384 m 1,32,-1
 256 448 l 1,33,-1
 256 512 l 1,34,-1
 320 512 l 1,35,-1
 384 512 l 1,36,-1
 384 448 l 1,37,-1
 384 384 l 1,38,-1
 320 384 l 1,39,-1
 256 384 l 1,32,-1
384 512 m 1,40,-1
 384 576 l 1,41,-1
 384 640 l 1,42,-1
 448 640 l 1,43,-1
 512 640 l 1,44,-1
 512 576 l 1,45,-1
 512 512 l 1,46,-1
 448 512 l 1,47,-1
 384 512 l 1,40,-1
64 512 m 1,48,-1
 0 512 l 1,49,-1
 0 576 l 1,50,-1
 0 640 l 1,51,-1
 64 640 l 1,52,-1
 128 640 l 1,53,-1
 128 576 l 1,54,-1
 128 512 l 1,55,-1
 64 512 l 1,48,-1
384 640 m 1,56,-1
 320 640 l 1,57,-1
 256 640 l 1,58,-1
 192 640 l 1,59,-1
 128 640 l 1,60,-1
 128 704 l 1,61,-1
 128 768 l 1,62,-1
 192 768 l 1,63,-1
 256 768 l 1,64,-1
 320 768 l 1,65,-1
 384 768 l 1,66,-1
 384 704 l 1,67,-1
 384 640 l 1,56,-1
EndSplineSet
Validated: 5
EndChar

StartChar: three
Encoding: 51 51 22
Width: 576
GlyphClass: 1
Flags: W
LayerCount: 2
Fore
SplineSet
320 0 m 1,0,-1
 256 0 l 1,1,-1
 192 0 l 1,2,-1
 128 0 l 1,3,-1
 128 64 l 1,4,-1
 128 128 l 1,5,-1
 192 128 l 1,6,-1
 256 128 l 1,7,-1
 320 128 l 1,8,-1
 384 128 l 1,9,-1
 384 64 l 1,10,-1
 384 0 l 1,11,-1
 320 0 l 1,0,-1
384 128 m 1,12,-1
 384 192 l 1,13,-1
 384 256 l 1,14,-1
 384 320 l 1,15,-1
 448 320 l 1,16,-1
 512 320 l 1,17,-1
 512 256 l 1,18,-1
 512 192 l 1,19,-1
 512 128 l 1,20,-1
 448 128 l 1,21,-1
 384 128 l 1,12,-1
128 128 m 1,22,-1
 64 128 l 1,23,-1
 0 128 l 1,24,-1
 0 192 l 1,25,-1
 0 256 l 1,26,-1
 64 256 l 1,27,-1
 128 256 l 1,28,-1
 128 192 l 1,29,-1
 128 128 l 1,22,-1
384 320 m 1,30,-1
 320 320 l 1,31,-1
 256 320 l 1,32,-1
 256 384 l 1,33,-1
 256 448 l 1,34,-1
 320 448 l 1,35,-1
 384 448 l 1,36,-1
 384 384 l 1,37,-1
 384 320 l 1,30,-1
384 448 m 1,38,-1
 384 512 l 1,39,-1
 384 576 l 1,40,-1
 384 640 l 1,41,-1
 448 640 l 1,42,-1
 512 640 l 1,43,-1
 512 576 l 1,44,-1
 512 512 l 1,45,-1
 512 448 l 1,46,-1
 448 448 l 1,47,-1
 384 448 l 1,38,-1
64 512 m 1,48,-1
 0 512 l 1,49,-1
 0 576 l 1,50,-1
 0 640 l 1,51,-1
 64 640 l 1,52,-1
 128 640 l 1,53,-1
 128 576 l 1,54,-1
 128 512 l 1,55,-1
 64 512 l 1,48,-1
384 640 m 1,56,-1
 320 640 l 1,57,-1
 256 640 l 1,58,-1
 192 640 l 1,59,-1
 128 640 l 1,60,-1
 128 704 l 1,61,-1
 128 768 l 1,62,-1
 192 768 l 1,63,-1
 256 768 l 1,64,-1
 320 768 l 1,65,-1
 384 768 l 1,66,-1
 384 704 l 1,67,-1
 384 640 l 1,56,-1
EndSplineSet
Validated: 5
EndChar

StartChar: four
Encoding: 52 52 23
Width: 640
GlyphClass: 1
Flags: W
LayerCount: 2
Fore
SplineSet
448 0 m 1,0,-1
 384 0 l 1,1,-1
 384 64 l 1,2,-1
 384 128 l 1,3,-1
 320 128 l 1,4,-1
 256 128 l 1,5,-1
 192 128 l 1,6,-1
 128 128 l 1,7,-1
 64 128 l 1,8,-1
 0 128 l 1,9,-1
 0 192 l 1,10,-1
 0 256 l 1,11,-1
 0 320 l 1,12,-1
 0 384 l 1,13,-1
 64 384 l 1,14,-1
 128 384 l 1,15,-1
 128 448 l 1,16,-1
 128 512 l 1,17,-1
 192 512 l 1,18,-1
 256 512 l 1,19,-1
 256 576 l 1,20,-1
 256 640 l 1,21,-1
 320 640 l 1,22,-1
 384 640 l 1,23,-1
 384 704 l 1,24,-1
 384 768 l 1,25,-1
 448 768 l 1,26,-1
 512 768 l 1,27,-1
 512 704 l 1,28,-1
 512 640 l 1,29,-1
 512 576 l 1,30,-1
 512 512 l 1,31,-1
 512 448 l 1,32,-1
 512 384 l 1,33,-1
 512 320 l 1,34,-1
 512 256 l 1,35,-1
 576 256 l 1,36,-1
 576 192 l 1,37,-1
 576 128 l 1,38,-1
 512 128 l 1,39,-1
 512 64 l 1,40,-1
 512 0 l 1,41,-1
 448 0 l 1,0,-1
320 256 m 1,42,-1
 384 256 l 1,43,-1
 384 320 l 1,44,-1
 384 384 l 1,45,-1
 384 448 l 1,46,-1
 384 512 l 1,47,-1
 320 512 l 1,48,-1
 256 512 l 1,49,-1
 256 448 l 1,50,-1
 256 384 l 1,51,-1
 192 384 l 1,52,-1
 128 384 l 1,53,-1
 128 320 l 1,54,-1
 128 256 l 1,55,-1
 192 256 l 1,56,-1
 256 256 l 1,57,-1
 320 256 l 1,42,-1
EndSplineSet
Validated: 5
EndChar

StartChar: five
Encoding: 53 53 24
Width: 704
GlyphClass: 1
Flags: W
LayerCount: 2
Fore
SplineSet
448 0 m 1,0,-1
 384 0 l 1,1,-1
 320 0 l 1,2,-1
 256 0 l 1,3,-1
 192 0 l 1,4,-1
 128 0 l 1,5,-1
 64 0 l 1,6,-1
 64 64 l 1,7,-1
 64 128 l 1,8,-1
 128 128 l 1,9,-1
 192 128 l 1,10,-1
 256 128 l 1,11,-1
 320 128 l 1,12,-1
 384 128 l 1,13,-1
 448 128 l 1,14,-1
 512 128 l 1,15,-1
 512 64 l 1,16,-1
 512 0 l 1,17,-1
 448 0 l 1,0,-1
512 128 m 1,18,-1
 512 192 l 1,19,-1
 512 256 l 1,20,-1
 576 256 l 1,21,-1
 640 256 l 1,22,-1
 640 192 l 1,23,-1
 640 128 l 1,24,-1
 576 128 l 1,25,-1
 512 128 l 1,18,-1
64 128 m 1,26,-1
 0 128 l 1,27,-1
 0 192 l 1,28,-1
 0 256 l 1,29,-1
 64 256 l 1,30,-1
 64 192 l 1,31,-1
 64 128 l 1,26,-1
512 256 m 1,32,-1
 448 256 l 1,33,-1
 384 256 l 1,34,-1
 320 256 l 1,35,-1
 256 256 l 1,36,-1
 192 256 l 1,37,-1
 128 256 l 1,38,-1
 128 320 l 1,39,-1
 128 384 l 1,40,-1
 192 384 l 1,41,-1
 256 384 l 1,42,-1
 320 384 l 1,43,-1
 384 384 l 1,44,-1
 448 384 l 1,45,-1
 512 384 l 1,46,-1
 512 320 l 1,47,-1
 512 256 l 1,32,-1
128 384 m 1,48,-1
 64 384 l 1,49,-1
 0 384 l 1,50,-1
 0 448 l 1,51,-1
 0 512 l 1,52,-1
 0 576 l 1,53,-1
 0 640 l 1,54,-1
 0 704 l 1,55,-1
 0 768 l 1,56,-1
 64 768 l 1,57,-1
 128 768 l 1,58,-1
 192 768 l 1,59,-1
 256 768 l 1,60,-1
 320 768 l 1,61,-1
 384 768 l 1,62,-1
 448 768 l 1,63,-1
 512 768 l 1,64,-1
 512 704 l 1,65,-1
 512 640 l 1,66,-1
 448 640 l 1,67,-1
 384 640 l 1,68,-1
 320 640 l 1,69,-1
 256 640 l 1,70,-1
 192 640 l 1,71,-1
 128 640 l 1,72,-1
 128 576 l 1,73,-1
 128 512 l 1,74,-1
 128 448 l 1,75,-1
 128 384 l 1,48,-1
EndSplineSet
Validated: 5
EndChar

StartChar: six
Encoding: 54 54 25
Width: 640
GlyphClass: 1
Flags: W
LayerCount: 2
Fore
SplineSet
384 0 m 1,0,-1
 320 0 l 1,1,-1
 256 0 l 1,2,-1
 192 0 l 1,3,-1
 128 0 l 1,4,-1
 128 64 l 1,5,-1
 128 128 l 1,6,-1
 192 128 l 1,7,-1
 256 128 l 1,8,-1
 320 128 l 1,9,-1
 384 128 l 1,10,-1
 448 128 l 1,11,-1
 448 64 l 1,12,-1
 448 0 l 1,13,-1
 384 0 l 1,0,-1
448 128 m 1,14,-1
 448 192 l 1,15,-1
 448 256 l 1,16,-1
 512 256 l 1,17,-1
 576 256 l 1,18,-1
 576 192 l 1,19,-1
 576 128 l 1,20,-1
 512 128 l 1,21,-1
 448 128 l 1,14,-1
128 128 m 1,22,-1
 64 128 l 1,23,-1
 0 128 l 1,24,-1
 0 192 l 1,25,-1
 0 256 l 1,26,-1
 0 320 l 1,27,-1
 0 384 l 1,28,-1
 0 448 l 1,29,-1
 0 512 l 1,30,-1
 64 512 l 1,31,-1
 128 512 l 1,32,-1
 128 448 l 1,33,-1
 128 384 l 1,34,-1
 192 384 l 1,35,-1
 256 384 l 1,36,-1
 320 384 l 1,37,-1
 384 384 l 1,38,-1
 448 384 l 1,39,-1
 448 320 l 1,40,-1
 448 256 l 1,41,-1
 384 256 l 1,42,-1
 320 256 l 1,43,-1
 256 256 l 1,44,-1
 192 256 l 1,45,-1
 128 256 l 1,46,-1
 128 192 l 1,47,-1
 128 128 l 1,22,-1
128 512 m 1,48,-1
 128 576 l 1,49,-1
 128 640 l 1,50,-1
 192 640 l 1,51,-1
 256 640 l 1,52,-1
 256 576 l 1,53,-1
 256 512 l 1,54,-1
 192 512 l 1,55,-1
 128 512 l 1,48,-1
448 640 m 1,56,-1
 384 640 l 1,57,-1
 320 640 l 1,58,-1
 256 640 l 1,59,-1
 256 704 l 1,60,-1
 256 768 l 1,61,-1
 320 768 l 1,62,-1
 384 768 l 1,63,-1
 448 768 l 1,64,-1
 512 768 l 1,65,-1
 512 704 l 1,66,-1
 512 640 l 1,67,-1
 448 640 l 1,56,-1
EndSplineSet
Validated: 5
EndChar

StartChar: seven
Encoding: 55 55 26
Width: 576
GlyphClass: 1
Flags: W
LayerCount: 2
Fore
SplineSet
192 0 m 1,0,-1
 128 0 l 1,1,-1
 128 64 l 1,2,-1
 128 128 l 1,3,-1
 128 192 l 1,4,-1
 128 256 l 1,5,-1
 128 320 l 1,6,-1
 128 384 l 1,7,-1
 192 384 l 1,8,-1
 256 384 l 1,9,-1
 256 320 l 1,10,-1
 256 256 l 1,11,-1
 256 192 l 1,12,-1
 256 128 l 1,13,-1
 256 64 l 1,14,-1
 256 0 l 1,15,-1
 192 0 l 1,0,-1
256 384 m 1,16,-1
 256 448 l 1,17,-1
 256 512 l 1,18,-1
 320 512 l 1,19,-1
 384 512 l 1,20,-1
 384 448 l 1,21,-1
 384 384 l 1,22,-1
 320 384 l 1,23,-1
 256 384 l 1,16,-1
384 512 m 1,24,-1
 384 576 l 1,25,-1
 384 640 l 1,26,-1
 320 640 l 1,27,-1
 256 640 l 1,28,-1
 192 640 l 1,29,-1
 128 640 l 1,30,-1
 128 576 l 1,31,-1
 128 512 l 1,32,-1
 64 512 l 1,33,-1
 0 512 l 1,34,-1
 0 576 l 1,35,-1
 0 640 l 1,36,-1
 0 704 l 1,37,-1
 0 768 l 1,38,-1
 64 768 l 1,39,-1
 128 768 l 1,40,-1
 192 768 l 1,41,-1
 256 768 l 1,42,-1
 320 768 l 1,43,-1
 384 768 l 1,44,-1
 448 768 l 1,45,-1
 512 768 l 1,46,-1
 512 704 l 1,47,-1
 512 640 l 1,48,-1
 512 576 l 1,49,-1
 512 512 l 1,50,-1
 448 512 l 1,51,-1
 384 512 l 1,24,-1
EndSplineSet
Validated: 5
EndChar

StartChar: eight
Encoding: 56 56 27
Width: 576
GlyphClass: 1
Flags: W
LayerCount: 2
Fore
SplineSet
320 0 m 1,0,-1
 256 0 l 1,1,-1
 192 0 l 1,2,-1
 128 0 l 1,3,-1
 128 64 l 1,4,-1
 128 128 l 1,5,-1
 192 128 l 1,6,-1
 256 128 l 1,7,-1
 320 128 l 1,8,-1
 384 128 l 1,9,-1
 384 64 l 1,10,-1
 384 0 l 1,11,-1
 320 0 l 1,0,-1
384 128 m 1,12,-1
 384 192 l 1,13,-1
 384 256 l 1,14,-1
 384 320 l 1,15,-1
 448 320 l 1,16,-1
 512 320 l 1,17,-1
 512 256 l 1,18,-1
 512 192 l 1,19,-1
 512 128 l 1,20,-1
 448 128 l 1,21,-1
 384 128 l 1,12,-1
128 128 m 1,22,-1
 64 128 l 1,23,-1
 0 128 l 1,24,-1
 0 192 l 1,25,-1
 0 256 l 1,26,-1
 0 320 l 1,27,-1
 64 320 l 1,28,-1
 128 320 l 1,29,-1
 128 256 l 1,30,-1
 128 192 l 1,31,-1
 128 128 l 1,22,-1
384 320 m 1,32,-1
 320 320 l 1,33,-1
 256 320 l 1,34,-1
 192 320 l 1,35,-1
 128 320 l 1,36,-1
 128 384 l 1,37,-1
 128 448 l 1,38,-1
 192 448 l 1,39,-1
 256 448 l 1,40,-1
 320 448 l 1,41,-1
 384 448 l 1,42,-1
 384 384 l 1,43,-1
 384 320 l 1,32,-1
384 448 m 1,44,-1
 384 512 l 1,45,-1
 384 576 l 1,46,-1
 384 640 l 1,47,-1
 448 640 l 1,48,-1
 512 640 l 1,49,-1
 512 576 l 1,50,-1
 512 512 l 1,51,-1
 512 448 l 1,52,-1
 448 448 l 1,53,-1
 384 448 l 1,44,-1
128 448 m 1,54,-1
 64 448 l 1,55,-1
 0 448 l 1,56,-1
 0 512 l 1,57,-1
 0 576 l 1,58,-1
 0 640 l 1,59,-1
 64 640 l 1,60,-1
 128 640 l 1,61,-1
 128 576 l 1,62,-1
 128 512 l 1,63,-1
 128 448 l 1,54,-1
384 640 m 1,64,-1
 320 640 l 1,65,-1
 256 640 l 1,66,-1
 192 640 l 1,67,-1
 128 640 l 1,68,-1
 128 704 l 1,69,-1
 128 768 l 1,70,-1
 192 768 l 1,71,-1
 256 768 l 1,72,-1
 320 768 l 1,73,-1
 384 768 l 1,74,-1
 384 704 l 1,75,-1
 384 640 l 1,64,-1
EndSplineSet
Validated: 5
EndChar

StartChar: nine
Encoding: 57 57 28
Width: 576
GlyphClass: 1
Flags: W
LayerCount: 2
Fore
SplineSet
320 0 m 1,0,-1
 256 0 l 1,1,-1
 192 0 l 1,2,-1
 128 0 l 1,3,-1
 128 64 l 1,4,-1
 128 128 l 1,5,-1
 192 128 l 1,6,-1
 256 128 l 1,7,-1
 320 128 l 1,8,-1
 384 128 l 1,9,-1
 384 64 l 1,10,-1
 384 0 l 1,11,-1
 320 0 l 1,0,-1
384 128 m 1,12,-1
 384 192 l 1,13,-1
 384 256 l 1,14,-1
 320 256 l 1,15,-1
 256 256 l 1,16,-1
 192 256 l 1,17,-1
 128 256 l 1,18,-1
 128 320 l 1,19,-1
 128 384 l 1,20,-1
 192 384 l 1,21,-1
 256 384 l 1,22,-1
 320 384 l 1,23,-1
 384 384 l 1,24,-1
 384 448 l 1,25,-1
 384 512 l 1,26,-1
 384 576 l 1,27,-1
 384 640 l 1,28,-1
 448 640 l 1,29,-1
 512 640 l 1,30,-1
 512 576 l 1,31,-1
 512 512 l 1,32,-1
 512 448 l 1,33,-1
 512 384 l 1,34,-1
 512 320 l 1,35,-1
 512 256 l 1,36,-1
 512 192 l 1,37,-1
 512 128 l 1,38,-1
 448 128 l 1,39,-1
 384 128 l 1,12,-1
128 384 m 1,40,-1
 64 384 l 1,41,-1
 0 384 l 1,42,-1
 0 448 l 1,43,-1
 0 512 l 1,44,-1
 0 576 l 1,45,-1
 0 640 l 1,46,-1
 64 640 l 1,47,-1
 128 640 l 1,48,-1
 128 576 l 1,49,-1
 128 512 l 1,50,-1
 128 448 l 1,51,-1
 128 384 l 1,40,-1
384 640 m 1,52,-1
 320 640 l 1,53,-1
 256 640 l 1,54,-1
 192 640 l 1,55,-1
 128 640 l 1,56,-1
 128 704 l 1,57,-1
 128 768 l 1,58,-1
 192 768 l 1,59,-1
 256 768 l 1,60,-1
 320 768 l 1,61,-1
 384 768 l 1,62,-1
 384 704 l 1,63,-1
 384 640 l 1,52,-1
EndSplineSet
Validated: 5
EndChar

StartChar: colon
Encoding: 58 58 29
Width: 256
GlyphClass: 1
Flags: W
LayerCount: 2
Fore
SplineSet
128 0 m 1,0,-1
 64 0 l 1,1,-1
 64 64 l 1,2,-1
 64 128 l 1,3,-1
 128 128 l 1,4,-1
 192 128 l 1,5,-1
 192 64 l 1,6,-1
 192 0 l 1,7,-1
 128 0 l 1,0,-1
128 448 m 1,8,-1
 64 448 l 1,9,-1
 64 512 l 1,10,-1
 64 576 l 1,11,-1
 128 576 l 1,12,-1
 192 576 l 1,13,-1
 192 512 l 1,14,-1
 192 448 l 1,15,-1
 128 448 l 1,8,-1
EndSplineSet
Validated: 1
EndChar

StartChar: semicolon
Encoding: 59 59 30
Width: 256
GlyphClass: 1
Flags: W
LayerCount: 2
Fore
SplineSet
64 -128 m 1,0,-1
 64 -64 l 1,1,-1
 128 -64 l 1,2,-1
 128 -128 l 1,3,-1
 64 -128 l 1,0,-1
128 -64 m 1,4,-1
 128 0 l 1,5,-1
 64 0 l 1,6,-1
 64 64 l 1,7,-1
 64 128 l 1,8,-1
 128 128 l 1,9,-1
 192 128 l 1,10,-1
 192 64 l 1,11,-1
 192 0 l 1,12,-1
 192 -64 l 1,13,-1
 128 -64 l 1,4,-1
128 448 m 1,14,-1
 64 448 l 1,15,-1
 64 512 l 1,16,-1
 64 576 l 1,17,-1
 128 576 l 1,18,-1
 192 576 l 1,19,-1
 192 512 l 1,20,-1
 192 448 l 1,21,-1
 128 448 l 1,14,-1
EndSplineSet
Validated: 5
EndChar

StartChar: less
Encoding: 60 60 31
Width: 448
GlyphClass: 1
Flags: W
LayerCount: 2
Fore
SplineSet
320 128 m 1,0,-1
 256 128 l 1,1,-1
 256 192 l 1,2,-1
 256 256 l 1,3,-1
 320 256 l 1,4,-1
 384 256 l 1,5,-1
 384 192 l 1,6,-1
 384 128 l 1,7,-1
 320 128 l 1,0,-1
256 256 m 1,8,-1
 192 256 l 1,9,-1
 128 256 l 1,10,-1
 128 320 l 1,11,-1
 192 320 l 1,12,-1
 256 320 l 1,13,-1
 256 256 l 1,8,-1
128 320 m 1,14,-1
 64 320 l 1,15,-1
 0 320 l 1,16,-1
 0 384 l 1,17,-1
 0 448 l 1,18,-1
 64 448 l 1,19,-1
 128 448 l 1,20,-1
 128 384 l 1,21,-1
 128 320 l 1,14,-1
192 512 m 1,22,-1
 256 512 l 1,23,-1
 256 448 l 1,24,-1
 192 448 l 1,25,-1
 128 448 l 1,26,-1
 128 512 l 1,27,-1
 192 512 l 1,22,-1
256 512 m 1,28,-1
 256 576 l 1,29,-1
 256 640 l 1,30,-1
 320 640 l 1,31,-1
 384 640 l 1,32,-1
 384 576 l 1,33,-1
 384 512 l 1,34,-1
 320 512 l 1,35,-1
 256 512 l 1,28,-1
EndSplineSet
Validated: 5
EndChar

StartChar: equal
Encoding: 61 61 32
Width: 576
GlyphClass: 1
Flags: W
LayerCount: 2
Fore
SplineSet
448 192 m 1,0,-1
 384 192 l 1,1,-1
 320 192 l 1,2,-1
 256 192 l 1,3,-1
 192 192 l 1,4,-1
 128 192 l 1,5,-1
 64 192 l 1,6,-1
 0 192 l 1,7,-1
 0 256 l 1,8,-1
 0 320 l 1,9,-1
 64 320 l 1,10,-1
 128 320 l 1,11,-1
 192 320 l 1,12,-1
 256 320 l 1,13,-1
 320 320 l 1,14,-1
 384 320 l 1,15,-1
 448 320 l 1,16,-1
 512 320 l 1,17,-1
 512 256 l 1,18,-1
 512 192 l 1,19,-1
 448 192 l 1,0,-1
448 448 m 1,20,-1
 384 448 l 1,21,-1
 320 448 l 1,22,-1
 256 448 l 1,23,-1
 192 448 l 1,24,-1
 128 448 l 1,25,-1
 64 448 l 1,26,-1
 0 448 l 1,27,-1
 0 512 l 1,28,-1
 0 576 l 1,29,-1
 64 576 l 1,30,-1
 128 576 l 1,31,-1
 192 576 l 1,32,-1
 256 576 l 1,33,-1
 320 576 l 1,34,-1
 384 576 l 1,35,-1
 448 576 l 1,36,-1
 512 576 l 1,37,-1
 512 512 l 1,38,-1
 512 448 l 1,39,-1
 448 448 l 1,20,-1
EndSplineSet
Validated: 1
EndChar

StartChar: greater
Encoding: 62 62 33
Width: 448
GlyphClass: 1
Flags: W
LayerCount: 2
Fore
SplineSet
64 128 m 1,0,-1
 0 128 l 1,1,-1
 0 192 l 1,2,-1
 0 256 l 1,3,-1
 64 256 l 1,4,-1
 128 256 l 1,5,-1
 128 192 l 1,6,-1
 128 128 l 1,7,-1
 64 128 l 1,0,-1
192 320 m 1,8,-1
 256 320 l 1,9,-1
 256 256 l 1,10,-1
 192 256 l 1,11,-1
 128 256 l 1,12,-1
 128 320 l 1,13,-1
 192 320 l 1,8,-1
256 320 m 1,14,-1
 256 384 l 1,15,-1
 256 448 l 1,16,-1
 320 448 l 1,17,-1
 384 448 l 1,18,-1
 384 384 l 1,19,-1
 384 320 l 1,20,-1
 320 320 l 1,21,-1
 256 320 l 1,14,-1
256 448 m 1,22,-1
 192 448 l 1,23,-1
 128 448 l 1,24,-1
 128 512 l 1,25,-1
 192 512 l 1,26,-1
 256 512 l 1,27,-1
 256 448 l 1,22,-1
128 512 m 1,28,-1
 64 512 l 1,29,-1
 0 512 l 1,30,-1
 0 576 l 1,31,-1
 0 640 l 1,32,-1
 64 640 l 1,33,-1
 128 640 l 1,34,-1
 128 576 l 1,35,-1
 128 512 l 1,28,-1
EndSplineSet
Validated: 5
EndChar

StartChar: question
Encoding: 63 63 34
Width: 576
GlyphClass: 1
Flags: W
LayerCount: 2
Fore
SplineSet
192 0 m 1,0,-1
 128 0 l 1,1,-1
 128 64 l 1,2,-1
 128 128 l 1,3,-1
 192 128 l 1,4,-1
 256 128 l 1,5,-1
 256 64 l 1,6,-1
 256 0 l 1,7,-1
 192 0 l 1,0,-1
192 192 m 1,8,-1
 128 192 l 1,9,-1
 128 256 l 1,10,-1
 128 320 l 1,11,-1
 192 320 l 1,12,-1
 256 320 l 1,13,-1
 256 256 l 1,14,-1
 256 192 l 1,15,-1
 192 192 l 1,8,-1
256 320 m 1,16,-1
 256 384 l 1,17,-1
 256 448 l 1,18,-1
 320 448 l 1,19,-1
 384 448 l 1,20,-1
 384 384 l 1,21,-1
 384 320 l 1,22,-1
 320 320 l 1,23,-1
 256 320 l 1,16,-1
384 448 m 1,24,-1
 384 512 l 1,25,-1
 384 576 l 1,26,-1
 384 640 l 1,27,-1
 448 640 l 1,28,-1
 512 640 l 1,29,-1
 512 576 l 1,30,-1
 512 512 l 1,31,-1
 512 448 l 1,32,-1
 448 448 l 1,33,-1
 384 448 l 1,24,-1
64 512 m 1,34,-1
 0 512 l 1,35,-1
 0 576 l 1,36,-1
 0 640 l 1,37,-1
 64 640 l 1,38,-1
 128 640 l 1,39,-1
 128 576 l 1,40,-1
 128 512 l 1,41,-1
 64 512 l 1,34,-1
384 640 m 1,42,-1
 320 640 l 1,43,-1
 256 640 l 1,44,-1
 192 640 l 1,45,-1
 128 640 l 1,46,-1
 128 704 l 1,47,-1
 128 768 l 1,48,-1
 192 768 l 1,49,-1
 256 768 l 1,50,-1
 320 768 l 1,51,-1
 384 768 l 1,52,-1
 384 704 l 1,53,-1
 384 640 l 1,42,-1
EndSplineSet
Validated: 5
EndChar

StartChar: at
Encoding: 64 64 35
Width: 960
GlyphClass: 1
Flags: W
LayerCount: 2
Fore
SplineSet
704 -192 m 1,0,-1
 640 -192 l 1,1,-1
 576 -192 l 1,2,-1
 512 -192 l 1,3,-1
 448 -192 l 1,4,-1
 384 -192 l 1,5,-1
 320 -192 l 1,6,-1
 256 -192 l 1,7,-1
 192 -192 l 1,8,-1
 128 -192 l 1,9,-1
 128 -128 l 1,10,-1
 64 -128 l 1,11,-1
 64 -64 l 1,12,-1
 0 -64 l 1,13,-1
 0 0 l 1,14,-1
 0 64 l 1,15,-1
 0 128 l 1,16,-1
 0 192 l 1,17,-1
 0 256 l 1,18,-1
 0 320 l 1,19,-1
 0 384 l 1,20,-1
 0 448 l 1,21,-1
 0 512 l 1,22,-1
 0 576 l 1,23,-1
 0 640 l 1,24,-1
 64 640 l 1,25,-1
 64 704 l 1,26,-1
 128 704 l 1,27,-1
 128 768 l 1,28,-1
 192 768 l 1,29,-1
 256 768 l 1,30,-1
 320 768 l 1,31,-1
 384 768 l 1,32,-1
 448 768 l 1,33,-1
 512 768 l 1,34,-1
 576 768 l 1,35,-1
 640 768 l 1,36,-1
 704 768 l 1,37,-1
 768 768 l 1,38,-1
 768 704 l 1,39,-1
 832 704 l 1,40,-1
 832 640 l 1,41,-1
 896 640 l 1,42,-1
 896 576 l 1,43,-1
 896 512 l 1,44,-1
 896 448 l 1,45,-1
 896 384 l 1,46,-1
 896 320 l 1,47,-1
 896 256 l 1,48,-1
 896 192 l 1,49,-1
 896 128 l 1,50,-1
 896 64 l 1,51,-1
 832 64 l 1,52,-1
 768 64 l 1,53,-1
 768 0 l 1,54,-1
 704 0 l 1,55,-1
 640 0 l 1,56,-1
 576 0 l 1,57,-1
 512 0 l 1,58,-1
 448 0 l 1,59,-1
 384 0 l 1,60,-1
 320 0 l 1,61,-1
 256 0 l 1,62,-1
 256 64 l 1,63,-1
 256 128 l 1,64,-1
 256 192 l 1,65,-1
 256 256 l 1,66,-1
 256 320 l 1,67,-1
 256 384 l 1,68,-1
 320 384 l 1,69,-1
 384 384 l 1,70,-1
 384 448 l 1,71,-1
 384 512 l 1,72,-1
 448 512 l 1,73,-1
 512 512 l 1,74,-1
 576 512 l 1,75,-1
 640 512 l 1,76,-1
 704 512 l 1,77,-1
 704 448 l 1,78,-1
 704 384 l 1,79,-1
 704 320 l 1,80,-1
 704 256 l 1,81,-1
 704 192 l 1,82,-1
 704 128 l 1,83,-1
 768 128 l 1,84,-1
 768 192 l 1,85,-1
 768 256 l 1,86,-1
 768 320 l 1,87,-1
 768 384 l 1,88,-1
 768 448 l 1,89,-1
 768 512 l 1,90,-1
 768 576 l 1,91,-1
 768 640 l 1,92,-1
 704 640 l 1,93,-1
 640 640 l 1,94,-1
 576 640 l 1,95,-1
 512 640 l 1,96,-1
 448 640 l 1,97,-1
 384 640 l 1,98,-1
 320 640 l 1,99,-1
 256 640 l 1,100,-1
 192 640 l 1,101,-1
 128 640 l 1,102,-1
 128 576 l 1,103,-1
 128 512 l 1,104,-1
 128 448 l 1,105,-1
 128 384 l 1,106,-1
 128 320 l 1,107,-1
 128 256 l 1,108,-1
 128 192 l 1,109,-1
 128 128 l 1,110,-1
 128 64 l 1,111,-1
 128 0 l 1,112,-1
 128 -64 l 1,113,-1
 192 -64 l 1,114,-1
 256 -64 l 1,115,-1
 320 -64 l 1,116,-1
 384 -64 l 1,117,-1
 448 -64 l 1,118,-1
 512 -64 l 1,119,-1
 576 -64 l 1,120,-1
 640 -64 l 1,121,-1
 704 -64 l 1,122,-1
 768 -64 l 1,123,-1
 768 0 l 1,124,-1
 832 0 l 1,125,-1
 896 0 l 1,126,-1
 896 -64 l 1,127,-1
 832 -64 l 1,128,-1
 832 -128 l 1,129,-1
 768 -128 l 1,130,-1
 768 -192 l 1,131,-1
 704 -192 l 1,0,-1
512 128 m 1,132,-1
 576 128 l 1,133,-1
 576 192 l 1,134,-1
 576 256 l 1,135,-1
 576 320 l 1,136,-1
 576 384 l 1,137,-1
 512 384 l 1,138,-1
 448 384 l 1,139,-1
 384 384 l 1,140,-1
 384 320 l 1,141,-1
 384 256 l 1,142,-1
 384 192 l 1,143,-1
 384 128 l 1,144,-1
 448 128 l 1,145,-1
 512 128 l 1,132,-1
EndSplineSet
Validated: 5
EndChar

StartChar: A
Encoding: 65 65 36
Width: 640
GlyphClass: 1
Flags: W
LayerCount: 2
Fore
SplineSet
512 0 m 1,0,-1
 448 0 l 1,1,-1
 448 64 l 1,2,-1
 448 128 l 1,3,-1
 448 192 l 1,4,-1
 448 256 l 1,5,-1
 448 320 l 1,6,-1
 448 384 l 1,7,-1
 384 384 l 1,8,-1
 320 384 l 1,9,-1
 256 384 l 1,10,-1
 192 384 l 1,11,-1
 128 384 l 1,12,-1
 128 320 l 1,13,-1
 128 256 l 1,14,-1
 128 192 l 1,15,-1
 128 128 l 1,16,-1
 128 64 l 1,17,-1
 128 0 l 1,18,-1
 64 0 l 1,19,-1
 0 0 l 1,20,-1
 0 64 l 1,21,-1
 0 128 l 1,22,-1
 0 192 l 1,23,-1
 0 256 l 1,24,-1
 0 320 l 1,25,-1
 0 384 l 1,26,-1
 0 448 l 1,27,-1
 0 512 l 1,28,-1
 0 576 l 1,29,-1
 0 640 l 1,30,-1
 64 640 l 1,31,-1
 128 640 l 1,32,-1
 128 576 l 1,33,-1
 128 512 l 1,34,-1
 192 512 l 1,35,-1
 256 512 l 1,36,-1
 320 512 l 1,37,-1
 384 512 l 1,38,-1
 448 512 l 1,39,-1
 448 576 l 1,40,-1
 448 640 l 1,41,-1
 512 640 l 1,42,-1
 576 640 l 1,43,-1
 576 576 l 1,44,-1
 576 512 l 1,45,-1
 576 448 l 1,46,-1
 576 384 l 1,47,-1
 576 320 l 1,48,-1
 576 256 l 1,49,-1
 576 192 l 1,50,-1
 576 128 l 1,51,-1
 576 64 l 1,52,-1
 576 0 l 1,53,-1
 512 0 l 1,0,-1
448 640 m 1,54,-1
 384 640 l 1,55,-1
 320 640 l 1,56,-1
 256 640 l 1,57,-1
 192 640 l 1,58,-1
 128 640 l 1,59,-1
 128 704 l 1,60,-1
 128 768 l 1,61,-1
 192 768 l 1,62,-1
 256 768 l 1,63,-1
 320 768 l 1,64,-1
 384 768 l 1,65,-1
 448 768 l 1,66,-1
 448 704 l 1,67,-1
 448 640 l 1,54,-1
EndSplineSet
Validated: 5
EndChar

StartChar: B
Encoding: 66 66 37
Width: 704
GlyphClass: 1
Flags: W
LayerCount: 2
Fore
SplineSet
448 0 m 1,0,-1
 384 0 l 1,1,-1
 320 0 l 1,2,-1
 256 0 l 1,3,-1
 192 0 l 1,4,-1
 128 0 l 1,5,-1
 64 0 l 1,6,-1
 0 0 l 1,7,-1
 0 64 l 1,8,-1
 0 128 l 1,9,-1
 0 192 l 1,10,-1
 0 256 l 1,11,-1
 0 320 l 1,12,-1
 0 384 l 1,13,-1
 0 448 l 1,14,-1
 0 512 l 1,15,-1
 0 576 l 1,16,-1
 0 640 l 1,17,-1
 0 704 l 1,18,-1
 0 768 l 1,19,-1
 64 768 l 1,20,-1
 128 768 l 1,21,-1
 192 768 l 1,22,-1
 256 768 l 1,23,-1
 320 768 l 1,24,-1
 384 768 l 1,25,-1
 448 768 l 1,26,-1
 512 768 l 1,27,-1
 512 704 l 1,28,-1
 512 640 l 1,29,-1
 576 640 l 1,30,-1
 640 640 l 1,31,-1
 640 576 l 1,32,-1
 640 512 l 1,33,-1
 640 448 l 1,34,-1
 576 448 l 1,35,-1
 512 448 l 1,36,-1
 512 512 l 1,37,-1
 512 576 l 1,38,-1
 512 640 l 1,39,-1
 448 640 l 1,40,-1
 384 640 l 1,41,-1
 320 640 l 1,42,-1
 256 640 l 1,43,-1
 192 640 l 1,44,-1
 128 640 l 1,45,-1
 128 576 l 1,46,-1
 128 512 l 1,47,-1
 128 448 l 1,48,-1
 192 448 l 1,49,-1
 256 448 l 1,50,-1
 320 448 l 1,51,-1
 384 448 l 1,52,-1
 448 448 l 1,53,-1
 512 448 l 1,54,-1
 512 384 l 1,55,-1
 512 320 l 1,56,-1
 576 320 l 1,57,-1
 640 320 l 1,58,-1
 640 256 l 1,59,-1
 640 192 l 1,60,-1
 640 128 l 1,61,-1
 576 128 l 1,62,-1
 512 128 l 1,63,-1
 512 192 l 1,64,-1
 512 256 l 1,65,-1
 512 320 l 1,66,-1
 448 320 l 1,67,-1
 384 320 l 1,68,-1
 320 320 l 1,69,-1
 256 320 l 1,70,-1
 192 320 l 1,71,-1
 128 320 l 1,72,-1
 128 256 l 1,73,-1
 128 192 l 1,74,-1
 128 128 l 1,75,-1
 192 128 l 1,76,-1
 256 128 l 1,77,-1
 320 128 l 1,78,-1
 384 128 l 1,79,-1
 448 128 l 1,80,-1
 512 128 l 1,81,-1
 512 64 l 1,82,-1
 512 0 l 1,83,-1
 448 0 l 1,0,-1
EndSplineSet
Validated: 5
EndChar

StartChar: C
Encoding: 67 67 38
Width: 768
GlyphClass: 1
Flags: W
LayerCount: 2
Fore
SplineSet
576 0 m 1,0,-1
 512 0 l 1,1,-1
 448 0 l 1,2,-1
 384 0 l 1,3,-1
 320 0 l 1,4,-1
 256 0 l 1,5,-1
 192 0 l 1,6,-1
 128 0 l 1,7,-1
 128 64 l 1,8,-1
 128 128 l 1,9,-1
 192 128 l 1,10,-1
 256 128 l 1,11,-1
 320 128 l 1,12,-1
 384 128 l 1,13,-1
 448 128 l 1,14,-1
 512 128 l 1,15,-1
 576 128 l 1,16,-1
 576 192 l 1,17,-1
 576 256 l 1,18,-1
 640 256 l 1,19,-1
 704 256 l 1,20,-1
 704 192 l 1,21,-1
 704 128 l 1,22,-1
 640 128 l 1,23,-1
 640 64 l 1,24,-1
 640 0 l 1,25,-1
 576 0 l 1,0,-1
128 128 m 1,26,-1
 64 128 l 1,27,-1
 0 128 l 1,28,-1
 0 192 l 1,29,-1
 0 256 l 1,30,-1
 0 320 l 1,31,-1
 0 384 l 1,32,-1
 0 448 l 1,33,-1
 0 512 l 1,34,-1
 0 576 l 1,35,-1
 0 640 l 1,36,-1
 64 640 l 1,37,-1
 128 640 l 1,38,-1
 128 576 l 1,39,-1
 128 512 l 1,40,-1
 128 448 l 1,41,-1
 128 384 l 1,42,-1
 128 320 l 1,43,-1
 128 256 l 1,44,-1
 128 192 l 1,45,-1
 128 128 l 1,26,-1
640 512 m 1,46,-1
 576 512 l 1,47,-1
 576 576 l 1,48,-1
 576 640 l 1,49,-1
 512 640 l 1,50,-1
 448 640 l 1,51,-1
 384 640 l 1,52,-1
 320 640 l 1,53,-1
 256 640 l 1,54,-1
 192 640 l 1,55,-1
 128 640 l 1,56,-1
 128 704 l 1,57,-1
 128 768 l 1,58,-1
 192 768 l 1,59,-1
 256 768 l 1,60,-1
 320 768 l 1,61,-1
 384 768 l 1,62,-1
 448 768 l 1,63,-1
 512 768 l 1,64,-1
 576 768 l 1,65,-1
 640 768 l 1,66,-1
 640 704 l 1,67,-1
 640 640 l 1,68,-1
 704 640 l 1,69,-1
 704 576 l 1,70,-1
 704 512 l 1,71,-1
 640 512 l 1,46,-1
EndSplineSet
Validated: 5
EndChar

StartChar: D
Encoding: 68 68 39
Width: 704
GlyphClass: 1
Flags: W
LayerCount: 2
Fore
SplineSet
448 0 m 1,0,-1
 384 0 l 1,1,-1
 320 0 l 1,2,-1
 256 0 l 1,3,-1
 192 0 l 1,4,-1
 128 0 l 1,5,-1
 64 0 l 1,6,-1
 0 0 l 1,7,-1
 0 64 l 1,8,-1
 0 128 l 1,9,-1
 0 192 l 1,10,-1
 0 256 l 1,11,-1
 0 320 l 1,12,-1
 0 384 l 1,13,-1
 0 448 l 1,14,-1
 0 512 l 1,15,-1
 0 576 l 1,16,-1
 0 640 l 1,17,-1
 0 704 l 1,18,-1
 0 768 l 1,19,-1
 64 768 l 1,20,-1
 128 768 l 1,21,-1
 192 768 l 1,22,-1
 256 768 l 1,23,-1
 320 768 l 1,24,-1
 384 768 l 1,25,-1
 448 768 l 1,26,-1
 512 768 l 1,27,-1
 512 704 l 1,28,-1
 512 640 l 1,29,-1
 576 640 l 1,30,-1
 640 640 l 1,31,-1
 640 576 l 1,32,-1
 640 512 l 1,33,-1
 640 448 l 1,34,-1
 640 384 l 1,35,-1
 640 320 l 1,36,-1
 640 256 l 1,37,-1
 640 192 l 1,38,-1
 640 128 l 1,39,-1
 576 128 l 1,40,-1
 512 128 l 1,41,-1
 512 192 l 1,42,-1
 512 256 l 1,43,-1
 512 320 l 1,44,-1
 512 384 l 1,45,-1
 512 448 l 1,46,-1
 512 512 l 1,47,-1
 512 576 l 1,48,-1
 512 640 l 1,49,-1
 448 640 l 1,50,-1
 384 640 l 1,51,-1
 320 640 l 1,52,-1
 256 640 l 1,53,-1
 192 640 l 1,54,-1
 128 640 l 1,55,-1
 128 576 l 1,56,-1
 128 512 l 1,57,-1
 128 448 l 1,58,-1
 128 384 l 1,59,-1
 128 320 l 1,60,-1
 128 256 l 1,61,-1
 128 192 l 1,62,-1
 128 128 l 1,63,-1
 192 128 l 1,64,-1
 256 128 l 1,65,-1
 320 128 l 1,66,-1
 384 128 l 1,67,-1
 448 128 l 1,68,-1
 512 128 l 1,69,-1
 512 64 l 1,70,-1
 512 0 l 1,71,-1
 448 0 l 1,0,-1
EndSplineSet
Validated: 5
EndChar

StartChar: E
Encoding: 69 69 40
Width: 704
GlyphClass: 1
Flags: W
LayerCount: 2
Fore
SplineSet
576 0 m 1,0,-1
 512 0 l 1,1,-1
 448 0 l 1,2,-1
 384 0 l 1,3,-1
 320 0 l 1,4,-1
 256 0 l 1,5,-1
 192 0 l 1,6,-1
 128 0 l 1,7,-1
 64 0 l 1,8,-1
 0 0 l 1,9,-1
 0 64 l 1,10,-1
 0 128 l 1,11,-1
 0 192 l 1,12,-1
 0 256 l 1,13,-1
 0 320 l 1,14,-1
 0 384 l 1,15,-1
 0 448 l 1,16,-1
 0 512 l 1,17,-1
 0 576 l 1,18,-1
 0 640 l 1,19,-1
 0 704 l 1,20,-1
 0 768 l 1,21,-1
 64 768 l 1,22,-1
 128 768 l 1,23,-1
 192 768 l 1,24,-1
 256 768 l 1,25,-1
 320 768 l 1,26,-1
 384 768 l 1,27,-1
 448 768 l 1,28,-1
 512 768 l 1,29,-1
 576 768 l 1,30,-1
 640 768 l 1,31,-1
 640 704 l 1,32,-1
 640 640 l 1,33,-1
 576 640 l 1,34,-1
 512 640 l 1,35,-1
 448 640 l 1,36,-1
 384 640 l 1,37,-1
 320 640 l 1,38,-1
 256 640 l 1,39,-1
 192 640 l 1,40,-1
 128 640 l 1,41,-1
 128 576 l 1,42,-1
 128 512 l 1,43,-1
 192 512 l 1,44,-1
 256 512 l 1,45,-1
 320 512 l 1,46,-1
 320 448 l 1,47,-1
 320 384 l 1,48,-1
 256 384 l 1,49,-1
 192 384 l 1,50,-1
 128 384 l 1,51,-1
 128 320 l 1,52,-1
 128 256 l 1,53,-1
 128 192 l 1,54,-1
 128 128 l 1,55,-1
 192 128 l 1,56,-1
 256 128 l 1,57,-1
 320 128 l 1,58,-1
 384 128 l 1,59,-1
 448 128 l 1,60,-1
 512 128 l 1,61,-1
 576 128 l 1,62,-1
 640 128 l 1,63,-1
 640 64 l 1,64,-1
 640 0 l 1,65,-1
 576 0 l 1,0,-1
EndSplineSet
Validated: 1
EndChar

StartChar: F
Encoding: 70 70 41
Width: 640
GlyphClass: 1
Flags: W
LayerCount: 2
Fore
SplineSet
64 0 m 1,0,-1
 0 0 l 1,1,-1
 0 64 l 1,2,-1
 0 128 l 1,3,-1
 0 192 l 1,4,-1
 0 256 l 1,5,-1
 0 320 l 1,6,-1
 0 384 l 1,7,-1
 0 448 l 1,8,-1
 0 512 l 1,9,-1
 0 576 l 1,10,-1
 0 640 l 1,11,-1
 0 704 l 1,12,-1
 0 768 l 1,13,-1
 64 768 l 1,14,-1
 128 768 l 1,15,-1
 192 768 l 1,16,-1
 256 768 l 1,17,-1
 320 768 l 1,18,-1
 384 768 l 1,19,-1
 448 768 l 1,20,-1
 512 768 l 1,21,-1
 576 768 l 1,22,-1
 576 704 l 1,23,-1
 576 640 l 1,24,-1
 512 640 l 1,25,-1
 448 640 l 1,26,-1
 384 640 l 1,27,-1
 320 640 l 1,28,-1
 256 640 l 1,29,-1
 192 640 l 1,30,-1
 128 640 l 1,31,-1
 128 576 l 1,32,-1
 128 512 l 1,33,-1
 192 512 l 1,34,-1
 256 512 l 1,35,-1
 320 512 l 1,36,-1
 384 512 l 1,37,-1
 384 448 l 1,38,-1
 384 384 l 1,39,-1
 320 384 l 1,40,-1
 256 384 l 1,41,-1
 192 384 l 1,42,-1
 128 384 l 1,43,-1
 128 320 l 1,44,-1
 128 256 l 1,45,-1
 128 192 l 1,46,-1
 128 128 l 1,47,-1
 128 64 l 1,48,-1
 128 0 l 1,49,-1
 64 0 l 1,0,-1
EndSplineSet
Validated: 1
EndChar

StartChar: G
Encoding: 71 71 42
Width: 768
GlyphClass: 1
Flags: W
LayerCount: 2
Fore
SplineSet
512 0 m 5,0,-1
 448 0 l 5,1,-1
 384 0 l 5,2,-1
 320 0 l 5,3,-1
 256 0 l 5,4,-1
 192 0 l 5,5,-1
 128 0 l 5,6,-1
 128 64 l 5,7,-1
 128 128 l 5,8,-1
 192 128 l 5,9,-1
 256 128 l 5,10,-1
 320 128 l 5,11,-1
 384 128 l 5,12,-1
 448 128 l 5,13,-1
 512 128 l 5,14,-1
 576 128 l 5,15,-1
 576 64 l 5,16,-1
 576 0 l 5,17,-1
 512 0 l 5,0,-1
576 128 m 5,18,-1
 576 192 l 5,19,-1
 576 256 l 5,20,-1
 576 320 l 5,21,-1
 576 384 l 5,22,-1
 512 384 l 5,23,-1
 448 384 l 5,24,-1
 448 448 l 5,25,-1
 448 512 l 5,26,-1
 512 512 l 5,27,-1
 576 512 l 5,28,-1
 640 512 l 5,29,-1
 704 512 l 5,30,-1
 704 448 l 5,31,-1
 704 384 l 5,32,-1
 704 320 l 5,33,-1
 704 256 l 5,34,-1
 704 192 l 5,35,-1
 704 128 l 5,36,-1
 640 128 l 5,37,-1
 576 128 l 5,18,-1
128 128 m 5,38,-1
 64 128 l 5,39,-1
 0 128 l 5,40,-1
 0 192 l 5,41,-1
 0 256 l 5,42,-1
 0 320 l 5,43,-1
 0 384 l 5,44,-1
 0 448 l 5,45,-1
 0 512 l 5,46,-1
 0 576 l 5,47,-1
 0 640 l 5,48,-1
 64 640 l 5,49,-1
 128 640 l 5,50,-1
 128 576 l 5,51,-1
 128 512 l 5,52,-1
 128 448 l 5,53,-1
 128 384 l 5,54,-1
 128 320 l 5,55,-1
 128 256 l 5,56,-1
 128 192 l 5,57,-1
 128 128 l 5,38,-1
640 640 m 5,58,-1
 576 640 l 5,59,-1
 512 640 l 5,60,-1
 448 640 l 5,61,-1
 384 640 l 5,62,-1
 320 640 l 5,63,-1
 256 640 l 5,64,-1
 192 640 l 5,65,-1
 128 640 l 5,66,-1
 128 704 l 5,67,-1
 128 768 l 5,68,-1
 192 768 l 5,69,-1
 256 768 l 5,70,-1
 320 768 l 5,71,-1
 384 768 l 5,72,-1
 448 768 l 5,73,-1
 512 768 l 5,74,-1
 576 768 l 5,75,-1
 640 768 l 5,76,-1
 704 768 l 5,77,-1
 704 704 l 5,78,-1
 704 640 l 5,79,-1
 640 640 l 5,58,-1
EndSplineSet
Validated: 5
EndChar

StartChar: H
Encoding: 72 72 43
Width: 704
GlyphClass: 1
Flags: W
LayerCount: 2
Fore
SplineSet
576 0 m 1,0,-1
 512 0 l 1,1,-1
 512 64 l 1,2,-1
 512 128 l 1,3,-1
 512 192 l 1,4,-1
 512 256 l 1,5,-1
 512 320 l 1,6,-1
 448 320 l 1,7,-1
 384 320 l 1,8,-1
 320 320 l 1,9,-1
 256 320 l 1,10,-1
 192 320 l 1,11,-1
 128 320 l 1,12,-1
 128 256 l 1,13,-1
 128 192 l 1,14,-1
 128 128 l 1,15,-1
 128 64 l 1,16,-1
 128 0 l 1,17,-1
 64 0 l 1,18,-1
 0 0 l 1,19,-1
 0 64 l 1,20,-1
 0 128 l 1,21,-1
 0 192 l 1,22,-1
 0 256 l 1,23,-1
 0 320 l 1,24,-1
 0 384 l 1,25,-1
 0 448 l 1,26,-1
 0 512 l 1,27,-1
 0 576 l 1,28,-1
 0 640 l 1,29,-1
 0 704 l 1,30,-1
 0 768 l 1,31,-1
 64 768 l 1,32,-1
 128 768 l 1,33,-1
 128 704 l 1,34,-1
 128 640 l 1,35,-1
 128 576 l 1,36,-1
 128 512 l 1,37,-1
 128 448 l 1,38,-1
 192 448 l 1,39,-1
 256 448 l 1,40,-1
 320 448 l 1,41,-1
 384 448 l 1,42,-1
 448 448 l 1,43,-1
 512 448 l 1,44,-1
 512 512 l 1,45,-1
 512 576 l 1,46,-1
 512 640 l 1,47,-1
 512 704 l 1,48,-1
 512 768 l 1,49,-1
 576 768 l 1,50,-1
 640 768 l 1,51,-1
 640 704 l 1,52,-1
 640 640 l 1,53,-1
 640 576 l 1,54,-1
 640 512 l 1,55,-1
 640 448 l 1,56,-1
 640 384 l 1,57,-1
 640 320 l 1,58,-1
 640 256 l 1,59,-1
 640 192 l 1,60,-1
 640 128 l 1,61,-1
 640 64 l 1,62,-1
 640 0 l 1,63,-1
 576 0 l 1,0,-1
EndSplineSet
Validated: 1
EndChar

StartChar: I
Encoding: 73 73 44
Width: 384
GlyphClass: 1
Flags: W
LayerCount: 2
Fore
SplineSet
256 0 m 1,0,-1
 192 0 l 1,1,-1
 128 0 l 1,2,-1
 64 0 l 1,3,-1
 64 64 l 1,4,-1
 64 128 l 1,5,-1
 128 128 l 1,6,-1
 128 192 l 1,7,-1
 128 256 l 1,8,-1
 128 320 l 1,9,-1
 128 384 l 1,10,-1
 128 448 l 1,11,-1
 128 512 l 1,12,-1
 128 576 l 1,13,-1
 128 640 l 1,14,-1
 64 640 l 1,15,-1
 64 704 l 1,16,-1
 64 768 l 1,17,-1
 128 768 l 1,18,-1
 192 768 l 1,19,-1
 256 768 l 1,20,-1
 320 768 l 1,21,-1
 320 704 l 1,22,-1
 320 640 l 1,23,-1
 256 640 l 1,24,-1
 256 576 l 1,25,-1
 256 512 l 1,26,-1
 256 448 l 1,27,-1
 256 384 l 1,28,-1
 256 320 l 1,29,-1
 256 256 l 1,30,-1
 256 192 l 1,31,-1
 256 128 l 1,32,-1
 320 128 l 1,33,-1
 320 64 l 1,34,-1
 320 0 l 1,35,-1
 256 0 l 1,0,-1
EndSplineSet
Validated: 1
EndChar

StartChar: J
Encoding: 74 74 45
Width: 512
GlyphClass: 1
Flags: W
LayerCount: 2
Fore
SplineSet
256 0 m 1,0,-1
 192 0 l 1,1,-1
 128 0 l 1,2,-1
 128 64 l 1,3,-1
 128 128 l 1,4,-1
 192 128 l 1,5,-1
 256 128 l 1,6,-1
 320 128 l 1,7,-1
 320 64 l 1,8,-1
 320 0 l 1,9,-1
 256 0 l 1,0,-1
320 128 m 1,10,-1
 320 192 l 1,11,-1
 320 256 l 1,12,-1
 320 320 l 1,13,-1
 320 384 l 1,14,-1
 320 448 l 1,15,-1
 320 512 l 1,16,-1
 320 576 l 1,17,-1
 320 640 l 1,18,-1
 320 704 l 1,19,-1
 320 768 l 1,20,-1
 384 768 l 1,21,-1
 448 768 l 1,22,-1
 448 704 l 1,23,-1
 448 640 l 1,24,-1
 448 576 l 1,25,-1
 448 512 l 1,26,-1
 448 448 l 1,27,-1
 448 384 l 1,28,-1
 448 320 l 1,29,-1
 448 256 l 1,30,-1
 448 192 l 1,31,-1
 448 128 l 1,32,-1
 384 128 l 1,33,-1
 320 128 l 1,10,-1
128 128 m 1,34,-1
 64 128 l 1,35,-1
 0 128 l 1,36,-1
 0 192 l 1,37,-1
 0 256 l 1,38,-1
 64 256 l 1,39,-1
 128 256 l 1,40,-1
 128 192 l 1,41,-1
 128 128 l 1,34,-1
EndSplineSet
Validated: 5
EndChar

StartChar: K
Encoding: 75 75 46
Width: 640
GlyphClass: 1
Flags: W
LayerCount: 2
Fore
SplineSet
512 0 m 1,0,-1
 448 0 l 1,1,-1
 448 64 l 1,2,-1
 448 128 l 1,3,-1
 448 192 l 1,4,-1
 512 192 l 1,5,-1
 576 192 l 1,6,-1
 576 128 l 1,7,-1
 576 64 l 1,8,-1
 576 0 l 1,9,-1
 512 0 l 1,0,-1
64 0 m 1,10,-1
 0 0 l 1,11,-1
 0 64 l 1,12,-1
 0 128 l 1,13,-1
 0 192 l 1,14,-1
 0 256 l 1,15,-1
 0 320 l 1,16,-1
 0 384 l 1,17,-1
 0 448 l 1,18,-1
 0 512 l 1,19,-1
 0 576 l 1,20,-1
 0 640 l 1,21,-1
 0 704 l 1,22,-1
 0 768 l 1,23,-1
 64 768 l 1,24,-1
 128 768 l 1,25,-1
 128 704 l 1,26,-1
 128 640 l 1,27,-1
 128 576 l 1,28,-1
 128 512 l 1,29,-1
 128 448 l 1,30,-1
 192 448 l 1,31,-1
 256 448 l 1,32,-1
 320 448 l 1,33,-1
 320 384 l 1,34,-1
 320 320 l 1,35,-1
 384 320 l 1,36,-1
 448 320 l 1,37,-1
 448 256 l 1,38,-1
 448 192 l 1,39,-1
 384 192 l 1,40,-1
 320 192 l 1,41,-1
 320 256 l 1,42,-1
 320 320 l 1,43,-1
 256 320 l 1,44,-1
 192 320 l 1,45,-1
 128 320 l 1,46,-1
 128 256 l 1,47,-1
 128 192 l 1,48,-1
 128 128 l 1,49,-1
 128 64 l 1,50,-1
 128 0 l 1,51,-1
 64 0 l 1,10,-1
320 448 m 1,52,-1
 320 512 l 1,53,-1
 320 576 l 1,54,-1
 384 576 l 1,55,-1
 448 576 l 1,56,-1
 448 512 l 1,57,-1
 448 448 l 1,58,-1
 384 448 l 1,59,-1
 320 448 l 1,52,-1
448 576 m 1,60,-1
 448 640 l 1,61,-1
 448 704 l 1,62,-1
 512 704 l 1,63,-1
 576 704 l 1,64,-1
 576 640 l 1,65,-1
 576 576 l 1,66,-1
 512 576 l 1,67,-1
 448 576 l 1,60,-1
EndSplineSet
Validated: 5
EndChar

StartChar: L
Encoding: 76 76 47
Width: 640
GlyphClass: 1
Flags: W
LayerCount: 2
Fore
SplineSet
512 0 m 1,0,-1
 448 0 l 1,1,-1
 384 0 l 1,2,-1
 320 0 l 1,3,-1
 256 0 l 1,4,-1
 192 0 l 1,5,-1
 128 0 l 1,6,-1
 64 0 l 1,7,-1
 0 0 l 1,8,-1
 0 64 l 1,9,-1
 0 128 l 1,10,-1
 0 192 l 1,11,-1
 0 256 l 1,12,-1
 0 320 l 1,13,-1
 0 384 l 1,14,-1
 0 448 l 1,15,-1
 0 512 l 1,16,-1
 0 576 l 1,17,-1
 0 640 l 1,18,-1
 0 704 l 1,19,-1
 0 768 l 1,20,-1
 64 768 l 1,21,-1
 128 768 l 1,22,-1
 128 704 l 1,23,-1
 128 640 l 1,24,-1
 128 576 l 1,25,-1
 128 512 l 1,26,-1
 128 448 l 1,27,-1
 128 384 l 1,28,-1
 128 320 l 1,29,-1
 128 256 l 1,30,-1
 128 192 l 1,31,-1
 128 128 l 1,32,-1
 192 128 l 1,33,-1
 256 128 l 1,34,-1
 320 128 l 1,35,-1
 384 128 l 1,36,-1
 448 128 l 1,37,-1
 512 128 l 1,38,-1
 576 128 l 1,39,-1
 576 64 l 1,40,-1
 576 0 l 1,41,-1
 512 0 l 1,0,-1
EndSplineSet
Validated: 1
EndChar

StartChar: M
Encoding: 77 77 48
Width: 704
GlyphClass: 1
Flags: W
LayerCount: 2
Fore
SplineSet
576 0 m 1,0,-1
 512 0 l 1,1,-1
 512 64 l 1,2,-1
 512 128 l 1,3,-1
 512 192 l 1,4,-1
 512 256 l 1,5,-1
 512 320 l 1,6,-1
 512 384 l 1,7,-1
 512 448 l 1,8,-1
 512 512 l 1,9,-1
 448 512 l 1,10,-1
 384 512 l 1,11,-1
 384 448 l 1,12,-1
 384 384 l 1,13,-1
 320 384 l 1,14,-1
 256 384 l 1,15,-1
 256 448 l 1,16,-1
 256 512 l 1,17,-1
 320 512 l 1,18,-1
 384 512 l 1,19,-1
 384 576 l 1,20,-1
 384 640 l 1,21,-1
 448 640 l 1,22,-1
 512 640 l 1,23,-1
 512 704 l 1,24,-1
 512 768 l 1,25,-1
 576 768 l 1,26,-1
 640 768 l 1,27,-1
 640 704 l 1,28,-1
 640 640 l 1,29,-1
 640 576 l 1,30,-1
 640 512 l 1,31,-1
 640 448 l 1,32,-1
 640 384 l 1,33,-1
 640 320 l 1,34,-1
 640 256 l 1,35,-1
 640 192 l 1,36,-1
 640 128 l 1,37,-1
 640 64 l 1,38,-1
 640 0 l 1,39,-1
 576 0 l 1,0,-1
64 0 m 1,40,-1
 0 0 l 1,41,-1
 0 64 l 1,42,-1
 0 128 l 1,43,-1
 0 192 l 1,44,-1
 0 256 l 1,45,-1
 0 320 l 1,46,-1
 0 384 l 1,47,-1
 0 448 l 1,48,-1
 0 512 l 1,49,-1
 0 576 l 1,50,-1
 0 640 l 1,51,-1
 0 704 l 1,52,-1
 0 768 l 1,53,-1
 64 768 l 1,54,-1
 128 768 l 1,55,-1
 128 704 l 1,56,-1
 128 640 l 1,57,-1
 192 640 l 1,58,-1
 256 640 l 1,59,-1
 256 576 l 1,60,-1
 256 512 l 1,61,-1
 192 512 l 1,62,-1
 128 512 l 1,63,-1
 128 448 l 1,64,-1
 128 384 l 1,65,-1
 128 320 l 1,66,-1
 128 256 l 1,67,-1
 128 192 l 1,68,-1
 128 128 l 1,69,-1
 128 64 l 1,70,-1
 128 0 l 1,71,-1
 64 0 l 1,40,-1
EndSplineSet
Validated: 5
EndChar

StartChar: N
Encoding: 78 78 49
Width: 704
GlyphClass: 1
Flags: W
LayerCount: 2
Fore
SplineSet
576 0 m 1,0,-1
 512 0 l 1,1,-1
 512 64 l 1,2,-1
 512 128 l 1,3,-1
 512 192 l 1,4,-1
 512 256 l 1,5,-1
 512 320 l 1,6,-1
 448 320 l 1,7,-1
 384 320 l 1,8,-1
 384 384 l 1,9,-1
 384 448 l 1,10,-1
 448 448 l 1,11,-1
 512 448 l 1,12,-1
 512 512 l 1,13,-1
 512 576 l 1,14,-1
 512 640 l 1,15,-1
 512 704 l 1,16,-1
 512 768 l 1,17,-1
 576 768 l 1,18,-1
 640 768 l 1,19,-1
 640 704 l 1,20,-1
 640 640 l 1,21,-1
 640 576 l 1,22,-1
 640 512 l 1,23,-1
 640 448 l 1,24,-1
 640 384 l 1,25,-1
 640 320 l 1,26,-1
 640 256 l 1,27,-1
 640 192 l 1,28,-1
 640 128 l 1,29,-1
 640 64 l 1,30,-1
 640 0 l 1,31,-1
 576 0 l 1,0,-1
64 0 m 1,32,-1
 0 0 l 1,33,-1
 0 64 l 1,34,-1
 0 128 l 1,35,-1
 0 192 l 1,36,-1
 0 256 l 1,37,-1
 0 320 l 1,38,-1
 0 384 l 1,39,-1
 0 448 l 1,40,-1
 0 512 l 1,41,-1
 0 576 l 1,42,-1
 0 640 l 1,43,-1
 0 704 l 1,44,-1
 0 768 l 1,45,-1
 64 768 l 1,46,-1
 128 768 l 1,47,-1
 128 704 l 1,48,-1
 192 704 l 1,49,-1
 256 704 l 1,50,-1
 256 640 l 1,51,-1
 256 576 l 1,52,-1
 320 576 l 1,53,-1
 384 576 l 1,54,-1
 384 512 l 1,55,-1
 384 448 l 1,56,-1
 320 448 l 1,57,-1
 256 448 l 1,58,-1
 256 512 l 1,59,-1
 256 576 l 1,60,-1
 192 576 l 1,61,-1
 128 576 l 1,62,-1
 128 512 l 1,63,-1
 128 448 l 1,64,-1
 128 384 l 1,65,-1
 128 320 l 1,66,-1
 128 256 l 1,67,-1
 128 192 l 1,68,-1
 128 128 l 1,69,-1
 128 64 l 1,70,-1
 128 0 l 1,71,-1
 64 0 l 1,32,-1
EndSplineSet
Validated: 5
EndChar

StartChar: O
Encoding: 79 79 50
Width: 832
GlyphClass: 1
Flags: W
LayerCount: 2
Fore
SplineSet
576 0 m 1,0,-1
 512 0 l 1,1,-1
 448 0 l 1,2,-1
 384 0 l 1,3,-1
 320 0 l 1,4,-1
 256 0 l 1,5,-1
 192 0 l 1,6,-1
 128 0 l 1,7,-1
 128 64 l 1,8,-1
 128 128 l 1,9,-1
 192 128 l 1,10,-1
 256 128 l 1,11,-1
 320 128 l 1,12,-1
 384 128 l 1,13,-1
 448 128 l 1,14,-1
 512 128 l 1,15,-1
 576 128 l 1,16,-1
 640 128 l 1,17,-1
 640 64 l 1,18,-1
 640 0 l 1,19,-1
 576 0 l 1,0,-1
640 128 m 1,20,-1
 640 192 l 1,21,-1
 640 256 l 1,22,-1
 640 320 l 1,23,-1
 640 384 l 1,24,-1
 640 448 l 1,25,-1
 640 512 l 1,26,-1
 640 576 l 1,27,-1
 640 640 l 1,28,-1
 704 640 l 1,29,-1
 768 640 l 1,30,-1
 768 576 l 1,31,-1
 768 512 l 1,32,-1
 768 448 l 1,33,-1
 768 384 l 1,34,-1
 768 320 l 1,35,-1
 768 256 l 1,36,-1
 768 192 l 1,37,-1
 768 128 l 1,38,-1
 704 128 l 1,39,-1
 640 128 l 1,20,-1
128 128 m 1,40,-1
 64 128 l 1,41,-1
 0 128 l 1,42,-1
 0 192 l 1,43,-1
 0 256 l 1,44,-1
 0 320 l 1,45,-1
 0 384 l 1,46,-1
 0 448 l 1,47,-1
 0 512 l 1,48,-1
 0 576 l 1,49,-1
 0 640 l 1,50,-1
 64 640 l 1,51,-1
 128 640 l 1,52,-1
 128 576 l 1,53,-1
 128 512 l 1,54,-1
 128 448 l 1,55,-1
 128 384 l 1,56,-1
 128 320 l 1,57,-1
 128 256 l 1,58,-1
 128 192 l 1,59,-1
 128 128 l 1,40,-1
640 640 m 1,60,-1
 576 640 l 1,61,-1
 512 640 l 1,62,-1
 448 640 l 1,63,-1
 384 640 l 1,64,-1
 320 640 l 1,65,-1
 256 640 l 1,66,-1
 192 640 l 1,67,-1
 128 640 l 1,68,-1
 128 704 l 1,69,-1
 128 768 l 1,70,-1
 192 768 l 1,71,-1
 256 768 l 1,72,-1
 320 768 l 1,73,-1
 384 768 l 1,74,-1
 448 768 l 1,75,-1
 512 768 l 1,76,-1
 576 768 l 1,77,-1
 640 768 l 1,78,-1
 640 704 l 1,79,-1
 640 640 l 1,60,-1
EndSplineSet
Validated: 5
EndChar

StartChar: P
Encoding: 80 80 51
Width: 704
GlyphClass: 1
Flags: W
LayerCount: 2
Fore
SplineSet
64 0 m 1,0,-1
 0 0 l 1,1,-1
 0 64 l 1,2,-1
 0 128 l 1,3,-1
 0 192 l 1,4,-1
 0 256 l 1,5,-1
 0 320 l 1,6,-1
 0 384 l 1,7,-1
 0 448 l 1,8,-1
 0 512 l 1,9,-1
 0 576 l 1,10,-1
 0 640 l 1,11,-1
 0 704 l 1,12,-1
 0 768 l 1,13,-1
 64 768 l 1,14,-1
 128 768 l 1,15,-1
 192 768 l 1,16,-1
 256 768 l 1,17,-1
 320 768 l 1,18,-1
 384 768 l 1,19,-1
 448 768 l 1,20,-1
 512 768 l 1,21,-1
 512 704 l 1,22,-1
 512 640 l 1,23,-1
 576 640 l 1,24,-1
 640 640 l 1,25,-1
 640 576 l 1,26,-1
 640 512 l 1,27,-1
 576 512 l 1,28,-1
 512 512 l 1,29,-1
 512 576 l 1,30,-1
 512 640 l 1,31,-1
 448 640 l 1,32,-1
 384 640 l 1,33,-1
 320 640 l 1,34,-1
 256 640 l 1,35,-1
 192 640 l 1,36,-1
 128 640 l 1,37,-1
 128 576 l 1,38,-1
 128 512 l 1,39,-1
 192 512 l 1,40,-1
 256 512 l 1,41,-1
 320 512 l 1,42,-1
 384 512 l 1,43,-1
 448 512 l 1,44,-1
 512 512 l 1,45,-1
 512 448 l 1,46,-1
 512 384 l 1,47,-1
 448 384 l 1,48,-1
 384 384 l 1,49,-1
 320 384 l 1,50,-1
 256 384 l 1,51,-1
 192 384 l 1,52,-1
 128 384 l 1,53,-1
 128 320 l 1,54,-1
 128 256 l 1,55,-1
 128 192 l 1,56,-1
 128 128 l 1,57,-1
 128 64 l 1,58,-1
 128 0 l 1,59,-1
 64 0 l 1,0,-1
EndSplineSet
Validated: 5
EndChar

StartChar: Q
Encoding: 81 81 52
Width: 832
GlyphClass: 1
Flags: W
LayerCount: 2
Fore
SplineSet
704 64 m 1,0,-1
 768 64 l 1,1,-1
 768 0 l 1,2,-1
 704 0 l 1,3,-1
 640 0 l 1,4,-1
 576 0 l 1,5,-1
 512 0 l 1,6,-1
 448 0 l 1,7,-1
 384 0 l 1,8,-1
 320 0 l 1,9,-1
 256 0 l 1,10,-1
 192 0 l 1,11,-1
 128 0 l 1,12,-1
 128 64 l 1,13,-1
 128 128 l 1,14,-1
 192 128 l 1,15,-1
 256 128 l 1,16,-1
 320 128 l 1,17,-1
 384 128 l 1,18,-1
 384 192 l 1,19,-1
 448 192 l 1,20,-1
 512 192 l 1,21,-1
 512 128 l 1,22,-1
 576 128 l 1,23,-1
 640 128 l 1,24,-1
 640 64 l 1,25,-1
 704 64 l 1,0,-1
640 128 m 1,26,-1
 640 192 l 1,27,-1
 640 256 l 1,28,-1
 640 320 l 1,29,-1
 640 384 l 1,30,-1
 640 448 l 1,31,-1
 640 512 l 1,32,-1
 640 576 l 1,33,-1
 640 640 l 1,34,-1
 704 640 l 1,35,-1
 768 640 l 1,36,-1
 768 576 l 1,37,-1
 768 512 l 1,38,-1
 768 448 l 1,39,-1
 768 384 l 1,40,-1
 768 320 l 1,41,-1
 768 256 l 1,42,-1
 768 192 l 1,43,-1
 768 128 l 1,44,-1
 704 128 l 1,45,-1
 640 128 l 1,26,-1
128 128 m 1,46,-1
 64 128 l 1,47,-1
 0 128 l 1,48,-1
 0 192 l 1,49,-1
 0 256 l 1,50,-1
 0 320 l 1,51,-1
 0 384 l 1,52,-1
 0 448 l 1,53,-1
 0 512 l 1,54,-1
 0 576 l 1,55,-1
 0 640 l 1,56,-1
 64 640 l 1,57,-1
 128 640 l 1,58,-1
 128 576 l 1,59,-1
 128 512 l 1,60,-1
 128 448 l 1,61,-1
 128 384 l 1,62,-1
 128 320 l 1,63,-1
 128 256 l 1,64,-1
 128 192 l 1,65,-1
 128 128 l 1,46,-1
640 640 m 1,66,-1
 576 640 l 1,67,-1
 512 640 l 1,68,-1
 448 640 l 1,69,-1
 384 640 l 1,70,-1
 320 640 l 1,71,-1
 256 640 l 1,72,-1
 192 640 l 1,73,-1
 128 640 l 1,74,-1
 128 704 l 1,75,-1
 128 768 l 1,76,-1
 192 768 l 1,77,-1
 256 768 l 1,78,-1
 320 768 l 1,79,-1
 384 768 l 1,80,-1
 448 768 l 1,81,-1
 512 768 l 1,82,-1
 576 768 l 1,83,-1
 640 768 l 1,84,-1
 640 704 l 1,85,-1
 640 640 l 1,66,-1
EndSplineSet
Validated: 5
EndChar

StartChar: R
Encoding: 82 82 53
Width: 832
GlyphClass: 1
Flags: W
LayerCount: 2
Fore
SplineSet
704 0 m 1,0,-1
 640 0 l 1,1,-1
 640 64 l 1,2,-1
 640 128 l 1,3,-1
 704 128 l 1,4,-1
 768 128 l 1,5,-1
 768 64 l 1,6,-1
 768 0 l 1,7,-1
 704 0 l 1,0,-1
64 0 m 1,8,-1
 0 0 l 1,9,-1
 0 64 l 1,10,-1
 0 128 l 1,11,-1
 0 192 l 1,12,-1
 0 256 l 1,13,-1
 0 320 l 1,14,-1
 0 384 l 1,15,-1
 0 448 l 1,16,-1
 0 512 l 1,17,-1
 0 576 l 1,18,-1
 0 640 l 1,19,-1
 0 704 l 1,20,-1
 0 768 l 1,21,-1
 64 768 l 1,22,-1
 128 768 l 1,23,-1
 192 768 l 1,24,-1
 256 768 l 1,25,-1
 320 768 l 1,26,-1
 384 768 l 1,27,-1
 448 768 l 1,28,-1
 512 768 l 1,29,-1
 576 768 l 1,30,-1
 576 704 l 1,31,-1
 576 640 l 1,32,-1
 640 640 l 1,33,-1
 704 640 l 1,34,-1
 704 576 l 1,35,-1
 704 512 l 1,36,-1
 640 512 l 1,37,-1
 576 512 l 1,38,-1
 576 576 l 1,39,-1
 576 640 l 1,40,-1
 512 640 l 1,41,-1
 448 640 l 1,42,-1
 384 640 l 1,43,-1
 320 640 l 1,44,-1
 256 640 l 1,45,-1
 192 640 l 1,46,-1
 128 640 l 1,47,-1
 128 576 l 1,48,-1
 128 512 l 1,49,-1
 192 512 l 1,50,-1
 256 512 l 1,51,-1
 320 512 l 1,52,-1
 384 512 l 1,53,-1
 448 512 l 1,54,-1
 512 512 l 1,55,-1
 576 512 l 1,56,-1
 576 448 l 1,57,-1
 576 384 l 1,58,-1
 512 384 l 1,59,-1
 512 320 l 1,60,-1
 512 256 l 1,61,-1
 576 256 l 1,62,-1
 640 256 l 1,63,-1
 640 192 l 1,64,-1
 640 128 l 1,65,-1
 576 128 l 1,66,-1
 512 128 l 1,67,-1
 512 192 l 1,68,-1
 512 256 l 1,69,-1
 448 256 l 1,70,-1
 384 256 l 1,71,-1
 384 320 l 1,72,-1
 384 384 l 1,73,-1
 320 384 l 1,74,-1
 256 384 l 1,75,-1
 192 384 l 1,76,-1
 128 384 l 1,77,-1
 128 320 l 1,78,-1
 128 256 l 1,79,-1
 128 192 l 1,80,-1
 128 128 l 1,81,-1
 128 64 l 1,82,-1
 128 0 l 1,83,-1
 64 0 l 1,8,-1
EndSplineSet
Validated: 5
EndChar

StartChar: S
Encoding: 83 83 54
Width: 640
GlyphClass: 1
Flags: W
LayerCount: 2
Fore
SplineSet
384 0 m 1,0,-1
 320 0 l 1,1,-1
 256 0 l 1,2,-1
 192 0 l 1,3,-1
 128 0 l 1,4,-1
 64 0 l 1,5,-1
 0 0 l 1,6,-1
 0 64 l 1,7,-1
 0 128 l 1,8,-1
 64 128 l 1,9,-1
 128 128 l 1,10,-1
 192 128 l 1,11,-1
 256 128 l 1,12,-1
 320 128 l 1,13,-1
 384 128 l 1,14,-1
 448 128 l 1,15,-1
 448 64 l 1,16,-1
 448 0 l 1,17,-1
 384 0 l 1,0,-1
448 128 m 1,18,-1
 448 192 l 1,19,-1
 448 256 l 1,20,-1
 448 320 l 1,21,-1
 448 384 l 1,22,-1
 512 384 l 1,23,-1
 576 384 l 1,24,-1
 576 320 l 1,25,-1
 576 256 l 1,26,-1
 576 192 l 1,27,-1
 576 128 l 1,28,-1
 512 128 l 1,29,-1
 448 128 l 1,18,-1
448 384 m 1,30,-1
 384 384 l 1,31,-1
 320 384 l 1,32,-1
 256 384 l 1,33,-1
 192 384 l 1,34,-1
 128 384 l 1,35,-1
 128 448 l 1,36,-1
 128 512 l 1,37,-1
 192 512 l 1,38,-1
 256 512 l 1,39,-1
 320 512 l 1,40,-1
 384 512 l 1,41,-1
 448 512 l 1,42,-1
 448 448 l 1,43,-1
 448 384 l 1,30,-1
128 512 m 1,44,-1
 64 512 l 1,45,-1
 0 512 l 1,46,-1
 0 576 l 1,47,-1
 0 640 l 1,48,-1
 64 640 l 1,49,-1
 128 640 l 1,50,-1
 128 576 l 1,51,-1
 128 512 l 1,44,-1
512 640 m 1,52,-1
 448 640 l 1,53,-1
 384 640 l 1,54,-1
 320 640 l 1,55,-1
 256 640 l 1,56,-1
 192 640 l 1,57,-1
 128 640 l 1,58,-1
 128 704 l 1,59,-1
 128 768 l 1,60,-1
 192 768 l 1,61,-1
 256 768 l 1,62,-1
 320 768 l 1,63,-1
 384 768 l 1,64,-1
 448 768 l 1,65,-1
 512 768 l 1,66,-1
 576 768 l 1,67,-1
 576 704 l 1,68,-1
 576 640 l 1,69,-1
 512 640 l 1,52,-1
EndSplineSet
Validated: 5
EndChar

StartChar: T
Encoding: 84 84 55
Width: 704
GlyphClass: 1
Flags: W
LayerCount: 2
Fore
SplineSet
320 0 m 1,0,-1
 256 0 l 1,1,-1
 256 64 l 1,2,-1
 256 128 l 1,3,-1
 256 192 l 1,4,-1
 256 256 l 1,5,-1
 256 320 l 1,6,-1
 256 384 l 1,7,-1
 256 448 l 1,8,-1
 256 512 l 1,9,-1
 256 576 l 1,10,-1
 256 640 l 1,11,-1
 192 640 l 1,12,-1
 128 640 l 1,13,-1
 64 640 l 1,14,-1
 0 640 l 1,15,-1
 0 704 l 1,16,-1
 0 768 l 1,17,-1
 64 768 l 1,18,-1
 128 768 l 1,19,-1
 192 768 l 1,20,-1
 256 768 l 1,21,-1
 320 768 l 1,22,-1
 384 768 l 1,23,-1
 448 768 l 1,24,-1
 512 768 l 1,25,-1
 576 768 l 1,26,-1
 640 768 l 1,27,-1
 640 704 l 1,28,-1
 640 640 l 1,29,-1
 576 640 l 1,30,-1
 512 640 l 1,31,-1
 448 640 l 1,32,-1
 384 640 l 1,33,-1
 384 576 l 1,34,-1
 384 512 l 1,35,-1
 384 448 l 1,36,-1
 384 384 l 1,37,-1
 384 320 l 1,38,-1
 384 256 l 1,39,-1
 384 192 l 1,40,-1
 384 128 l 1,41,-1
 384 64 l 1,42,-1
 384 0 l 1,43,-1
 320 0 l 1,0,-1
EndSplineSet
Validated: 1
EndChar

StartChar: U
Encoding: 85 85 56
Width: 704
GlyphClass: 1
Flags: W
LayerCount: 2
Fore
SplineSet
448 0 m 1,0,-1
 384 0 l 1,1,-1
 320 0 l 1,2,-1
 256 0 l 1,3,-1
 192 0 l 1,4,-1
 192 64 l 1,5,-1
 192 128 l 1,6,-1
 256 128 l 1,7,-1
 320 128 l 1,8,-1
 384 128 l 1,9,-1
 448 128 l 1,10,-1
 512 128 l 1,11,-1
 512 64 l 1,12,-1
 512 0 l 1,13,-1
 448 0 l 1,0,-1
512 128 m 1,14,-1
 512 192 l 1,15,-1
 512 256 l 1,16,-1
 512 320 l 1,17,-1
 512 384 l 1,18,-1
 512 448 l 1,19,-1
 512 512 l 1,20,-1
 512 576 l 1,21,-1
 512 640 l 1,22,-1
 512 704 l 1,23,-1
 512 768 l 1,24,-1
 576 768 l 1,25,-1
 640 768 l 1,26,-1
 640 704 l 1,27,-1
 640 640 l 1,28,-1
 640 576 l 1,29,-1
 640 512 l 1,30,-1
 640 448 l 1,31,-1
 640 384 l 1,32,-1
 640 320 l 1,33,-1
 640 256 l 1,34,-1
 640 192 l 1,35,-1
 640 128 l 1,36,-1
 576 128 l 1,37,-1
 512 128 l 1,14,-1
192 128 m 1,38,-1
 128 128 l 1,39,-1
 64 128 l 1,40,-1
 64 192 l 1,41,-1
 64 256 l 1,42,-1
 64 320 l 1,43,-1
 64 384 l 1,44,-1
 64 448 l 1,45,-1
 64 512 l 1,46,-1
 64 576 l 1,47,-1
 64 640 l 1,48,-1
 64 704 l 1,49,-1
 64 768 l 1,50,-1
 128 768 l 1,51,-1
 192 768 l 1,52,-1
 192 704 l 1,53,-1
 192 640 l 1,54,-1
 192 576 l 1,55,-1
 192 512 l 1,56,-1
 192 448 l 1,57,-1
 192 384 l 1,58,-1
 192 320 l 1,59,-1
 192 256 l 1,60,-1
 192 192 l 1,61,-1
 192 128 l 1,38,-1
EndSplineSet
Validated: 5
EndChar

StartChar: V
Encoding: 86 86 57
Width: 704
GlyphClass: 1
Flags: W
LayerCount: 2
Fore
SplineSet
320 0 m 1,0,-1
 256 0 l 1,1,-1
 256 64 l 1,2,-1
 256 128 l 1,3,-1
 256 192 l 1,4,-1
 256 256 l 1,5,-1
 320 256 l 1,6,-1
 384 256 l 1,7,-1
 384 192 l 1,8,-1
 384 128 l 1,9,-1
 384 64 l 1,10,-1
 384 0 l 1,11,-1
 320 0 l 1,0,-1
384 256 m 1,12,-1
 384 320 l 1,13,-1
 384 384 l 1,14,-1
 384 448 l 1,15,-1
 448 448 l 1,16,-1
 512 448 l 1,17,-1
 512 384 l 1,18,-1
 512 320 l 1,19,-1
 512 256 l 1,20,-1
 448 256 l 1,21,-1
 384 256 l 1,12,-1
256 256 m 1,22,-1
 192 256 l 1,23,-1
 128 256 l 1,24,-1
 128 320 l 1,25,-1
 128 384 l 1,26,-1
 128 448 l 1,27,-1
 192 448 l 1,28,-1
 256 448 l 1,29,-1
 256 384 l 1,30,-1
 256 320 l 1,31,-1
 256 256 l 1,22,-1
512 448 m 1,32,-1
 512 512 l 1,33,-1
 512 576 l 1,34,-1
 512 640 l 1,35,-1
 512 704 l 1,36,-1
 512 768 l 1,37,-1
 576 768 l 1,38,-1
 640 768 l 1,39,-1
 640 704 l 1,40,-1
 640 640 l 1,41,-1
 640 576 l 1,42,-1
 640 512 l 1,43,-1
 640 448 l 1,44,-1
 576 448 l 1,45,-1
 512 448 l 1,32,-1
128 448 m 1,46,-1
 64 448 l 1,47,-1
 0 448 l 1,48,-1
 0 512 l 1,49,-1
 0 576 l 1,50,-1
 0 640 l 1,51,-1
 0 704 l 1,52,-1
 0 768 l 1,53,-1
 64 768 l 1,54,-1
 128 768 l 1,55,-1
 128 704 l 1,56,-1
 128 640 l 1,57,-1
 128 576 l 1,58,-1
 128 512 l 1,59,-1
 128 448 l 1,46,-1
EndSplineSet
Validated: 5
EndChar

StartChar: W
Encoding: 87 87 58
Width: 704
GlyphClass: 1
Flags: W
LayerCount: 2
Fore
SplineSet
576 0 m 1,0,-1
 512 0 l 1,1,-1
 512 64 l 1,2,-1
 512 128 l 1,3,-1
 448 128 l 1,4,-1
 384 128 l 1,5,-1
 384 192 l 1,6,-1
 384 256 l 1,7,-1
 448 256 l 1,8,-1
 512 256 l 1,9,-1
 512 320 l 1,10,-1
 512 384 l 1,11,-1
 512 448 l 1,12,-1
 512 512 l 1,13,-1
 512 576 l 1,14,-1
 512 640 l 1,15,-1
 512 704 l 1,16,-1
 512 768 l 1,17,-1
 576 768 l 1,18,-1
 640 768 l 1,19,-1
 640 704 l 1,20,-1
 640 640 l 1,21,-1
 640 576 l 1,22,-1
 640 512 l 1,23,-1
 640 448 l 1,24,-1
 640 384 l 1,25,-1
 640 320 l 1,26,-1
 640 256 l 1,27,-1
 640 192 l 1,28,-1
 640 128 l 1,29,-1
 640 64 l 1,30,-1
 640 0 l 1,31,-1
 576 0 l 1,0,-1
64 0 m 1,32,-1
 0 0 l 1,33,-1
 0 64 l 1,34,-1
 0 128 l 1,35,-1
 0 192 l 1,36,-1
 0 256 l 1,37,-1
 0 320 l 1,38,-1
 0 384 l 1,39,-1
 0 448 l 1,40,-1
 0 512 l 1,41,-1
 0 576 l 1,42,-1
 0 640 l 1,43,-1
 0 704 l 1,44,-1
 0 768 l 1,45,-1
 64 768 l 1,46,-1
 128 768 l 1,47,-1
 128 704 l 1,48,-1
 128 640 l 1,49,-1
 128 576 l 1,50,-1
 128 512 l 1,51,-1
 128 448 l 1,52,-1
 128 384 l 1,53,-1
 128 320 l 1,54,-1
 128 256 l 1,55,-1
 192 256 l 1,56,-1
 256 256 l 1,57,-1
 256 192 l 1,58,-1
 256 128 l 1,59,-1
 192 128 l 1,60,-1
 128 128 l 1,61,-1
 128 64 l 1,62,-1
 128 0 l 1,63,-1
 64 0 l 1,32,-1
384 256 m 1,64,-1
 320 256 l 1,65,-1
 256 256 l 1,66,-1
 256 320 l 1,67,-1
 256 384 l 1,68,-1
 320 384 l 1,69,-1
 384 384 l 1,70,-1
 384 320 l 1,71,-1
 384 256 l 1,64,-1
EndSplineSet
Validated: 5
EndChar

StartChar: X
Encoding: 88 88 59
Width: 704
GlyphClass: 1
Flags: W
LayerCount: 2
Fore
SplineSet
576 0 m 1,0,-1
 512 0 l 1,1,-1
 512 64 l 1,2,-1
 512 128 l 1,3,-1
 512 192 l 1,4,-1
 512 256 l 1,5,-1
 576 256 l 1,6,-1
 640 256 l 1,7,-1
 640 192 l 1,8,-1
 640 128 l 1,9,-1
 640 64 l 1,10,-1
 640 0 l 1,11,-1
 576 0 l 1,0,-1
64 0 m 1,12,-1
 0 0 l 1,13,-1
 0 64 l 1,14,-1
 0 128 l 1,15,-1
 0 192 l 1,16,-1
 0 256 l 1,17,-1
 64 256 l 1,18,-1
 128 256 l 1,19,-1
 128 192 l 1,20,-1
 128 128 l 1,21,-1
 128 64 l 1,22,-1
 128 0 l 1,23,-1
 64 0 l 1,12,-1
512 256 m 1,24,-1
 448 256 l 1,25,-1
 384 256 l 1,26,-1
 384 320 l 1,27,-1
 384 384 l 1,28,-1
 448 384 l 1,29,-1
 512 384 l 1,30,-1
 512 320 l 1,31,-1
 512 256 l 1,24,-1
128 256 m 1,32,-1
 128 320 l 1,33,-1
 128 384 l 1,34,-1
 192 384 l 1,35,-1
 256 384 l 1,36,-1
 256 320 l 1,37,-1
 256 256 l 1,38,-1
 192 256 l 1,39,-1
 128 256 l 1,32,-1
384 384 m 1,40,-1
 320 384 l 1,41,-1
 256 384 l 1,42,-1
 256 448 l 1,43,-1
 256 512 l 1,44,-1
 320 512 l 1,45,-1
 384 512 l 1,46,-1
 384 448 l 1,47,-1
 384 384 l 1,40,-1
384 512 m 1,48,-1
 384 576 l 1,49,-1
 384 640 l 1,50,-1
 448 640 l 1,51,-1
 512 640 l 1,52,-1
 512 576 l 1,53,-1
 512 512 l 1,54,-1
 448 512 l 1,55,-1
 384 512 l 1,48,-1
256 512 m 1,56,-1
 192 512 l 1,57,-1
 128 512 l 1,58,-1
 128 576 l 1,59,-1
 128 640 l 1,60,-1
 192 640 l 1,61,-1
 256 640 l 1,62,-1
 256 576 l 1,63,-1
 256 512 l 1,56,-1
512 640 m 1,64,-1
 512 704 l 1,65,-1
 512 768 l 1,66,-1
 576 768 l 1,67,-1
 640 768 l 1,68,-1
 640 704 l 1,69,-1
 640 640 l 1,70,-1
 576 640 l 1,71,-1
 512 640 l 1,64,-1
128 640 m 1,72,-1
 64 640 l 1,73,-1
 0 640 l 1,74,-1
 0 704 l 1,75,-1
 0 768 l 1,76,-1
 64 768 l 1,77,-1
 128 768 l 1,78,-1
 128 704 l 1,79,-1
 128 640 l 1,72,-1
EndSplineSet
Validated: 5
EndChar

StartChar: Y
Encoding: 89 89 60
Width: 704
GlyphClass: 1
Flags: W
LayerCount: 2
Fore
SplineSet
320 0 m 1,0,-1
 256 0 l 1,1,-1
 256 64 l 1,2,-1
 256 128 l 1,3,-1
 256 192 l 1,4,-1
 256 256 l 1,5,-1
 256 320 l 1,6,-1
 256 384 l 1,7,-1
 256 448 l 1,8,-1
 256 512 l 1,9,-1
 320 512 l 1,10,-1
 384 512 l 1,11,-1
 384 448 l 1,12,-1
 384 384 l 1,13,-1
 384 320 l 1,14,-1
 384 256 l 1,15,-1
 384 192 l 1,16,-1
 384 128 l 1,17,-1
 384 64 l 1,18,-1
 384 0 l 1,19,-1
 320 0 l 1,0,-1
384 512 m 1,20,-1
 384 576 l 1,21,-1
 384 640 l 1,22,-1
 448 640 l 1,23,-1
 512 640 l 1,24,-1
 512 576 l 1,25,-1
 512 512 l 1,26,-1
 448 512 l 1,27,-1
 384 512 l 1,20,-1
256 512 m 1,28,-1
 192 512 l 1,29,-1
 128 512 l 1,30,-1
 128 576 l 1,31,-1
 128 640 l 1,32,-1
 192 640 l 1,33,-1
 256 640 l 1,34,-1
 256 576 l 1,35,-1
 256 512 l 1,28,-1
512 640 m 1,36,-1
 512 704 l 1,37,-1
 512 768 l 1,38,-1
 576 768 l 1,39,-1
 640 768 l 1,40,-1
 640 704 l 1,41,-1
 640 640 l 1,42,-1
 576 640 l 1,43,-1
 512 640 l 1,36,-1
128 640 m 1,44,-1
 64 640 l 1,45,-1
 0 640 l 1,46,-1
 0 704 l 1,47,-1
 0 768 l 1,48,-1
 64 768 l 1,49,-1
 128 768 l 1,50,-1
 128 704 l 1,51,-1
 128 640 l 1,44,-1
EndSplineSet
Validated: 5
EndChar

StartChar: Z
Encoding: 90 90 61
Width: 704
GlyphClass: 1
Flags: W
LayerCount: 2
Fore
SplineSet
576 0 m 1,0,-1
 512 0 l 1,1,-1
 448 0 l 1,2,-1
 384 0 l 1,3,-1
 320 0 l 1,4,-1
 256 0 l 1,5,-1
 192 0 l 1,6,-1
 128 0 l 1,7,-1
 64 0 l 1,8,-1
 0 0 l 1,9,-1
 0 64 l 1,10,-1
 0 128 l 1,11,-1
 64 128 l 1,12,-1
 128 128 l 1,13,-1
 128 192 l 1,14,-1
 128 256 l 1,15,-1
 192 256 l 1,16,-1
 256 256 l 1,17,-1
 256 192 l 1,18,-1
 256 128 l 1,19,-1
 320 128 l 1,20,-1
 384 128 l 1,21,-1
 448 128 l 1,22,-1
 512 128 l 1,23,-1
 576 128 l 1,24,-1
 640 128 l 1,25,-1
 640 64 l 1,26,-1
 640 0 l 1,27,-1
 576 0 l 1,0,-1
256 256 m 1,28,-1
 256 320 l 1,29,-1
 256 384 l 1,30,-1
 320 384 l 1,31,-1
 384 384 l 1,32,-1
 384 320 l 1,33,-1
 384 256 l 1,34,-1
 320 256 l 1,35,-1
 256 256 l 1,28,-1
384 384 m 1,36,-1
 384 448 l 1,37,-1
 384 512 l 1,38,-1
 448 512 l 1,39,-1
 512 512 l 1,40,-1
 512 448 l 1,41,-1
 512 384 l 1,42,-1
 448 384 l 1,43,-1
 384 384 l 1,36,-1
512 512 m 1,44,-1
 512 576 l 1,45,-1
 512 640 l 1,46,-1
 448 640 l 1,47,-1
 384 640 l 1,48,-1
 320 640 l 1,49,-1
 256 640 l 1,50,-1
 192 640 l 1,51,-1
 128 640 l 1,52,-1
 64 640 l 1,53,-1
 0 640 l 1,54,-1
 0 704 l 1,55,-1
 0 768 l 1,56,-1
 64 768 l 1,57,-1
 128 768 l 1,58,-1
 192 768 l 1,59,-1
 256 768 l 1,60,-1
 320 768 l 1,61,-1
 384 768 l 1,62,-1
 448 768 l 1,63,-1
 512 768 l 1,64,-1
 576 768 l 1,65,-1
 640 768 l 1,66,-1
 640 704 l 1,67,-1
 640 640 l 1,68,-1
 640 576 l 1,69,-1
 640 512 l 1,70,-1
 576 512 l 1,71,-1
 512 512 l 1,44,-1
EndSplineSet
Validated: 5
EndChar

StartChar: bracketleft
Encoding: 91 91 62
Width: 320
GlyphClass: 1
Flags: W
LayerCount: 2
Fore
SplineSet
192 -192 m 1,0,-1
 128 -192 l 1,1,-1
 64 -192 l 1,2,-1
 0 -192 l 1,3,-1
 0 -128 l 1,4,-1
 0 -64 l 1,5,-1
 0 0 l 1,6,-1
 0 64 l 1,7,-1
 0 128 l 1,8,-1
 0 192 l 1,9,-1
 0 256 l 1,10,-1
 0 320 l 1,11,-1
 0 384 l 1,12,-1
 0 448 l 1,13,-1
 0 512 l 1,14,-1
 0 576 l 1,15,-1
 0 640 l 1,16,-1
 0 704 l 1,17,-1
 0 768 l 1,18,-1
 64 768 l 1,19,-1
 128 768 l 1,20,-1
 192 768 l 1,21,-1
 256 768 l 1,22,-1
 256 704 l 1,23,-1
 256 640 l 1,24,-1
 192 640 l 1,25,-1
 128 640 l 1,26,-1
 128 576 l 1,27,-1
 128 512 l 1,28,-1
 128 448 l 1,29,-1
 128 384 l 1,30,-1
 128 320 l 1,31,-1
 128 256 l 1,32,-1
 128 192 l 1,33,-1
 128 128 l 1,34,-1
 128 64 l 1,35,-1
 128 0 l 1,36,-1
 128 -64 l 1,37,-1
 192 -64 l 1,38,-1
 256 -64 l 1,39,-1
 256 -128 l 1,40,-1
 256 -192 l 1,41,-1
 192 -192 l 1,0,-1
EndSplineSet
Validated: 1
EndChar

StartChar: backslash
Encoding: 92 92 63
Width: 576
GlyphClass: 1
Flags: W
LayerCount: 2
Fore
SplineSet
448 0 m 1,0,-1
 448 64 l 1,1,-1
 512 64 l 1,2,-1
 512 0 l 1,3,-1
 448 0 l 1,0,-1
448 64 m 1,4,-1
 384 64 l 1,5,-1
 384 128 l 1,6,-1
 384 192 l 1,7,-1
 448 192 l 1,8,-1
 448 128 l 1,9,-1
 448 64 l 1,4,-1
384 192 m 1,10,-1
 320 192 l 1,11,-1
 320 256 l 1,12,-1
 384 256 l 1,13,-1
 384 192 l 1,10,-1
320 256 m 1,14,-1
 256 256 l 1,15,-1
 256 320 l 1,16,-1
 256 384 l 1,17,-1
 320 384 l 1,18,-1
 320 320 l 1,19,-1
 320 256 l 1,14,-1
256 384 m 1,20,-1
 192 384 l 1,21,-1
 192 448 l 1,22,-1
 256 448 l 1,23,-1
 256 384 l 1,20,-1
192 448 m 1,24,-1
 128 448 l 1,25,-1
 128 512 l 1,26,-1
 128 576 l 1,27,-1
 192 576 l 1,28,-1
 192 512 l 1,29,-1
 192 448 l 1,24,-1
128 576 m 1,30,-1
 64 576 l 1,31,-1
 64 640 l 1,32,-1
 128 640 l 1,33,-1
 128 576 l 1,30,-1
64 640 m 1,34,-1
 0 640 l 1,35,-1
 0 704 l 1,36,-1
 0 768 l 1,37,-1
 64 768 l 1,38,-1
 64 704 l 1,39,-1
 64 640 l 1,34,-1
EndSplineSet
Validated: 5
EndChar

StartChar: bracketright
Encoding: 93 93 64
Width: 320
GlyphClass: 1
Flags: W
LayerCount: 2
Fore
SplineSet
192 -192 m 1,0,-1
 128 -192 l 1,1,-1
 64 -192 l 1,2,-1
 0 -192 l 1,3,-1
 0 -128 l 1,4,-1
 0 -64 l 1,5,-1
 64 -64 l 1,6,-1
 128 -64 l 1,7,-1
 128 0 l 1,8,-1
 128 64 l 1,9,-1
 128 128 l 1,10,-1
 128 192 l 1,11,-1
 128 256 l 1,12,-1
 128 320 l 1,13,-1
 128 384 l 1,14,-1
 128 448 l 1,15,-1
 128 512 l 1,16,-1
 128 576 l 1,17,-1
 128 640 l 1,18,-1
 64 640 l 1,19,-1
 0 640 l 1,20,-1
 0 704 l 1,21,-1
 0 768 l 1,22,-1
 64 768 l 1,23,-1
 128 768 l 1,24,-1
 192 768 l 1,25,-1
 256 768 l 1,26,-1
 256 704 l 1,27,-1
 256 640 l 1,28,-1
 256 576 l 1,29,-1
 256 512 l 1,30,-1
 256 448 l 1,31,-1
 256 384 l 1,32,-1
 256 320 l 1,33,-1
 256 256 l 1,34,-1
 256 192 l 1,35,-1
 256 128 l 1,36,-1
 256 64 l 1,37,-1
 256 0 l 1,38,-1
 256 -64 l 1,39,-1
 256 -128 l 1,40,-1
 256 -192 l 1,41,-1
 192 -192 l 1,0,-1
EndSplineSet
Validated: 1
EndChar

StartChar: asciicircum
Encoding: 94 94 65
Width: 576
GlyphClass: 1
Flags: W
LayerCount: 2
Fore
SplineSet
448 384 m 1,0,-1
 448 448 l 1,1,-1
 448 512 l 1,2,-1
 512 512 l 1,3,-1
 512 448 l 1,4,-1
 512 384 l 1,5,-1
 448 384 l 1,0,-1
0 384 m 1,6,-1
 0 448 l 1,7,-1
 0 512 l 1,8,-1
 64 512 l 1,9,-1
 64 448 l 1,10,-1
 64 384 l 1,11,-1
 0 384 l 1,6,-1
448 512 m 1,12,-1
 384 512 l 1,13,-1
 320 512 l 1,14,-1
 320 576 l 1,15,-1
 320 640 l 1,16,-1
 384 640 l 1,17,-1
 448 640 l 1,18,-1
 448 576 l 1,19,-1
 448 512 l 1,12,-1
64 512 m 1,20,-1
 64 576 l 1,21,-1
 64 640 l 1,22,-1
 128 640 l 1,23,-1
 192 640 l 1,24,-1
 192 576 l 1,25,-1
 192 512 l 1,26,-1
 128 512 l 1,27,-1
 64 512 l 1,20,-1
320 640 m 1,28,-1
 256 640 l 1,29,-1
 192 640 l 1,30,-1
 192 704 l 1,31,-1
 192 768 l 1,32,-1
 256 768 l 1,33,-1
 320 768 l 1,34,-1
 320 704 l 1,35,-1
 320 640 l 1,28,-1
EndSplineSet
Validated: 5
EndChar

StartChar: underscore
Encoding: 95 95 66
Width: 640
GlyphClass: 1
Flags: W
LayerCount: 2
Fore
SplineSet
512 64 m 1,0,-1
 576 64 l 1,1,-1
 576 0 l 1,2,-1
 512 0 l 1,3,-1
 448 0 l 1,4,-1
 384 0 l 1,5,-1
 320 0 l 1,6,-1
 256 0 l 1,7,-1
 192 0 l 1,8,-1
 128 0 l 1,9,-1
 64 0 l 1,10,-1
 0 0 l 1,11,-1
 0 64 l 1,12,-1
 64 64 l 1,13,-1
 128 64 l 1,14,-1
 192 64 l 1,15,-1
 256 64 l 1,16,-1
 320 64 l 1,17,-1
 384 64 l 1,18,-1
 448 64 l 1,19,-1
 512 64 l 1,0,-1
EndSplineSet
Validated: 1
EndChar

StartChar: grave
Encoding: 96 96 67
Width: 320
GlyphClass: 1
Flags: W
LayerCount: 2
Fore
SplineSet
192 576 m 1,0,-1
 192 640 l 1,1,-1
 256 640 l 1,2,-1
 256 576 l 1,3,-1
 192 576 l 1,0,-1
192 640 m 1,4,-1
 128 640 l 1,5,-1
 128 704 l 1,6,-1
 192 704 l 1,7,-1
 192 640 l 1,4,-1
128 704 m 1,8,-1
 64 704 l 1,9,-1
 64 768 l 1,10,-1
 128 768 l 1,11,-1
 128 704 l 1,8,-1
EndSplineSet
Validated: 5
EndChar

StartChar: a
Encoding: 97 97 68
Width: 640
GlyphClass: 1
Flags: W
LayerCount: 2
Fore
SplineSet
512 0 m 1,0,-1
 448 0 l 1,1,-1
 384 0 l 1,2,-1
 320 0 l 1,3,-1
 256 0 l 1,4,-1
 192 0 l 1,5,-1
 128 0 l 1,6,-1
 128 64 l 1,7,-1
 128 128 l 1,8,-1
 64 128 l 1,9,-1
 0 128 l 1,10,-1
 0 192 l 1,11,-1
 0 256 l 1,12,-1
 64 256 l 1,13,-1
 128 256 l 1,14,-1
 128 320 l 1,15,-1
 128 384 l 1,16,-1
 192 384 l 1,17,-1
 256 384 l 1,18,-1
 320 384 l 1,19,-1
 384 384 l 1,20,-1
 448 384 l 1,21,-1
 448 448 l 1,22,-1
 512 448 l 1,23,-1
 576 448 l 1,24,-1
 576 384 l 1,25,-1
 576 320 l 1,26,-1
 576 256 l 1,27,-1
 576 192 l 1,28,-1
 576 128 l 1,29,-1
 576 64 l 1,30,-1
 576 0 l 1,31,-1
 512 0 l 1,0,-1
384 128 m 1,32,-1
 448 128 l 1,33,-1
 448 192 l 1,34,-1
 448 256 l 1,35,-1
 384 256 l 1,36,-1
 320 256 l 1,37,-1
 256 256 l 1,38,-1
 192 256 l 1,39,-1
 128 256 l 1,40,-1
 128 192 l 1,41,-1
 128 128 l 1,42,-1
 192 128 l 1,43,-1
 256 128 l 1,44,-1
 320 128 l 1,45,-1
 384 128 l 1,32,-1
448 448 m 1,46,-1
 384 448 l 1,47,-1
 320 448 l 1,48,-1
 256 448 l 1,49,-1
 192 448 l 1,50,-1
 128 448 l 1,51,-1
 64 448 l 1,52,-1
 0 448 l 1,53,-1
 0 512 l 1,54,-1
 0 576 l 1,55,-1
 64 576 l 1,56,-1
 128 576 l 1,57,-1
 192 576 l 1,58,-1
 256 576 l 1,59,-1
 320 576 l 1,60,-1
 384 576 l 1,61,-1
 448 576 l 1,62,-1
 448 512 l 1,63,-1
 448 448 l 1,46,-1
EndSplineSet
Validated: 5
EndChar

StartChar: b
Encoding: 98 98 69
Width: 704
GlyphClass: 1
Flags: W
LayerCount: 2
Fore
SplineSet
448 0 m 1,0,-1
 384 0 l 1,1,-1
 320 0 l 1,2,-1
 256 0 l 1,3,-1
 192 0 l 1,4,-1
 128 0 l 1,5,-1
 64 0 l 1,6,-1
 0 0 l 1,7,-1
 0 64 l 1,8,-1
 0 128 l 1,9,-1
 0 192 l 1,10,-1
 0 256 l 1,11,-1
 0 320 l 1,12,-1
 0 384 l 1,13,-1
 0 448 l 1,14,-1
 0 512 l 1,15,-1
 0 576 l 1,16,-1
 0 640 l 1,17,-1
 0 704 l 1,18,-1
 0 768 l 1,19,-1
 64 768 l 1,20,-1
 128 768 l 1,21,-1
 128 704 l 1,22,-1
 128 640 l 1,23,-1
 128 576 l 1,24,-1
 128 512 l 1,25,-1
 128 448 l 1,26,-1
 128 384 l 1,27,-1
 192 384 l 1,28,-1
 256 384 l 1,29,-1
 256 320 l 1,30,-1
 256 256 l 1,31,-1
 192 256 l 1,32,-1
 128 256 l 1,33,-1
 128 192 l 1,34,-1
 128 128 l 1,35,-1
 192 128 l 1,36,-1
 256 128 l 1,37,-1
 320 128 l 1,38,-1
 384 128 l 1,39,-1
 448 128 l 1,40,-1
 512 128 l 1,41,-1
 512 64 l 1,42,-1
 512 0 l 1,43,-1
 448 0 l 1,0,-1
512 128 m 1,44,-1
 512 192 l 1,45,-1
 512 256 l 1,46,-1
 512 320 l 1,47,-1
 512 384 l 1,48,-1
 576 384 l 1,49,-1
 640 384 l 1,50,-1
 640 320 l 1,51,-1
 640 256 l 1,52,-1
 640 192 l 1,53,-1
 640 128 l 1,54,-1
 576 128 l 1,55,-1
 512 128 l 1,44,-1
512 384 m 1,56,-1
 448 384 l 1,57,-1
 384 384 l 1,58,-1
 320 384 l 1,59,-1
 256 384 l 1,60,-1
 256 448 l 1,61,-1
 256 512 l 1,62,-1
 320 512 l 1,63,-1
 384 512 l 1,64,-1
 448 512 l 1,65,-1
 512 512 l 1,66,-1
 512 448 l 1,67,-1
 512 384 l 1,56,-1
EndSplineSet
Validated: 5
EndChar

StartChar: c
Encoding: 99 99 70
Width: 640
GlyphClass: 1
Flags: W
LayerCount: 2
Fore
SplineSet
384 0 m 1,0,-1
 320 0 l 1,1,-1
 256 0 l 1,2,-1
 192 0 l 1,3,-1
 128 0 l 1,4,-1
 128 64 l 1,5,-1
 128 128 l 1,6,-1
 192 128 l 1,7,-1
 256 128 l 1,8,-1
 320 128 l 1,9,-1
 384 128 l 1,10,-1
 448 128 l 1,11,-1
 448 64 l 1,12,-1
 448 0 l 1,13,-1
 384 0 l 1,0,-1
448 128 m 1,14,-1
 448 192 l 1,15,-1
 448 256 l 1,16,-1
 512 256 l 1,17,-1
 576 256 l 1,18,-1
 576 192 l 1,19,-1
 576 128 l 1,20,-1
 512 128 l 1,21,-1
 448 128 l 1,14,-1
128 128 m 1,22,-1
 64 128 l 1,23,-1
 0 128 l 1,24,-1
 0 192 l 1,25,-1
 0 256 l 1,26,-1
 0 320 l 1,27,-1
 0 384 l 1,28,-1
 0 448 l 1,29,-1
 64 448 l 1,30,-1
 128 448 l 1,31,-1
 128 384 l 1,32,-1
 128 320 l 1,33,-1
 128 256 l 1,34,-1
 128 192 l 1,35,-1
 128 128 l 1,22,-1
512 320 m 1,36,-1
 448 320 l 1,37,-1
 448 384 l 1,38,-1
 448 448 l 1,39,-1
 512 448 l 1,40,-1
 576 448 l 1,41,-1
 576 384 l 1,42,-1
 576 320 l 1,43,-1
 512 320 l 1,36,-1
448 448 m 1,44,-1
 384 448 l 1,45,-1
 320 448 l 1,46,-1
 256 448 l 1,47,-1
 192 448 l 1,48,-1
 128 448 l 1,49,-1
 128 512 l 1,50,-1
 128 576 l 1,51,-1
 192 576 l 1,52,-1
 256 576 l 1,53,-1
 320 576 l 1,54,-1
 384 576 l 1,55,-1
 448 576 l 1,56,-1
 448 512 l 1,57,-1
 448 448 l 1,44,-1
EndSplineSet
Validated: 5
EndChar

StartChar: d
Encoding: 100 100 71
Width: 576
GlyphClass: 1
Flags: W
LayerCount: 2
Fore
SplineSet
448 0 m 1,0,-1
 384 0 l 1,1,-1
 320 0 l 1,2,-1
 256 0 l 1,3,-1
 192 0 l 1,4,-1
 128 0 l 1,5,-1
 64 0 l 1,6,-1
 0 0 l 1,7,-1
 0 64 l 1,8,-1
 0 128 l 1,9,-1
 0 192 l 1,10,-1
 0 256 l 1,11,-1
 0 320 l 1,12,-1
 0 384 l 1,13,-1
 0 448 l 1,14,-1
 64 448 l 1,15,-1
 128 448 l 1,16,-1
 128 512 l 1,17,-1
 128 576 l 1,18,-1
 192 576 l 1,19,-1
 256 576 l 1,20,-1
 320 576 l 1,21,-1
 384 576 l 1,22,-1
 384 640 l 1,23,-1
 384 704 l 1,24,-1
 384 768 l 1,25,-1
 448 768 l 1,26,-1
 512 768 l 1,27,-1
 512 704 l 1,28,-1
 512 640 l 1,29,-1
 512 576 l 1,30,-1
 512 512 l 1,31,-1
 512 448 l 1,32,-1
 512 384 l 1,33,-1
 512 320 l 1,34,-1
 512 256 l 1,35,-1
 512 192 l 1,36,-1
 512 128 l 1,37,-1
 512 64 l 1,38,-1
 512 0 l 1,39,-1
 448 0 l 1,0,-1
320 128 m 1,40,-1
 384 128 l 1,41,-1
 384 192 l 1,42,-1
 384 256 l 1,43,-1
 384 320 l 1,44,-1
 384 384 l 1,45,-1
 384 448 l 1,46,-1
 320 448 l 1,47,-1
 256 448 l 1,48,-1
 192 448 l 1,49,-1
 128 448 l 1,50,-1
 128 384 l 1,51,-1
 128 320 l 1,52,-1
 128 256 l 1,53,-1
 128 192 l 1,54,-1
 128 128 l 1,55,-1
 192 128 l 1,56,-1
 256 128 l 1,57,-1
 320 128 l 1,40,-1
EndSplineSet
Validated: 5
EndChar

StartChar: e
Encoding: 101 101 72
Width: 576
GlyphClass: 1
Flags: W
LayerCount: 2
Fore
SplineSet
448 0 m 1,0,-1
 384 0 l 1,1,-1
 320 0 l 1,2,-1
 256 0 l 1,3,-1
 192 0 l 1,4,-1
 128 0 l 1,5,-1
 128 64 l 1,6,-1
 128 128 l 1,7,-1
 192 128 l 1,8,-1
 256 128 l 1,9,-1
 320 128 l 1,10,-1
 384 128 l 1,11,-1
 384 192 l 1,12,-1
 448 192 l 1,13,-1
 512 192 l 1,14,-1
 512 128 l 1,15,-1
 512 64 l 1,16,-1
 512 0 l 1,17,-1
 448 0 l 1,0,-1
128 128 m 1,18,-1
 64 128 l 1,19,-1
 0 128 l 1,20,-1
 0 192 l 1,21,-1
 0 256 l 1,22,-1
 0 320 l 1,23,-1
 0 384 l 1,24,-1
 0 448 l 1,25,-1
 64 448 l 1,26,-1
 128 448 l 1,27,-1
 128 512 l 1,28,-1
 128 576 l 1,29,-1
 192 576 l 1,30,-1
 256 576 l 1,31,-1
 320 576 l 1,32,-1
 384 576 l 1,33,-1
 448 576 l 1,34,-1
 512 576 l 1,35,-1
 512 512 l 1,36,-1
 512 448 l 1,37,-1
 512 384 l 1,38,-1
 512 320 l 1,39,-1
 448 320 l 1,40,-1
 384 320 l 1,41,-1
 384 256 l 1,42,-1
 320 256 l 1,43,-1
 256 256 l 1,44,-1
 192 256 l 1,45,-1
 128 256 l 1,46,-1
 128 192 l 1,47,-1
 128 128 l 1,18,-1
320 384 m 1,48,-1
 384 384 l 1,49,-1
 384 448 l 1,50,-1
 320 448 l 1,51,-1
 256 448 l 1,52,-1
 192 448 l 1,53,-1
 128 448 l 1,54,-1
 128 384 l 1,55,-1
 192 384 l 1,56,-1
 256 384 l 1,57,-1
 320 384 l 1,48,-1
EndSplineSet
Validated: 5
EndChar

StartChar: f
Encoding: 102 102 73
Width: 576
GlyphClass: 1
Flags: W
LayerCount: 2
Fore
SplineSet
192 0 m 1,0,-1
 128 0 l 1,1,-1
 128 64 l 1,2,-1
 128 128 l 1,3,-1
 128 192 l 1,4,-1
 128 256 l 1,5,-1
 128 320 l 1,6,-1
 128 384 l 1,7,-1
 128 448 l 1,8,-1
 64 448 l 1,9,-1
 0 448 l 1,10,-1
 0 512 l 1,11,-1
 0 576 l 1,12,-1
 64 576 l 1,13,-1
 128 576 l 1,14,-1
 128 640 l 1,15,-1
 128 704 l 1,16,-1
 128 768 l 1,17,-1
 192 768 l 1,18,-1
 256 768 l 1,19,-1
 320 768 l 1,20,-1
 384 768 l 1,21,-1
 448 768 l 1,22,-1
 448 704 l 1,23,-1
 448 640 l 1,24,-1
 384 640 l 1,25,-1
 320 640 l 1,26,-1
 256 640 l 1,27,-1
 256 576 l 1,28,-1
 320 576 l 1,29,-1
 384 576 l 1,30,-1
 448 576 l 1,31,-1
 512 576 l 1,32,-1
 512 512 l 1,33,-1
 512 448 l 1,34,-1
 448 448 l 1,35,-1
 384 448 l 1,36,-1
 320 448 l 1,37,-1
 256 448 l 1,38,-1
 256 384 l 1,39,-1
 256 320 l 1,40,-1
 256 256 l 1,41,-1
 256 192 l 1,42,-1
 256 128 l 1,43,-1
 256 64 l 1,44,-1
 256 0 l 1,45,-1
 192 0 l 1,0,-1
EndSplineSet
Validated: 1
EndChar

StartChar: g
Encoding: 103 103 74
Width: 576
GlyphClass: 1
Flags: W
LayerCount: 2
Fore
SplineSet
320 -256 m 1,0,-1
 256 -256 l 1,1,-1
 192 -256 l 1,2,-1
 128 -256 l 1,3,-1
 128 -192 l 1,4,-1
 128 -128 l 1,5,-1
 192 -128 l 1,6,-1
 256 -128 l 1,7,-1
 320 -128 l 1,8,-1
 384 -128 l 1,9,-1
 384 -192 l 1,10,-1
 384 -256 l 1,11,-1
 320 -256 l 1,0,-1
384 -128 m 1,12,-1
 384 -64 l 1,13,-1
 384 0 l 1,14,-1
 384 64 l 1,15,-1
 384 128 l 1,16,-1
 384 192 l 1,17,-1
 320 192 l 1,18,-1
 256 192 l 1,19,-1
 192 192 l 1,20,-1
 128 192 l 1,21,-1
 128 256 l 1,22,-1
 128 320 l 1,23,-1
 64 320 l 1,24,-1
 0 320 l 1,25,-1
 0 384 l 1,26,-1
 0 448 l 1,27,-1
 64 448 l 1,28,-1
 128 448 l 1,29,-1
 128 512 l 1,30,-1
 128 576 l 1,31,-1
 192 576 l 1,32,-1
 256 576 l 1,33,-1
 320 576 l 1,34,-1
 384 576 l 1,35,-1
 448 576 l 1,36,-1
 512 576 l 1,37,-1
 512 512 l 1,38,-1
 512 448 l 1,39,-1
 512 384 l 1,40,-1
 512 320 l 1,41,-1
 512 256 l 1,42,-1
 512 192 l 1,43,-1
 512 128 l 1,44,-1
 512 64 l 1,45,-1
 512 0 l 1,46,-1
 512 -64 l 1,47,-1
 512 -128 l 1,48,-1
 448 -128 l 1,49,-1
 384 -128 l 1,12,-1
128 -128 m 1,50,-1
 64 -128 l 1,51,-1
 0 -128 l 1,52,-1
 0 -64 l 1,53,-1
 0 0 l 1,54,-1
 64 0 l 1,55,-1
 128 0 l 1,56,-1
 128 -64 l 1,57,-1
 128 -128 l 1,50,-1
320 320 m 1,58,-1
 384 320 l 1,59,-1
 384 384 l 1,60,-1
 384 448 l 1,61,-1
 320 448 l 1,62,-1
 256 448 l 1,63,-1
 192 448 l 1,64,-1
 128 448 l 1,65,-1
 128 384 l 1,66,-1
 128 320 l 1,67,-1
 192 320 l 1,68,-1
 256 320 l 1,69,-1
 320 320 l 1,58,-1
EndSplineSet
Validated: 5
EndChar

StartChar: h
Encoding: 104 104 75
Width: 576
GlyphClass: 1
Flags: W
LayerCount: 2
Fore
SplineSet
448 0 m 1,0,-1
 384 0 l 1,1,-1
 384 64 l 1,2,-1
 384 128 l 1,3,-1
 384 192 l 1,4,-1
 384 256 l 1,5,-1
 384 320 l 1,6,-1
 384 384 l 1,7,-1
 448 384 l 1,8,-1
 512 384 l 1,9,-1
 512 320 l 1,10,-1
 512 256 l 1,11,-1
 512 192 l 1,12,-1
 512 128 l 1,13,-1
 512 64 l 1,14,-1
 512 0 l 1,15,-1
 448 0 l 1,0,-1
64 0 m 1,16,-1
 0 0 l 1,17,-1
 0 64 l 1,18,-1
 0 128 l 1,19,-1
 0 192 l 1,20,-1
 0 256 l 1,21,-1
 0 320 l 1,22,-1
 0 384 l 1,23,-1
 0 448 l 1,24,-1
 0 512 l 1,25,-1
 0 576 l 1,26,-1
 0 640 l 1,27,-1
 0 704 l 1,28,-1
 0 768 l 1,29,-1
 64 768 l 1,30,-1
 128 768 l 1,31,-1
 128 704 l 1,32,-1
 128 640 l 1,33,-1
 128 576 l 1,34,-1
 128 512 l 1,35,-1
 128 448 l 1,36,-1
 128 384 l 1,37,-1
 192 384 l 1,38,-1
 256 384 l 1,39,-1
 256 320 l 1,40,-1
 256 256 l 1,41,-1
 192 256 l 1,42,-1
 128 256 l 1,43,-1
 128 192 l 1,44,-1
 128 128 l 1,45,-1
 128 64 l 1,46,-1
 128 0 l 1,47,-1
 64 0 l 1,16,-1
384 384 m 1,48,-1
 320 384 l 1,49,-1
 256 384 l 1,50,-1
 256 448 l 1,51,-1
 256 512 l 1,52,-1
 320 512 l 1,53,-1
 384 512 l 1,54,-1
 384 448 l 1,55,-1
 384 384 l 1,48,-1
EndSplineSet
Validated: 5
EndChar

StartChar: i
Encoding: 105 105 76
Width: 192
GlyphClass: 1
Flags: W
LayerCount: 2
Fore
SplineSet
64 0 m 1,0,-1
 0 0 l 1,1,-1
 0 64 l 1,2,-1
 0 128 l 1,3,-1
 0 192 l 1,4,-1
 0 256 l 1,5,-1
 0 320 l 1,6,-1
 0 384 l 1,7,-1
 0 448 l 1,8,-1
 0 512 l 1,9,-1
 0 576 l 1,10,-1
 64 576 l 1,11,-1
 128 576 l 1,12,-1
 128 512 l 1,13,-1
 128 448 l 1,14,-1
 128 384 l 1,15,-1
 128 320 l 1,16,-1
 128 256 l 1,17,-1
 128 192 l 1,18,-1
 128 128 l 1,19,-1
 128 64 l 1,20,-1
 128 0 l 1,21,-1
 64 0 l 1,0,-1
64 640 m 1,22,-1
 0 640 l 1,23,-1
 0 704 l 1,24,-1
 0 768 l 1,25,-1
 64 768 l 1,26,-1
 128 768 l 1,27,-1
 128 704 l 1,28,-1
 128 640 l 1,29,-1
 64 640 l 1,22,-1
EndSplineSet
Validated: 1
EndChar

StartChar: j
Encoding: 106 106 77
Width: 512
GlyphClass: 1
Flags: W
LayerCount: 2
Fore
SplineSet
256 -128 m 1,0,-1
 192 -128 l 1,1,-1
 128 -128 l 1,2,-1
 128 -64 l 1,3,-1
 128 0 l 1,4,-1
 192 0 l 1,5,-1
 256 0 l 1,6,-1
 320 0 l 1,7,-1
 320 -64 l 1,8,-1
 320 -128 l 1,9,-1
 256 -128 l 1,0,-1
320 0 m 1,10,-1
 320 64 l 1,11,-1
 320 128 l 1,12,-1
 320 192 l 1,13,-1
 320 256 l 1,14,-1
 320 320 l 1,15,-1
 320 384 l 1,16,-1
 320 448 l 1,17,-1
 384 448 l 1,18,-1
 448 448 l 1,19,-1
 448 384 l 1,20,-1
 448 320 l 1,21,-1
 448 256 l 1,22,-1
 448 192 l 1,23,-1
 448 128 l 1,24,-1
 448 64 l 1,25,-1
 448 0 l 1,26,-1
 384 0 l 1,27,-1
 320 0 l 1,10,-1
128 0 m 1,28,-1
 64 0 l 1,29,-1
 0 0 l 1,30,-1
 0 64 l 1,31,-1
 0 128 l 1,32,-1
 64 128 l 1,33,-1
 128 128 l 1,34,-1
 128 64 l 1,35,-1
 128 0 l 1,28,-1
384 512 m 1,36,-1
 320 512 l 1,37,-1
 320 576 l 1,38,-1
 320 640 l 1,39,-1
 384 640 l 1,40,-1
 448 640 l 1,41,-1
 448 576 l 1,42,-1
 448 512 l 1,43,-1
 384 512 l 1,36,-1
EndSplineSet
Validated: 5
EndChar

StartChar: k
Encoding: 107 107 78
Width: 576
GlyphClass: 1
Flags: W
LayerCount: 2
Fore
SplineSet
448 0 m 1,0,-1
 384 0 l 1,1,-1
 384 64 l 1,2,-1
 384 128 l 1,3,-1
 448 128 l 1,4,-1
 512 128 l 1,5,-1
 512 64 l 1,6,-1
 512 0 l 1,7,-1
 448 0 l 1,0,-1
64 0 m 1,8,-1
 0 0 l 1,9,-1
 0 64 l 1,10,-1
 0 128 l 1,11,-1
 0 192 l 1,12,-1
 0 256 l 1,13,-1
 0 320 l 1,14,-1
 0 384 l 1,15,-1
 0 448 l 1,16,-1
 0 512 l 1,17,-1
 0 576 l 1,18,-1
 0 640 l 1,19,-1
 0 704 l 1,20,-1
 0 768 l 1,21,-1
 64 768 l 1,22,-1
 128 768 l 1,23,-1
 128 704 l 1,24,-1
 128 640 l 1,25,-1
 128 576 l 1,26,-1
 128 512 l 1,27,-1
 128 448 l 1,28,-1
 128 384 l 1,29,-1
 192 384 l 1,30,-1
 256 384 l 1,31,-1
 256 320 l 1,32,-1
 256 256 l 1,33,-1
 320 256 l 1,34,-1
 384 256 l 1,35,-1
 384 192 l 1,36,-1
 384 128 l 1,37,-1
 320 128 l 1,38,-1
 256 128 l 1,39,-1
 256 192 l 1,40,-1
 256 256 l 1,41,-1
 192 256 l 1,42,-1
 128 256 l 1,43,-1
 128 192 l 1,44,-1
 128 128 l 1,45,-1
 128 64 l 1,46,-1
 128 0 l 1,47,-1
 64 0 l 1,8,-1
256 384 m 1,48,-1
 256 448 l 1,49,-1
 256 512 l 1,50,-1
 320 512 l 1,51,-1
 384 512 l 1,52,-1
 384 448 l 1,53,-1
 384 384 l 1,54,-1
 320 384 l 1,55,-1
 256 384 l 1,48,-1
384 512 m 1,56,-1
 384 576 l 1,57,-1
 384 640 l 1,58,-1
 448 640 l 1,59,-1
 512 640 l 1,60,-1
 512 576 l 1,61,-1
 512 512 l 1,62,-1
 448 512 l 1,63,-1
 384 512 l 1,56,-1
EndSplineSet
Validated: 5
EndChar

StartChar: l
Encoding: 108 108 79
Width: 192
GlyphClass: 1
Flags: W
LayerCount: 2
Fore
SplineSet
64 0 m 1,0,-1
 0 0 l 1,1,-1
 0 64 l 1,2,-1
 0 128 l 1,3,-1
 0 192 l 1,4,-1
 0 256 l 1,5,-1
 0 320 l 1,6,-1
 0 384 l 1,7,-1
 0 448 l 1,8,-1
 0 512 l 1,9,-1
 0 576 l 1,10,-1
 0 640 l 1,11,-1
 0 704 l 1,12,-1
 0 768 l 1,13,-1
 64 768 l 1,14,-1
 128 768 l 1,15,-1
 128 704 l 1,16,-1
 128 640 l 1,17,-1
 128 576 l 1,18,-1
 128 512 l 1,19,-1
 128 448 l 1,20,-1
 128 384 l 1,21,-1
 128 320 l 1,22,-1
 128 256 l 1,23,-1
 128 192 l 1,24,-1
 128 128 l 1,25,-1
 128 64 l 1,26,-1
 128 0 l 1,27,-1
 64 0 l 1,0,-1
EndSplineSet
Validated: 1
EndChar

StartChar: m
Encoding: 109 109 80
Width: 960
GlyphClass: 1
Flags: W
LayerCount: 2
Fore
SplineSet
832 0 m 1,0,-1
 768 0 l 1,1,-1
 768 64 l 1,2,-1
 768 128 l 1,3,-1
 768 192 l 1,4,-1
 768 256 l 1,5,-1
 768 320 l 1,6,-1
 768 384 l 1,7,-1
 768 448 l 1,8,-1
 832 448 l 1,9,-1
 896 448 l 1,10,-1
 896 384 l 1,11,-1
 896 320 l 1,12,-1
 896 256 l 1,13,-1
 896 192 l 1,14,-1
 896 128 l 1,15,-1
 896 64 l 1,16,-1
 896 0 l 1,17,-1
 832 0 l 1,0,-1
448 0 m 1,18,-1
 384 0 l 1,19,-1
 384 64 l 1,20,-1
 384 128 l 1,21,-1
 384 192 l 1,22,-1
 384 256 l 1,23,-1
 384 320 l 1,24,-1
 384 384 l 1,25,-1
 384 448 l 1,26,-1
 448 448 l 1,27,-1
 512 448 l 1,28,-1
 512 384 l 1,29,-1
 512 320 l 1,30,-1
 512 256 l 1,31,-1
 512 192 l 1,32,-1
 512 128 l 1,33,-1
 512 64 l 1,34,-1
 512 0 l 1,35,-1
 448 0 l 1,18,-1
64 0 m 1,36,-1
 0 0 l 1,37,-1
 0 64 l 1,38,-1
 0 128 l 1,39,-1
 0 192 l 1,40,-1
 0 256 l 1,41,-1
 0 320 l 1,42,-1
 0 384 l 1,43,-1
 0 448 l 1,44,-1
 0 512 l 1,45,-1
 0 576 l 1,46,-1
 64 576 l 1,47,-1
 128 576 l 1,48,-1
 192 576 l 1,49,-1
 256 576 l 1,50,-1
 320 576 l 1,51,-1
 384 576 l 1,52,-1
 384 512 l 1,53,-1
 384 448 l 1,54,-1
 320 448 l 1,55,-1
 256 448 l 1,56,-1
 192 448 l 1,57,-1
 128 448 l 1,58,-1
 128 384 l 1,59,-1
 128 320 l 1,60,-1
 128 256 l 1,61,-1
 128 192 l 1,62,-1
 128 128 l 1,63,-1
 128 64 l 1,64,-1
 128 0 l 1,65,-1
 64 0 l 1,36,-1
768 448 m 1,66,-1
 704 448 l 1,67,-1
 640 448 l 1,68,-1
 576 448 l 1,69,-1
 512 448 l 1,70,-1
 512 512 l 1,71,-1
 512 576 l 1,72,-1
 576 576 l 1,73,-1
 640 576 l 1,74,-1
 704 576 l 1,75,-1
 768 576 l 1,76,-1
 768 512 l 1,77,-1
 768 448 l 1,66,-1
EndSplineSet
Validated: 5
EndChar

StartChar: n
Encoding: 110 110 81
Width: 640
GlyphClass: 1
Flags: W
LayerCount: 2
Fore
SplineSet
512 0 m 1,0,-1
 448 0 l 1,1,-1
 448 64 l 1,2,-1
 448 128 l 1,3,-1
 448 192 l 1,4,-1
 448 256 l 1,5,-1
 448 320 l 1,6,-1
 448 384 l 1,7,-1
 448 448 l 1,8,-1
 512 448 l 1,9,-1
 576 448 l 1,10,-1
 576 384 l 1,11,-1
 576 320 l 1,12,-1
 576 256 l 1,13,-1
 576 192 l 1,14,-1
 576 128 l 1,15,-1
 576 64 l 1,16,-1
 576 0 l 1,17,-1
 512 0 l 1,0,-1
64 0 m 1,18,-1
 0 0 l 1,19,-1
 0 64 l 1,20,-1
 0 128 l 1,21,-1
 0 192 l 1,22,-1
 0 256 l 1,23,-1
 0 320 l 1,24,-1
 0 384 l 1,25,-1
 0 448 l 1,26,-1
 0 512 l 1,27,-1
 0 576 l 1,28,-1
 64 576 l 1,29,-1
 128 576 l 1,30,-1
 192 576 l 1,31,-1
 256 576 l 1,32,-1
 320 576 l 1,33,-1
 384 576 l 1,34,-1
 448 576 l 1,35,-1
 448 512 l 1,36,-1
 448 448 l 1,37,-1
 384 448 l 1,38,-1
 320 448 l 1,39,-1
 256 448 l 1,40,-1
 192 448 l 1,41,-1
 128 448 l 1,42,-1
 128 384 l 1,43,-1
 128 320 l 1,44,-1
 128 256 l 1,45,-1
 128 192 l 1,46,-1
 128 128 l 1,47,-1
 128 64 l 1,48,-1
 128 0 l 1,49,-1
 64 0 l 1,18,-1
EndSplineSet
Validated: 5
EndChar

StartChar: o
Encoding: 111 111 82
Width: 576
GlyphClass: 1
Flags: W
LayerCount: 2
Fore
SplineSet
320 0 m 1,0,-1
 256 0 l 1,1,-1
 192 0 l 1,2,-1
 128 0 l 1,3,-1
 128 64 l 1,4,-1
 128 128 l 1,5,-1
 192 128 l 1,6,-1
 256 128 l 1,7,-1
 320 128 l 1,8,-1
 384 128 l 1,9,-1
 384 64 l 1,10,-1
 384 0 l 1,11,-1
 320 0 l 1,0,-1
384 128 m 1,12,-1
 384 192 l 1,13,-1
 384 256 l 1,14,-1
 384 320 l 1,15,-1
 384 384 l 1,16,-1
 384 448 l 1,17,-1
 448 448 l 1,18,-1
 512 448 l 1,19,-1
 512 384 l 1,20,-1
 512 320 l 1,21,-1
 512 256 l 1,22,-1
 512 192 l 1,23,-1
 512 128 l 1,24,-1
 448 128 l 1,25,-1
 384 128 l 1,12,-1
128 128 m 1,26,-1
 64 128 l 1,27,-1
 0 128 l 1,28,-1
 0 192 l 1,29,-1
 0 256 l 1,30,-1
 0 320 l 1,31,-1
 0 384 l 1,32,-1
 0 448 l 1,33,-1
 64 448 l 1,34,-1
 128 448 l 1,35,-1
 128 384 l 1,36,-1
 128 320 l 1,37,-1
 128 256 l 1,38,-1
 128 192 l 1,39,-1
 128 128 l 1,26,-1
384 448 m 1,40,-1
 320 448 l 1,41,-1
 256 448 l 1,42,-1
 192 448 l 1,43,-1
 128 448 l 1,44,-1
 128 512 l 1,45,-1
 128 576 l 1,46,-1
 192 576 l 1,47,-1
 256 576 l 1,48,-1
 320 576 l 1,49,-1
 384 576 l 1,50,-1
 384 512 l 1,51,-1
 384 448 l 1,40,-1
EndSplineSet
Validated: 5
EndChar

StartChar: p
Encoding: 112 112 83
Width: 640
GlyphClass: 1
Flags: W
LayerCount: 2
Fore
SplineSet
64 -192 m 1,0,-1
 0 -192 l 1,1,-1
 0 -128 l 1,2,-1
 0 -64 l 1,3,-1
 0 0 l 1,4,-1
 0 64 l 1,5,-1
 0 128 l 1,6,-1
 0 192 l 1,7,-1
 0 256 l 1,8,-1
 0 320 l 1,9,-1
 0 384 l 1,10,-1
 0 448 l 1,11,-1
 0 512 l 1,12,-1
 0 576 l 1,13,-1
 64 576 l 1,14,-1
 128 576 l 1,15,-1
 128 512 l 1,16,-1
 128 448 l 1,17,-1
 192 448 l 1,18,-1
 256 448 l 1,19,-1
 256 384 l 1,20,-1
 256 320 l 1,21,-1
 192 320 l 1,22,-1
 128 320 l 1,23,-1
 128 256 l 1,24,-1
 128 192 l 1,25,-1
 192 192 l 1,26,-1
 256 192 l 1,27,-1
 320 192 l 1,28,-1
 384 192 l 1,29,-1
 448 192 l 1,30,-1
 448 128 l 1,31,-1
 448 64 l 1,32,-1
 384 64 l 1,33,-1
 320 64 l 1,34,-1
 256 64 l 1,35,-1
 192 64 l 1,36,-1
 128 64 l 1,37,-1
 128 0 l 1,38,-1
 128 -64 l 1,39,-1
 128 -128 l 1,40,-1
 128 -192 l 1,41,-1
 64 -192 l 1,0,-1
448 192 m 1,42,-1
 448 256 l 1,43,-1
 448 320 l 1,44,-1
 448 384 l 1,45,-1
 448 448 l 1,46,-1
 512 448 l 1,47,-1
 576 448 l 1,48,-1
 576 384 l 1,49,-1
 576 320 l 1,50,-1
 576 256 l 1,51,-1
 576 192 l 1,52,-1
 512 192 l 1,53,-1
 448 192 l 1,42,-1
448 448 m 1,54,-1
 384 448 l 1,55,-1
 320 448 l 1,56,-1
 256 448 l 1,57,-1
 256 512 l 1,58,-1
 256 576 l 1,59,-1
 320 576 l 1,60,-1
 384 576 l 1,61,-1
 448 576 l 1,62,-1
 448 512 l 1,63,-1
 448 448 l 1,54,-1
EndSplineSet
Validated: 5
EndChar

StartChar: q
Encoding: 113 113 84
Width: 576
GlyphClass: 1
Flags: W
LayerCount: 2
Fore
SplineSet
448 -192 m 1,0,-1
 384 -192 l 1,1,-1
 384 -128 l 1,2,-1
 384 -64 l 1,3,-1
 384 0 l 1,4,-1
 320 0 l 1,5,-1
 256 0 l 1,6,-1
 192 0 l 1,7,-1
 128 0 l 1,8,-1
 128 64 l 1,9,-1
 128 128 l 1,10,-1
 64 128 l 1,11,-1
 0 128 l 1,12,-1
 0 192 l 1,13,-1
 0 256 l 1,14,-1
 0 320 l 1,15,-1
 0 384 l 1,16,-1
 0 448 l 1,17,-1
 64 448 l 1,18,-1
 128 448 l 1,19,-1
 128 512 l 1,20,-1
 128 576 l 1,21,-1
 192 576 l 1,22,-1
 256 576 l 1,23,-1
 320 576 l 1,24,-1
 320 512 l 1,25,-1
 384 512 l 1,26,-1
 384 576 l 1,27,-1
 448 576 l 1,28,-1
 512 576 l 1,29,-1
 512 512 l 1,30,-1
 512 448 l 1,31,-1
 512 384 l 1,32,-1
 512 320 l 1,33,-1
 512 256 l 1,34,-1
 512 192 l 1,35,-1
 512 128 l 1,36,-1
 512 64 l 1,37,-1
 512 0 l 1,38,-1
 512 -64 l 1,39,-1
 512 -128 l 1,40,-1
 512 -192 l 1,41,-1
 448 -192 l 1,0,-1
320 128 m 1,42,-1
 384 128 l 1,43,-1
 384 192 l 1,44,-1
 384 256 l 1,45,-1
 384 320 l 1,46,-1
 384 384 l 1,47,-1
 320 384 l 1,48,-1
 320 448 l 1,49,-1
 256 448 l 1,50,-1
 192 448 l 1,51,-1
 128 448 l 1,52,-1
 128 384 l 1,53,-1
 128 320 l 1,54,-1
 128 256 l 1,55,-1
 128 192 l 1,56,-1
 128 128 l 1,57,-1
 192 128 l 1,58,-1
 256 128 l 1,59,-1
 320 128 l 1,42,-1
EndSplineSet
Validated: 5
EndChar

StartChar: r
Encoding: 114 114 85
Width: 512
GlyphClass: 1
Flags: W
LayerCount: 2
Fore
SplineSet
384 384 m 1,0,-1
 384 448 l 1,1,-1
 320 448 l 1,2,-1
 256 448 l 1,3,-1
 192 448 l 1,4,-1
 192 384 l 1,5,-1
 128 384 l 1,6,-1
 128 320 l 1,7,-1
 128 256 l 1,8,-1
 128 192 l 1,9,-1
 128 128 l 1,10,-1
 128 64 l 1,11,-1
 128 0 l 1,12,-1
 64 0 l 1,13,-1
 0 0 l 1,14,-1
 0 64 l 1,15,-1
 0 128 l 1,16,-1
 0 192 l 1,17,-1
 0 256 l 1,18,-1
 0 320 l 1,19,-1
 0 384 l 1,20,-1
 0 448 l 1,21,-1
 0 512 l 1,22,-1
 0 576 l 1,23,-1
 64 576 l 1,24,-1
 128 576 l 1,25,-1
 128 512 l 1,26,-1
 192 512 l 1,27,-1
 192 576 l 1,28,-1
 256 576 l 1,29,-1
 320 576 l 1,30,-1
 384 576 l 1,31,-1
 384 512 l 1,32,-1
 448 512 l 1,33,-1
 448 448 l 1,34,-1
 448 384 l 1,35,-1
 384 384 l 1,0,-1
EndSplineSet
Validated: 1
EndChar

StartChar: s
Encoding: 115 115 86
Width: 512
GlyphClass: 1
Flags: W
LayerCount: 2
Fore
SplineSet
256 0 m 1,0,-1
 192 0 l 1,1,-1
 128 0 l 1,2,-1
 64 0 l 1,3,-1
 0 0 l 1,4,-1
 0 64 l 1,5,-1
 0 128 l 1,6,-1
 64 128 l 1,7,-1
 128 128 l 1,8,-1
 192 128 l 1,9,-1
 256 128 l 1,10,-1
 320 128 l 1,11,-1
 320 64 l 1,12,-1
 320 0 l 1,13,-1
 256 0 l 1,0,-1
320 128 m 1,14,-1
 320 192 l 1,15,-1
 320 256 l 1,16,-1
 384 256 l 1,17,-1
 448 256 l 1,18,-1
 448 192 l 1,19,-1
 448 128 l 1,20,-1
 384 128 l 1,21,-1
 320 128 l 1,14,-1
320 256 m 1,22,-1
 256 256 l 1,23,-1
 192 256 l 1,24,-1
 128 256 l 1,25,-1
 128 320 l 1,26,-1
 128 384 l 1,27,-1
 192 384 l 1,28,-1
 256 384 l 1,29,-1
 320 384 l 1,30,-1
 320 320 l 1,31,-1
 320 256 l 1,22,-1
128 384 m 1,32,-1
 64 384 l 1,33,-1
 0 384 l 1,34,-1
 0 448 l 1,35,-1
 0 512 l 1,36,-1
 64 512 l 1,37,-1
 128 512 l 1,38,-1
 128 448 l 1,39,-1
 128 384 l 1,32,-1
384 512 m 1,40,-1
 320 512 l 1,41,-1
 256 512 l 1,42,-1
 192 512 l 1,43,-1
 128 512 l 1,44,-1
 128 576 l 1,45,-1
 128 640 l 1,46,-1
 192 640 l 1,47,-1
 256 640 l 1,48,-1
 320 640 l 1,49,-1
 384 640 l 1,50,-1
 448 640 l 1,51,-1
 448 576 l 1,52,-1
 448 512 l 1,53,-1
 384 512 l 1,40,-1
EndSplineSet
Validated: 5
EndChar

StartChar: t
Encoding: 116 116 87
Width: 384
GlyphClass: 1
Flags: W
LayerCount: 2
Fore
SplineSet
256 0 m 1,0,-1
 192 0 l 1,1,-1
 192 64 l 1,2,-1
 192 128 l 1,3,-1
 256 128 l 1,4,-1
 320 128 l 1,5,-1
 320 64 l 1,6,-1
 320 0 l 1,7,-1
 256 0 l 1,0,-1
192 128 m 1,8,-1
 128 128 l 1,9,-1
 64 128 l 1,10,-1
 64 192 l 1,11,-1
 64 256 l 1,12,-1
 64 320 l 1,13,-1
 64 384 l 1,14,-1
 64 448 l 1,15,-1
 0 448 l 1,16,-1
 0 512 l 1,17,-1
 0 576 l 1,18,-1
 64 576 l 1,19,-1
 64 640 l 1,20,-1
 64 704 l 1,21,-1
 128 704 l 1,22,-1
 192 704 l 1,23,-1
 192 640 l 1,24,-1
 192 576 l 1,25,-1
 256 576 l 1,26,-1
 256 512 l 1,27,-1
 256 448 l 1,28,-1
 192 448 l 1,29,-1
 192 384 l 1,30,-1
 192 320 l 1,31,-1
 192 256 l 1,32,-1
 192 192 l 1,33,-1
 192 128 l 1,8,-1
EndSplineSet
Validated: 5
EndChar

StartChar: u
Encoding: 117 117 88
Width: 576
GlyphClass: 1
Flags: W
LayerCount: 2
Fore
SplineSet
448 0 m 1,0,-1
 384 0 l 1,1,-1
 320 0 l 1,2,-1
 256 0 l 1,3,-1
 192 0 l 1,4,-1
 128 0 l 1,5,-1
 128 64 l 1,6,-1
 128 128 l 1,7,-1
 192 128 l 1,8,-1
 256 128 l 1,9,-1
 320 128 l 1,10,-1
 384 128 l 1,11,-1
 384 192 l 1,12,-1
 384 256 l 1,13,-1
 384 320 l 1,14,-1
 384 384 l 1,15,-1
 384 448 l 1,16,-1
 384 512 l 1,17,-1
 384 576 l 1,18,-1
 448 576 l 1,19,-1
 512 576 l 1,20,-1
 512 512 l 1,21,-1
 512 448 l 1,22,-1
 512 384 l 1,23,-1
 512 320 l 1,24,-1
 512 256 l 1,25,-1
 512 192 l 1,26,-1
 512 128 l 1,27,-1
 512 64 l 1,28,-1
 512 0 l 1,29,-1
 448 0 l 1,0,-1
128 128 m 1,30,-1
 64 128 l 1,31,-1
 0 128 l 1,32,-1
 0 192 l 1,33,-1
 0 256 l 1,34,-1
 0 320 l 1,35,-1
 0 384 l 1,36,-1
 0 448 l 1,37,-1
 0 512 l 1,38,-1
 0 576 l 1,39,-1
 64 576 l 1,40,-1
 128 576 l 1,41,-1
 128 512 l 1,42,-1
 128 448 l 1,43,-1
 128 384 l 1,44,-1
 128 320 l 1,45,-1
 128 256 l 1,46,-1
 128 192 l 1,47,-1
 128 128 l 1,30,-1
EndSplineSet
Validated: 5
EndChar

StartChar: v
Encoding: 118 118 89
Width: 704
GlyphClass: 1
Flags: W
LayerCount: 2
Fore
SplineSet
320 0 m 1,0,-1
 256 0 l 1,1,-1
 256 64 l 1,2,-1
 256 128 l 1,3,-1
 320 128 l 1,4,-1
 384 128 l 1,5,-1
 384 64 l 1,6,-1
 384 0 l 1,7,-1
 320 0 l 1,0,-1
384 128 m 1,8,-1
 384 192 l 1,9,-1
 384 256 l 1,10,-1
 448 256 l 1,11,-1
 512 256 l 1,12,-1
 512 192 l 1,13,-1
 512 128 l 1,14,-1
 448 128 l 1,15,-1
 384 128 l 1,8,-1
256 128 m 1,16,-1
 192 128 l 1,17,-1
 128 128 l 1,18,-1
 128 192 l 1,19,-1
 128 256 l 1,20,-1
 192 256 l 1,21,-1
 256 256 l 1,22,-1
 256 192 l 1,23,-1
 256 128 l 1,16,-1
512 256 m 1,24,-1
 512 320 l 1,25,-1
 512 384 l 1,26,-1
 512 448 l 1,27,-1
 576 448 l 1,28,-1
 640 448 l 1,29,-1
 640 384 l 1,30,-1
 640 320 l 1,31,-1
 640 256 l 1,32,-1
 576 256 l 1,33,-1
 512 256 l 1,24,-1
128 256 m 1,34,-1
 64 256 l 1,35,-1
 0 256 l 1,36,-1
 0 320 l 1,37,-1
 0 384 l 1,38,-1
 0 448 l 1,39,-1
 64 448 l 1,40,-1
 128 448 l 1,41,-1
 128 384 l 1,42,-1
 128 320 l 1,43,-1
 128 256 l 1,34,-1
EndSplineSet
Validated: 5
EndChar

StartChar: w
Encoding: 119 119 90
Width: 768
GlyphClass: 1
Flags: W
LayerCount: 2
Fore
SplineSet
640 0 m 1,0,-1
 576 0 l 1,1,-1
 512 0 l 1,2,-1
 448 0 l 1,3,-1
 384 0 l 1,4,-1
 320 0 l 1,5,-1
 256 0 l 1,6,-1
 192 0 l 1,7,-1
 128 0 l 1,8,-1
 128 64 l 1,9,-1
 128 128 l 1,10,-1
 192 128 l 1,11,-1
 256 128 l 1,12,-1
 320 128 l 1,13,-1
 320 192 l 1,14,-1
 320 256 l 1,15,-1
 320 320 l 1,16,-1
 384 320 l 1,17,-1
 448 320 l 1,18,-1
 448 256 l 1,19,-1
 448 192 l 1,20,-1
 448 128 l 1,21,-1
 512 128 l 1,22,-1
 576 128 l 1,23,-1
 576 192 l 1,24,-1
 576 256 l 1,25,-1
 576 320 l 1,26,-1
 576 384 l 1,27,-1
 576 448 l 1,28,-1
 576 512 l 1,29,-1
 640 512 l 1,30,-1
 704 512 l 1,31,-1
 704 448 l 1,32,-1
 704 384 l 1,33,-1
 704 320 l 1,34,-1
 704 256 l 1,35,-1
 704 192 l 1,36,-1
 704 128 l 1,37,-1
 704 64 l 1,38,-1
 704 0 l 1,39,-1
 640 0 l 1,0,-1
128 128 m 1,40,-1
 64 128 l 1,41,-1
 0 128 l 1,42,-1
 0 192 l 1,43,-1
 0 256 l 1,44,-1
 0 320 l 1,45,-1
 0 384 l 1,46,-1
 0 448 l 1,47,-1
 0 512 l 1,48,-1
 64 512 l 1,49,-1
 128 512 l 1,50,-1
 128 448 l 1,51,-1
 128 384 l 1,52,-1
 128 320 l 1,53,-1
 128 256 l 1,54,-1
 128 192 l 1,55,-1
 128 128 l 1,40,-1
EndSplineSet
Validated: 5
EndChar

StartChar: x
Encoding: 120 120 91
Width: 704
GlyphClass: 1
Flags: W
LayerCount: 2
Fore
SplineSet
576 0 m 1,0,-1
 512 0 l 1,1,-1
 512 64 l 1,2,-1
 512 128 l 1,3,-1
 576 128 l 1,4,-1
 640 128 l 1,5,-1
 640 64 l 1,6,-1
 640 0 l 1,7,-1
 576 0 l 1,0,-1
64 0 m 1,8,-1
 0 0 l 1,9,-1
 0 64 l 1,10,-1
 0 128 l 1,11,-1
 64 128 l 1,12,-1
 128 128 l 1,13,-1
 128 64 l 1,14,-1
 128 0 l 1,15,-1
 64 0 l 1,8,-1
512 128 m 1,16,-1
 448 128 l 1,17,-1
 384 128 l 1,18,-1
 384 192 l 1,19,-1
 384 256 l 1,20,-1
 448 256 l 1,21,-1
 512 256 l 1,22,-1
 512 192 l 1,23,-1
 512 128 l 1,16,-1
128 128 m 1,24,-1
 128 192 l 1,25,-1
 128 256 l 1,26,-1
 192 256 l 1,27,-1
 256 256 l 1,28,-1
 256 192 l 1,29,-1
 256 128 l 1,30,-1
 192 128 l 1,31,-1
 128 128 l 1,24,-1
384 256 m 1,32,-1
 320 256 l 1,33,-1
 256 256 l 1,34,-1
 256 320 l 1,35,-1
 256 384 l 1,36,-1
 320 384 l 1,37,-1
 384 384 l 1,38,-1
 384 320 l 1,39,-1
 384 256 l 1,32,-1
384 384 m 1,40,-1
 384 448 l 1,41,-1
 384 512 l 1,42,-1
 448 512 l 1,43,-1
 512 512 l 1,44,-1
 512 448 l 1,45,-1
 512 384 l 1,46,-1
 448 384 l 1,47,-1
 384 384 l 1,40,-1
256 384 m 1,48,-1
 192 384 l 1,49,-1
 128 384 l 1,50,-1
 128 448 l 1,51,-1
 128 512 l 1,52,-1
 192 512 l 1,53,-1
 256 512 l 1,54,-1
 256 448 l 1,55,-1
 256 384 l 1,48,-1
512 512 m 1,56,-1
 512 576 l 1,57,-1
 512 640 l 1,58,-1
 576 640 l 1,59,-1
 640 640 l 1,60,-1
 640 576 l 1,61,-1
 640 512 l 1,62,-1
 576 512 l 1,63,-1
 512 512 l 1,56,-1
128 512 m 1,64,-1
 64 512 l 1,65,-1
 0 512 l 1,66,-1
 0 576 l 1,67,-1
 0 640 l 1,68,-1
 64 640 l 1,69,-1
 128 640 l 1,70,-1
 128 576 l 1,71,-1
 128 512 l 1,64,-1
EndSplineSet
Validated: 5
EndChar

StartChar: y
Encoding: 121 121 92
Width: 576
GlyphClass: 1
Flags: W
LayerCount: 2
Fore
SplineSet
320 -128 m 1,0,-1
 256 -128 l 1,1,-1
 192 -128 l 1,2,-1
 128 -128 l 1,3,-1
 64 -128 l 1,4,-1
 0 -128 l 1,5,-1
 0 -64 l 1,6,-1
 0 0 l 1,7,-1
 64 0 l 1,8,-1
 128 0 l 1,9,-1
 192 0 l 1,10,-1
 256 0 l 1,11,-1
 320 0 l 1,12,-1
 384 0 l 1,13,-1
 384 -64 l 1,14,-1
 384 -128 l 1,15,-1
 320 -128 l 1,0,-1
384 0 m 1,16,-1
 384 64 l 1,17,-1
 384 128 l 1,18,-1
 320 128 l 1,19,-1
 256 128 l 1,20,-1
 192 128 l 1,21,-1
 128 128 l 1,22,-1
 128 192 l 1,23,-1
 128 256 l 1,24,-1
 192 256 l 1,25,-1
 256 256 l 1,26,-1
 320 256 l 1,27,-1
 384 256 l 1,28,-1
 384 320 l 1,29,-1
 384 384 l 1,30,-1
 384 448 l 1,31,-1
 384 512 l 1,32,-1
 384 576 l 1,33,-1
 448 576 l 1,34,-1
 512 576 l 1,35,-1
 512 512 l 1,36,-1
 512 448 l 1,37,-1
 512 384 l 1,38,-1
 512 320 l 1,39,-1
 512 256 l 1,40,-1
 512 192 l 1,41,-1
 512 128 l 1,42,-1
 512 64 l 1,43,-1
 512 0 l 1,44,-1
 448 0 l 1,45,-1
 384 0 l 1,16,-1
128 256 m 1,46,-1
 64 256 l 1,47,-1
 0 256 l 1,48,-1
 0 320 l 1,49,-1
 0 384 l 1,50,-1
 0 448 l 1,51,-1
 0 512 l 1,52,-1
 0 576 l 1,53,-1
 64 576 l 1,54,-1
 128 576 l 1,55,-1
 128 512 l 1,56,-1
 128 448 l 1,57,-1
 128 384 l 1,58,-1
 128 320 l 1,59,-1
 128 256 l 1,46,-1
EndSplineSet
Validated: 5
EndChar

StartChar: z
Encoding: 122 122 93
Width: 576
GlyphClass: 1
Flags: W
LayerCount: 2
Fore
SplineSet
448 0 m 1,0,-1
 384 0 l 1,1,-1
 320 0 l 1,2,-1
 256 0 l 1,3,-1
 192 0 l 1,4,-1
 128 0 l 1,5,-1
 64 0 l 1,6,-1
 0 0 l 1,7,-1
 0 64 l 1,8,-1
 0 128 l 1,9,-1
 64 128 l 1,10,-1
 64 192 l 1,11,-1
 64 256 l 1,12,-1
 128 256 l 1,13,-1
 192 256 l 1,14,-1
 192 192 l 1,15,-1
 192 128 l 1,16,-1
 256 128 l 1,17,-1
 320 128 l 1,18,-1
 384 128 l 1,19,-1
 448 128 l 1,20,-1
 512 128 l 1,21,-1
 512 64 l 1,22,-1
 512 0 l 1,23,-1
 448 0 l 1,0,-1
192 256 m 1,24,-1
 192 320 l 1,25,-1
 192 384 l 1,26,-1
 256 384 l 1,27,-1
 320 384 l 1,28,-1
 320 320 l 1,29,-1
 320 256 l 1,30,-1
 256 256 l 1,31,-1
 192 256 l 1,24,-1
320 384 m 1,32,-1
 320 448 l 1,33,-1
 320 512 l 1,34,-1
 256 512 l 1,35,-1
 192 512 l 1,36,-1
 128 512 l 1,37,-1
 64 512 l 1,38,-1
 0 512 l 1,39,-1
 0 576 l 1,40,-1
 0 640 l 1,41,-1
 64 640 l 1,42,-1
 128 640 l 1,43,-1
 192 640 l 1,44,-1
 256 640 l 1,45,-1
 320 640 l 1,46,-1
 384 640 l 1,47,-1
 448 640 l 1,48,-1
 512 640 l 1,49,-1
 512 576 l 1,50,-1
 512 512 l 1,51,-1
 448 512 l 1,52,-1
 448 448 l 1,53,-1
 448 384 l 1,54,-1
 384 384 l 1,55,-1
 320 384 l 1,32,-1
EndSplineSet
Validated: 5
EndChar

StartChar: braceleft
Encoding: 123 123 94
Width: 384
GlyphClass: 1
Flags: W
LayerCount: 2
Fore
SplineSet
256 -256 m 1,0,-1
 192 -256 l 1,1,-1
 192 -192 l 1,2,-1
 192 -128 l 1,3,-1
 256 -128 l 1,4,-1
 320 -128 l 1,5,-1
 320 -192 l 1,6,-1
 320 -256 l 1,7,-1
 256 -256 l 1,0,-1
192 -128 m 1,8,-1
 128 -128 l 1,9,-1
 64 -128 l 1,10,-1
 64 -64 l 1,11,-1
 64 0 l 1,12,-1
 64 64 l 1,13,-1
 64 128 l 1,14,-1
 64 192 l 1,15,-1
 64 256 l 1,16,-1
 0 256 l 1,17,-1
 0 320 l 1,18,-1
 64 320 l 1,19,-1
 64 384 l 1,20,-1
 64 448 l 1,21,-1
 64 512 l 1,22,-1
 64 576 l 1,23,-1
 64 640 l 1,24,-1
 128 640 l 1,25,-1
 192 640 l 1,26,-1
 192 576 l 1,27,-1
 192 512 l 1,28,-1
 192 448 l 1,29,-1
 192 384 l 1,30,-1
 192 320 l 1,31,-1
 128 320 l 1,32,-1
 128 256 l 1,33,-1
 192 256 l 1,34,-1
 192 192 l 1,35,-1
 192 128 l 1,36,-1
 192 64 l 1,37,-1
 192 0 l 1,38,-1
 192 -64 l 1,39,-1
 192 -128 l 1,8,-1
192 640 m 1,40,-1
 192 704 l 1,41,-1
 192 768 l 1,42,-1
 256 768 l 1,43,-1
 320 768 l 1,44,-1
 320 704 l 1,45,-1
 320 640 l 1,46,-1
 256 640 l 1,47,-1
 192 640 l 1,40,-1
EndSplineSet
Validated: 5
EndChar

StartChar: bar
Encoding: 124 124 95
Width: 192
GlyphClass: 1
Flags: W
LayerCount: 2
Fore
SplineSet
64 -256 m 1,0,-1
 0 -256 l 1,1,-1
 0 -192 l 1,2,-1
 0 -128 l 1,3,-1
 0 -64 l 1,4,-1
 0 0 l 1,5,-1
 0 64 l 1,6,-1
 0 128 l 1,7,-1
 0 192 l 1,8,-1
 0 256 l 1,9,-1
 0 320 l 1,10,-1
 0 384 l 1,11,-1
 0 448 l 1,12,-1
 0 512 l 1,13,-1
 0 576 l 1,14,-1
 0 640 l 1,15,-1
 0 704 l 1,16,-1
 0 768 l 1,17,-1
 64 768 l 1,18,-1
 128 768 l 1,19,-1
 128 704 l 1,20,-1
 128 640 l 1,21,-1
 128 576 l 1,22,-1
 128 512 l 1,23,-1
 128 448 l 1,24,-1
 128 384 l 1,25,-1
 128 320 l 1,26,-1
 128 256 l 1,27,-1
 128 192 l 1,28,-1
 128 128 l 1,29,-1
 128 64 l 1,30,-1
 128 0 l 1,31,-1
 128 -64 l 1,32,-1
 128 -128 l 1,33,-1
 128 -192 l 1,34,-1
 128 -256 l 1,35,-1
 64 -256 l 1,0,-1
EndSplineSet
Validated: 1
EndChar

StartChar: braceright
Encoding: 125 125 96
Width: 384
GlyphClass: 1
Flags: W
LayerCount: 2
Fore
SplineSet
64 -256 m 1,0,-1
 0 -256 l 1,1,-1
 0 -192 l 1,2,-1
 0 -128 l 1,3,-1
 64 -128 l 1,4,-1
 128 -128 l 1,5,-1
 128 -192 l 1,6,-1
 128 -256 l 1,7,-1
 64 -256 l 1,0,-1
128 -128 m 1,8,-1
 128 -64 l 1,9,-1
 128 0 l 1,10,-1
 128 64 l 1,11,-1
 128 128 l 1,12,-1
 128 192 l 1,13,-1
 128 256 l 1,14,-1
 192 256 l 1,15,-1
 192 320 l 1,16,-1
 128 320 l 1,17,-1
 128 384 l 1,18,-1
 128 448 l 1,19,-1
 128 512 l 1,20,-1
 128 576 l 1,21,-1
 128 640 l 1,22,-1
 192 640 l 1,23,-1
 256 640 l 1,24,-1
 256 576 l 1,25,-1
 256 512 l 1,26,-1
 256 448 l 1,27,-1
 256 384 l 1,28,-1
 256 320 l 1,29,-1
 320 320 l 1,30,-1
 320 256 l 1,31,-1
 256 256 l 1,32,-1
 256 192 l 1,33,-1
 256 128 l 1,34,-1
 256 64 l 1,35,-1
 256 0 l 1,36,-1
 256 -64 l 1,37,-1
 256 -128 l 1,38,-1
 192 -128 l 1,39,-1
 128 -128 l 1,8,-1
128 640 m 1,40,-1
 64 640 l 1,41,-1
 0 640 l 1,42,-1
 0 704 l 1,43,-1
 0 768 l 1,44,-1
 64 768 l 1,45,-1
 128 768 l 1,46,-1
 128 704 l 1,47,-1
 128 640 l 1,40,-1
EndSplineSet
Validated: 5
EndChar

StartChar: asciitilde
Encoding: 126 126 97
Width: 704
GlyphClass: 1
Flags: W
LayerCount: 2
Fore
SplineSet
448 384 m 1,0,-1
 512 384 l 1,1,-1
 512 320 l 1,2,-1
 448 320 l 1,3,-1
 384 320 l 1,4,-1
 320 320 l 1,5,-1
 320 384 l 1,6,-1
 384 384 l 1,7,-1
 448 384 l 1,0,-1
64 384 m 1,8,-1
 128 384 l 1,9,-1
 128 320 l 1,10,-1
 64 320 l 1,11,-1
 0 320 l 1,12,-1
 0 384 l 1,13,-1
 64 384 l 1,8,-1
576 448 m 1,14,-1
 640 448 l 1,15,-1
 640 384 l 1,16,-1
 576 384 l 1,17,-1
 512 384 l 1,18,-1
 512 448 l 1,19,-1
 576 448 l 1,14,-1
320 384 m 1,20,-1
 256 384 l 1,21,-1
 192 384 l 1,22,-1
 128 384 l 1,23,-1
 128 448 l 1,24,-1
 192 448 l 1,25,-1
 256 448 l 1,26,-1
 320 448 l 1,27,-1
 320 384 l 1,20,-1
EndSplineSet
Validated: 5
EndChar

StartChar: exclamdown
Encoding: 161 161 99
Width: 384
GlyphClass: 1
Flags: W
LayerCount: 2
Fore
SplineSet
256 -192 m 1,0,-1
 192 -192 l 1,1,-1
 128 -192 l 1,2,-1
 64 -192 l 1,3,-1
 64 -128 l 1,4,-1
 128 -128 l 1,5,-1
 128 -64 l 1,6,-1
 128 0 l 1,7,-1
 128 64 l 1,8,-1
 128 128 l 1,9,-1
 128 192 l 1,10,-1
 128 256 l 1,11,-1
 128 320 l 1,12,-1
 192 320 l 1,13,-1
 256 320 l 1,14,-1
 256 256 l 1,15,-1
 256 192 l 1,16,-1
 256 128 l 1,17,-1
 256 64 l 1,18,-1
 256 0 l 1,19,-1
 256 -64 l 1,20,-1
 256 -128 l 1,21,-1
 320 -128 l 1,22,-1
 320 -192 l 1,23,-1
 256 -192 l 1,0,-1
192 384 m 5,24,-1
 128 384 l 5,25,-1
 128 448 l 5,26,-1
 128 512 l 5,27,-1
 192 512 l 5,28,-1
 256 512 l 5,29,-1
 256 448 l 5,30,-1
 256 384 l 5,31,-1
 192 384 l 5,24,-1
EndSplineSet
Validated: 1
EndChar

StartChar: cent
Encoding: 162 162 100
Width: 576
GlyphClass: 1
Flags: W
LayerCount: 2
Fore
SplineSet
0 -192 m 1,0,-1
 0 -128 l 1,1,-1
 0 -64 l 1,2,-1
 64 -64 l 1,3,-1
 64 -128 l 1,4,-1
 64 -192 l 1,5,-1
 0 -192 l 1,0,-1
64 -64 m 1,6,-1
 64 0 l 1,7,-1
 128 0 l 1,8,-1
 128 -64 l 1,9,-1
 64 -64 l 1,6,-1
320 0 m 1,10,-1
 256 0 l 1,11,-1
 192 0 l 1,12,-1
 128 0 l 1,13,-1
 128 64 l 1,14,-1
 128 128 l 1,15,-1
 64 128 l 1,16,-1
 0 128 l 1,17,-1
 0 192 l 1,18,-1
 0 256 l 1,19,-1
 0 320 l 1,20,-1
 0 384 l 1,21,-1
 0 448 l 1,22,-1
 0 512 l 1,23,-1
 64 512 l 1,24,-1
 128 512 l 1,25,-1
 128 448 l 1,26,-1
 128 384 l 1,27,-1
 128 320 l 1,28,-1
 128 256 l 1,29,-1
 128 192 l 1,30,-1
 192 192 l 1,31,-1
 192 128 l 1,32,-1
 256 128 l 1,33,-1
 320 128 l 1,34,-1
 384 128 l 1,35,-1
 384 64 l 1,36,-1
 384 0 l 1,37,-1
 320 0 l 1,10,-1
384 128 m 1,38,-1
 384 192 l 1,39,-1
 384 256 l 1,40,-1
 448 256 l 1,41,-1
 512 256 l 1,42,-1
 512 192 l 1,43,-1
 512 128 l 1,44,-1
 448 128 l 1,45,-1
 384 128 l 1,38,-1
192 192 m 1,46,-1
 192 256 l 1,47,-1
 192 320 l 1,48,-1
 256 320 l 1,49,-1
 256 256 l 1,50,-1
 256 192 l 1,51,-1
 192 192 l 1,46,-1
256 320 m 1,52,-1
 256 384 l 1,53,-1
 320 384 l 1,54,-1
 320 320 l 1,55,-1
 256 320 l 1,52,-1
448 384 m 1,56,-1
 384 384 l 1,57,-1
 320 384 l 1,58,-1
 320 448 l 1,59,-1
 320 512 l 1,60,-1
 256 512 l 1,61,-1
 192 512 l 1,62,-1
 128 512 l 1,63,-1
 128 576 l 1,64,-1
 128 640 l 1,65,-1
 192 640 l 1,66,-1
 256 640 l 1,67,-1
 320 640 l 1,68,-1
 384 640 l 1,69,-1
 384 576 l 1,70,-1
 384 512 l 1,71,-1
 448 512 l 1,72,-1
 512 512 l 1,73,-1
 512 448 l 1,74,-1
 512 384 l 1,75,-1
 448 384 l 1,56,-1
384 640 m 1,76,-1
 384 704 l 1,77,-1
 384 768 l 1,78,-1
 448 768 l 1,79,-1
 448 704 l 1,80,-1
 448 640 l 1,81,-1
 384 640 l 1,76,-1
EndSplineSet
Validated: 5
EndChar

StartChar: sterling
Encoding: 163 163 101
Width: 576
GlyphClass: 1
Flags: W
LayerCount: 2
Fore
SplineSet
448 0 m 1,0,-1
 384 0 l 1,1,-1
 320 0 l 1,2,-1
 256 0 l 1,3,-1
 192 0 l 1,4,-1
 128 0 l 1,5,-1
 64 0 l 1,6,-1
 0 0 l 1,7,-1
 0 64 l 1,8,-1
 0 128 l 1,9,-1
 64 128 l 1,10,-1
 64 192 l 1,11,-1
 128 192 l 1,12,-1
 128 256 l 1,13,-1
 128 320 l 1,14,-1
 64 320 l 1,15,-1
 0 320 l 1,16,-1
 0 384 l 1,17,-1
 0 448 l 1,18,-1
 64 448 l 1,19,-1
 64 512 l 1,20,-1
 64 576 l 1,21,-1
 64 640 l 1,22,-1
 128 640 l 1,23,-1
 128 704 l 1,24,-1
 192 704 l 1,25,-1
 192 768 l 1,26,-1
 256 768 l 1,27,-1
 320 768 l 1,28,-1
 384 768 l 1,29,-1
 384 704 l 1,30,-1
 448 704 l 1,31,-1
 448 640 l 1,32,-1
 512 640 l 1,33,-1
 512 576 l 1,34,-1
 512 512 l 1,35,-1
 448 512 l 1,36,-1
 384 512 l 1,37,-1
 384 576 l 1,38,-1
 384 640 l 1,39,-1
 320 640 l 1,40,-1
 256 640 l 1,41,-1
 192 640 l 1,42,-1
 192 576 l 1,43,-1
 192 512 l 1,44,-1
 192 448 l 1,45,-1
 256 448 l 1,46,-1
 320 448 l 1,47,-1
 384 448 l 1,48,-1
 384 384 l 1,49,-1
 384 320 l 1,50,-1
 320 320 l 1,51,-1
 256 320 l 1,52,-1
 256 256 l 1,53,-1
 256 192 l 1,54,-1
 192 192 l 1,55,-1
 192 128 l 1,56,-1
 256 128 l 1,57,-1
 320 128 l 1,58,-1
 384 128 l 1,59,-1
 448 128 l 1,60,-1
 512 128 l 1,61,-1
 512 64 l 1,62,-1
 512 0 l 1,63,-1
 448 0 l 1,0,-1
EndSplineSet
Validated: 1
EndChar

StartChar: currency
Encoding: 164 164 102
Width: 640
GlyphClass: 1
Flags: W
LayerCount: 2
Fore
SplineSet
512 64 m 1,0,-1
 512 128 l 1,1,-1
 576 128 l 1,2,-1
 576 64 l 1,3,-1
 512 64 l 1,0,-1
0 64 m 1,4,-1
 0 128 l 1,5,-1
 64 128 l 1,6,-1
 64 64 l 1,7,-1
 0 64 l 1,4,-1
512 128 m 1,8,-1
 448 128 l 1,9,-1
 448 192 l 1,10,-1
 512 192 l 1,11,-1
 512 128 l 1,8,-1
320 128 m 1,12,-1
 256 128 l 1,13,-1
 192 128 l 1,14,-1
 192 192 l 1,15,-1
 128 192 l 1,16,-1
 128 128 l 1,17,-1
 64 128 l 1,18,-1
 64 192 l 1,19,-1
 128 192 l 1,20,-1
 128 256 l 1,21,-1
 64 256 l 1,22,-1
 64 320 l 1,23,-1
 64 384 l 1,24,-1
 64 448 l 1,25,-1
 128 448 l 1,26,-1
 128 512 l 1,27,-1
 192 512 l 1,28,-1
 192 576 l 1,29,-1
 256 576 l 1,30,-1
 320 576 l 1,31,-1
 384 576 l 1,32,-1
 384 512 l 1,33,-1
 448 512 l 1,34,-1
 448 448 l 1,35,-1
 512 448 l 1,36,-1
 512 384 l 1,37,-1
 512 320 l 1,38,-1
 512 256 l 1,39,-1
 448 256 l 1,40,-1
 448 192 l 1,41,-1
 384 192 l 1,42,-1
 384 128 l 1,43,-1
 320 128 l 1,12,-1
320 256 m 1,44,-1
 384 256 l 1,45,-1
 384 320 l 1,46,-1
 384 384 l 1,47,-1
 384 448 l 1,48,-1
 320 448 l 1,49,-1
 256 448 l 1,50,-1
 192 448 l 1,51,-1
 192 384 l 1,52,-1
 192 320 l 1,53,-1
 192 256 l 1,54,-1
 256 256 l 1,55,-1
 320 256 l 1,44,-1
448 512 m 1,56,-1
 448 576 l 1,57,-1
 512 576 l 1,58,-1
 512 512 l 1,59,-1
 448 512 l 1,56,-1
128 512 m 1,60,-1
 64 512 l 1,61,-1
 64 576 l 1,62,-1
 128 576 l 1,63,-1
 128 512 l 1,60,-1
512 576 m 1,64,-1
 512 640 l 1,65,-1
 576 640 l 1,66,-1
 576 576 l 1,67,-1
 512 576 l 1,64,-1
64 576 m 1,68,-1
 0 576 l 1,69,-1
 0 640 l 1,70,-1
 64 640 l 1,71,-1
 64 576 l 1,68,-1
EndSplineSet
Validated: 5
EndChar

StartChar: yen
Encoding: 165 165 103
Width: 640
GlyphClass: 1
Flags: W
LayerCount: 2
Fore
SplineSet
256 -64 m 1,0,-1
 256 0 l 1,1,-1
 256 64 l 1,2,-1
 192 64 l 1,3,-1
 128 64 l 1,4,-1
 64 64 l 1,5,-1
 0 64 l 1,6,-1
 0 128 l 1,7,-1
 0 192 l 1,8,-1
 64 192 l 1,9,-1
 128 192 l 1,10,-1
 192 192 l 1,11,-1
 256 192 l 1,12,-1
 256 256 l 1,13,-1
 192 256 l 1,14,-1
 128 256 l 1,15,-1
 64 256 l 1,16,-1
 0 256 l 1,17,-1
 0 320 l 1,18,-1
 0 384 l 1,19,-1
 64 384 l 1,20,-1
 128 384 l 1,21,-1
 192 384 l 1,22,-1
 192 448 l 1,23,-1
 256 448 l 1,24,-1
 320 448 l 1,25,-1
 384 448 l 1,26,-1
 384 384 l 1,27,-1
 448 384 l 1,28,-1
 512 384 l 1,29,-1
 576 384 l 1,30,-1
 576 320 l 1,31,-1
 576 256 l 1,32,-1
 512 256 l 1,33,-1
 448 256 l 1,34,-1
 384 256 l 1,35,-1
 320 256 l 1,36,-1
 320 192 l 1,37,-1
 384 192 l 1,38,-1
 448 192 l 1,39,-1
 512 192 l 1,40,-1
 576 192 l 1,41,-1
 576 128 l 1,42,-1
 576 64 l 1,43,-1
 512 64 l 1,44,-1
 448 64 l 1,45,-1
 384 64 l 1,46,-1
 320 64 l 1,47,-1
 320 0 l 1,48,-1
 320 -64 l 1,49,-1
 256 -64 l 1,0,-1
384 448 m 1,50,-1
 384 512 l 1,51,-1
 448 512 l 1,52,-1
 448 448 l 1,53,-1
 384 448 l 1,50,-1
192 448 m 1,54,-1
 128 448 l 1,55,-1
 128 512 l 1,56,-1
 192 512 l 1,57,-1
 192 448 l 1,54,-1
448 512 m 1,58,-1
 448 576 l 1,59,-1
 512 576 l 1,60,-1
 512 512 l 1,61,-1
 448 512 l 1,58,-1
128 512 m 1,62,-1
 64 512 l 1,63,-1
 64 576 l 1,64,-1
 128 576 l 1,65,-1
 128 512 l 1,62,-1
512 576 m 1,66,-1
 512 640 l 1,67,-1
 512 704 l 1,68,-1
 576 704 l 1,69,-1
 576 640 l 1,70,-1
 576 576 l 1,71,-1
 512 576 l 1,66,-1
64 576 m 1,72,-1
 0 576 l 1,73,-1
 0 640 l 1,74,-1
 0 704 l 1,75,-1
 64 704 l 1,76,-1
 64 640 l 1,77,-1
 64 576 l 1,72,-1
EndSplineSet
Validated: 5
EndChar

StartChar: brokenbar
Encoding: 166 166 104
Width: 256
GlyphClass: 1
Flags: W
LayerCount: 2
Fore
SplineSet
128 -256 m 1,0,-1
 64 -256 l 1,1,-1
 64 -192 l 1,2,-1
 64 -128 l 1,3,-1
 64 -64 l 1,4,-1
 64 0 l 1,5,-1
 64 64 l 1,6,-1
 64 128 l 1,7,-1
 64 192 l 1,8,-1
 128 192 l 1,9,-1
 192 192 l 1,10,-1
 192 128 l 1,11,-1
 192 64 l 1,12,-1
 192 0 l 1,13,-1
 192 -64 l 1,14,-1
 192 -128 l 1,15,-1
 192 -192 l 1,16,-1
 192 -256 l 1,17,-1
 128 -256 l 1,0,-1
128 320 m 1,18,-1
 64 320 l 1,19,-1
 64 384 l 1,20,-1
 64 448 l 1,21,-1
 64 512 l 1,22,-1
 64 576 l 1,23,-1
 64 640 l 1,24,-1
 64 704 l 1,25,-1
 64 768 l 1,26,-1
 128 768 l 1,27,-1
 192 768 l 1,28,-1
 192 704 l 1,29,-1
 192 640 l 1,30,-1
 192 576 l 1,31,-1
 192 512 l 1,32,-1
 192 448 l 1,33,-1
 192 384 l 1,34,-1
 192 320 l 1,35,-1
 128 320 l 1,18,-1
EndSplineSet
Validated: 1
EndChar

StartChar: section
Encoding: 167 167 105
Width: 576
GlyphClass: 1
Flags: W
LayerCount: 2
Fore
SplineSet
384 576 m 1,0,-1
 384 640 l 1,1,-1
 448 640 l 1,2,-1
 448 576 l 1,3,-1
 384 576 l 1,0,-1
320 -128 m 1,4,-1
 384 -128 l 1,5,-1
 384 -192 l 1,6,-1
 320 -192 l 1,7,-1
 256 -192 l 1,8,-1
 192 -192 l 1,9,-1
 192 -128 l 1,10,-1
 256 -128 l 1,11,-1
 320 -128 l 1,4,-1
384 -128 m 1,12,-1
 384 -64 l 1,13,-1
 384 0 l 1,14,-1
 384 64 l 1,15,-1
 448 64 l 1,16,-1
 448 0 l 1,17,-1
 448 -64 l 1,18,-1
 448 -128 l 1,19,-1
 384 -128 l 1,12,-1
192 -128 m 1,20,-1
 128 -128 l 1,21,-1
 128 -64 l 1,22,-1
 192 -64 l 1,23,-1
 192 -128 l 1,20,-1
128 -64 m 1,24,-1
 64 -64 l 1,25,-1
 64 0 l 1,26,-1
 128 0 l 1,27,-1
 128 -64 l 1,24,-1
384 64 m 1,28,-1
 320 64 l 1,29,-1
 320 128 l 1,30,-1
 384 128 l 1,31,-1
 384 64 l 1,28,-1
384 128 m 1,32,-1
 384 192 l 1,33,-1
 448 192 l 1,34,-1
 448 128 l 1,35,-1
 384 128 l 1,32,-1
320 128 m 1,36,-1
 256 128 l 1,37,-1
 192 128 l 1,38,-1
 192 192 l 1,39,-1
 256 192 l 1,40,-1
 320 192 l 1,41,-1
 320 128 l 1,36,-1
448 192 m 1,42,-1
 448 256 l 1,43,-1
 512 256 l 1,44,-1
 512 192 l 1,45,-1
 448 192 l 1,42,-1
192 192 m 1,46,-1
 128 192 l 1,47,-1
 128 256 l 1,48,-1
 192 256 l 1,49,-1
 192 192 l 1,46,-1
448 256 m 1,50,-1
 384 256 l 1,51,-1
 384 320 l 1,52,-1
 448 320 l 1,53,-1
 448 256 l 1,50,-1
128 256 m 1,54,-1
 64 256 l 1,55,-1
 64 320 l 1,56,-1
 64 384 l 1,57,-1
 128 384 l 1,58,-1
 128 320 l 1,59,-1
 128 256 l 1,54,-1
384 320 m 1,60,-1
 320 320 l 1,61,-1
 320 384 l 1,62,-1
 384 384 l 1,63,-1
 384 320 l 1,60,-1
320 384 m 1,64,-1
 256 384 l 1,65,-1
 256 448 l 1,66,-1
 320 448 l 1,67,-1
 320 384 l 1,64,-1
128 384 m 1,68,-1
 128 448 l 1,69,-1
 192 448 l 1,70,-1
 192 384 l 1,71,-1
 128 384 l 1,68,-1
256 448 m 1,72,-1
 192 448 l 1,73,-1
 192 512 l 1,74,-1
 256 512 l 1,75,-1
 256 448 l 1,72,-1
192 512 m 1,76,-1
 128 512 l 1,77,-1
 128 576 l 1,78,-1
 128 640 l 1,79,-1
 192 640 l 1,80,-1
 192 576 l 1,81,-1
 192 512 l 1,76,-1
384 640 m 1,82,-1
 320 640 l 1,83,-1
 256 640 l 1,84,-1
 192 640 l 1,85,-1
 192 704 l 1,86,-1
 256 704 l 1,87,-1
 320 704 l 1,88,-1
 384 704 l 1,89,-1
 384 640 l 1,82,-1
EndSplineSet
Validated: 5
EndChar

StartChar: dieresis
Encoding: 168 168 106
Width: 384
GlyphClass: 1
Flags: W
LayerCount: 2
Fore
SplineSet
256 640 m 1,0,-1
 192 640 l 1,1,-1
 192 704 l 1,2,-1
 192 768 l 1,3,-1
 256 768 l 1,4,-1
 320 768 l 1,5,-1
 320 704 l 1,6,-1
 320 640 l 1,7,-1
 256 640 l 1,0,-1
64 640 m 1,8,-1
 0 640 l 1,9,-1
 0 704 l 1,10,-1
 0 768 l 1,11,-1
 64 768 l 1,12,-1
 128 768 l 1,13,-1
 128 704 l 1,14,-1
 128 640 l 1,15,-1
 64 640 l 1,8,-1
EndSplineSet
Validated: 1
EndChar

StartChar: copyright
Encoding: 169 169 107
Width: 832
GlyphClass: 1
Flags: W
LayerCount: 2
Fore
SplineSet
448 448 m 1,0,-1
 448 512 l 1,1,-1
 512 512 l 1,2,-1
 512 448 l 1,3,-1
 448 448 l 1,0,-1
448 64 m 1,4,-1
 512 64 l 1,5,-1
 512 0 l 1,6,-1
 448 0 l 1,7,-1
 384 0 l 1,8,-1
 320 0 l 1,9,-1
 256 0 l 1,10,-1
 256 64 l 1,11,-1
 320 64 l 1,12,-1
 384 64 l 1,13,-1
 448 64 l 1,4,-1
512 64 m 1,14,-1
 512 128 l 1,15,-1
 576 128 l 1,16,-1
 576 64 l 1,17,-1
 512 64 l 1,14,-1
256 64 m 1,18,-1
 192 64 l 1,19,-1
 192 128 l 1,20,-1
 256 128 l 1,21,-1
 256 64 l 1,18,-1
576 128 m 1,22,-1
 576 192 l 1,23,-1
 640 192 l 1,24,-1
 640 128 l 1,25,-1
 576 128 l 1,22,-1
384 192 m 1,26,-1
 448 192 l 1,27,-1
 448 128 l 1,28,-1
 384 128 l 1,29,-1
 320 128 l 1,30,-1
 320 192 l 1,31,-1
 384 192 l 1,26,-1
192 128 m 1,32,-1
 128 128 l 1,33,-1
 128 192 l 1,34,-1
 192 192 l 1,35,-1
 192 128 l 1,32,-1
640 192 m 1,36,-1
 640 256 l 1,37,-1
 704 256 l 1,38,-1
 704 192 l 1,39,-1
 640 192 l 1,36,-1
448 192 m 1,40,-1
 448 256 l 1,41,-1
 512 256 l 1,42,-1
 512 192 l 1,43,-1
 448 192 l 1,40,-1
320 192 m 1,44,-1
 256 192 l 1,45,-1
 256 256 l 1,46,-1
 320 256 l 1,47,-1
 320 192 l 1,44,-1
128 192 m 1,48,-1
 64 192 l 1,49,-1
 64 256 l 1,50,-1
 128 256 l 1,51,-1
 128 192 l 1,48,-1
704 256 m 1,52,-1
 704 320 l 1,53,-1
 704 384 l 1,54,-1
 704 448 l 1,55,-1
 704 512 l 1,56,-1
 768 512 l 1,57,-1
 768 448 l 1,58,-1
 768 384 l 1,59,-1
 768 320 l 1,60,-1
 768 256 l 1,61,-1
 704 256 l 1,52,-1
256 256 m 1,62,-1
 192 256 l 1,63,-1
 192 320 l 1,64,-1
 192 384 l 1,65,-1
 192 448 l 1,66,-1
 256 448 l 1,67,-1
 256 384 l 1,68,-1
 256 320 l 1,69,-1
 256 256 l 1,62,-1
64 256 m 1,70,-1
 0 256 l 1,71,-1
 0 320 l 1,72,-1
 0 384 l 1,73,-1
 0 448 l 1,74,-1
 0 512 l 1,75,-1
 64 512 l 1,76,-1
 64 448 l 1,77,-1
 64 384 l 1,78,-1
 64 320 l 1,79,-1
 64 256 l 1,70,-1
256 448 m 1,80,-1
 256 512 l 1,81,-1
 320 512 l 1,82,-1
 320 448 l 1,83,-1
 256 448 l 1,80,-1
704 512 m 1,84,-1
 640 512 l 1,85,-1
 640 576 l 1,86,-1
 704 576 l 1,87,-1
 704 512 l 1,84,-1
448 512 m 1,88,-1
 384 512 l 1,89,-1
 320 512 l 1,90,-1
 320 576 l 1,91,-1
 384 576 l 1,92,-1
 448 576 l 1,93,-1
 448 512 l 1,88,-1
64 512 m 1,94,-1
 64 576 l 1,95,-1
 128 576 l 1,96,-1
 128 512 l 1,97,-1
 64 512 l 1,94,-1
640 576 m 1,98,-1
 576 576 l 1,99,-1
 576 640 l 1,100,-1
 640 640 l 1,101,-1
 640 576 l 1,98,-1
128 576 m 1,102,-1
 128 640 l 1,103,-1
 192 640 l 1,104,-1
 192 576 l 1,105,-1
 128 576 l 1,102,-1
576 640 m 1,106,-1
 512 640 l 1,107,-1
 512 704 l 1,108,-1
 576 704 l 1,109,-1
 576 640 l 1,106,-1
192 640 m 1,110,-1
 192 704 l 1,111,-1
 256 704 l 1,112,-1
 256 640 l 1,113,-1
 192 640 l 1,110,-1
512 704 m 1,114,-1
 448 704 l 1,115,-1
 384 704 l 1,116,-1
 320 704 l 1,117,-1
 256 704 l 1,118,-1
 256 768 l 1,119,-1
 320 768 l 1,120,-1
 384 768 l 1,121,-1
 448 768 l 1,122,-1
 512 768 l 1,123,-1
 512 704 l 1,114,-1
EndSplineSet
Validated: 5
EndChar

StartChar: Euro
Encoding: 8364 8364 108
Width: 640
GlyphClass: 1
Flags: W
LayerCount: 2
Fore
SplineSet
384 -64 m 1,0,-1
 320 -64 l 1,1,-1
 256 -64 l 1,2,-1
 256 0 l 1,3,-1
 192 0 l 1,4,-1
 192 64 l 1,5,-1
 128 64 l 1,6,-1
 128 128 l 1,7,-1
 64 128 l 1,8,-1
 64 192 l 1,9,-1
 0 192 l 1,10,-1
 0 256 l 1,11,-1
 0 320 l 1,12,-1
 64 320 l 1,13,-1
 64 384 l 1,14,-1
 0 384 l 1,15,-1
 0 448 l 1,16,-1
 0 512 l 1,17,-1
 64 512 l 1,18,-1
 64 576 l 1,19,-1
 64 640 l 1,20,-1
 128 640 l 1,21,-1
 128 704 l 1,22,-1
 192 704 l 1,23,-1
 192 768 l 1,24,-1
 256 768 l 1,25,-1
 320 768 l 1,26,-1
 384 768 l 1,27,-1
 448 768 l 1,28,-1
 448 704 l 1,29,-1
 512 704 l 1,30,-1
 576 704 l 1,31,-1
 576 640 l 1,32,-1
 576 576 l 1,33,-1
 512 576 l 1,34,-1
 448 576 l 1,35,-1
 448 640 l 1,36,-1
 384 640 l 1,37,-1
 320 640 l 1,38,-1
 256 640 l 1,39,-1
 256 576 l 1,40,-1
 192 576 l 1,41,-1
 192 512 l 1,42,-1
 256 512 l 1,43,-1
 320 512 l 1,44,-1
 384 512 l 1,45,-1
 448 512 l 1,46,-1
 512 512 l 1,47,-1
 512 448 l 1,48,-1
 512 384 l 1,49,-1
 448 384 l 1,50,-1
 384 384 l 1,51,-1
 320 384 l 1,52,-1
 256 384 l 1,53,-1
 192 384 l 1,54,-1
 192 320 l 1,55,-1
 256 320 l 1,56,-1
 320 320 l 1,57,-1
 384 320 l 1,58,-1
 448 320 l 1,59,-1
 448 256 l 1,60,-1
 448 192 l 1,61,-1
 384 192 l 1,62,-1
 320 192 l 1,63,-1
 256 192 l 1,64,-1
 192 192 l 1,65,-1
 192 128 l 1,66,-1
 256 128 l 1,67,-1
 256 64 l 1,68,-1
 320 64 l 1,69,-1
 384 64 l 1,70,-1
 448 64 l 1,71,-1
 448 128 l 1,72,-1
 512 128 l 1,73,-1
 512 64 l 1,74,-1
 512 0 l 1,75,-1
 448 0 l 1,76,-1
 448 -64 l 1,77,-1
 384 -64 l 1,0,-1
EndSplineSet
Validated: 1
EndChar

StartChar: Idotaccent
Encoding: 304 304 110
Width: 376
Flags: W
LayerCount: 2
Fore
SplineSet
248 451 m 1,0,-1
 248 384 l 1,1,-1
 248 320 l 1,2,-1
 248 256 l 1,3,-1
 248 192 l 1,4,-1
 248 128 l 1,5,-1
 312 128 l 1,6,-1
 312 64 l 1,7,-1
 312 0 l 1,8,-1
 248 0 l 1,9,-1
 184 0 l 1,10,-1
 120 0 l 1,11,-1
 56 0 l 1,12,-1
 56 64 l 1,13,-1
 56 128 l 1,14,-1
 120 128 l 1,15,-1
 120 192 l 1,16,-1
 120 256 l 1,17,-1
 120 320 l 1,18,-1
 120 384 l 1,19,-1
 120 451 l 1,20,-1
 56 451 l 1,21,-1
 56 515 l 1,22,-1
 56 579 l 1,23,-1
 120 579 l 1,24,-1
 184 579 l 1,25,-1
 248 579 l 1,26,-1
 312 579 l 1,27,-1
 312 515 l 1,28,-1
 312 451 l 1,29,-1
 248 451 l 1,0,-1
184 642 m 1,30,-1
 120 642 l 1,31,-1
 120 706 l 1,32,-1
 120 770 l 1,33,-1
 184 770 l 1,34,-1
 248 770 l 1,35,-1
 248 706 l 1,36,-1
 248 642 l 1,37,-1
 184 642 l 1,30,-1
EndSplineSet
Validated: 1
EndChar

StartChar: dotlessi
Encoding: 305 305 111
Width: 192
Flags: W
LayerCount: 2
Fore
SplineSet
64 0 m 5,0,-1
 0 0 l 5,1,-1
 0 64 l 5,2,-1
 0 128 l 5,3,-1
 0 192 l 5,4,-1
 0 256 l 5,5,-1
 0 320 l 5,6,-1
 0 384 l 5,7,-1
 0 448 l 5,8,-1
 0 512 l 5,9,-1
 0 576 l 5,10,-1
 64 576 l 5,11,-1
 128 576 l 5,12,-1
 128 512 l 5,13,-1
 128 448 l 5,14,-1
 128 384 l 5,15,-1
 128 320 l 5,16,-1
 128 256 l 5,17,-1
 128 192 l 5,18,-1
 128 128 l 5,19,-1
 128 64 l 5,20,-1
 128 0 l 5,21,-1
 64 0 l 5,0,-1
EndSplineSet
Validated: 1
EndChar

StartChar: Odieresis
Encoding: 214 214 112
Width: 832
Flags: W
LayerCount: 2
Fore
SplineSet
546 643 m 1,0,-1
 482 643 l 1,1,-1
 482 707 l 1,2,-1
 482 771 l 1,3,-1
 546 771 l 1,4,-1
 610 771 l 1,5,-1
 610 707 l 1,6,-1
 610 643 l 1,7,-1
 546 643 l 1,0,-1
290 640 m 1,8,-1
 226 640 l 1,9,-1
 226 704 l 1,10,-1
 226 768 l 1,11,-1
 290 768 l 1,12,-1
 354 768 l 1,13,-1
 354 704 l 1,14,-1
 354 640 l 1,15,-1
 290 640 l 1,8,-1
610 0 m 1,16,-1
 546 0 l 1,17,-1
 482 0 l 1,18,-1
 418 0 l 1,19,-1
 354 0 l 1,20,-1
 290 0 l 1,21,-1
 226 0 l 1,22,-1
 162 0 l 1,23,-1
 162 64 l 1,24,-1
 162 128 l 1,25,-1
 226 128 l 1,26,-1
 290 128 l 1,27,-1
 354 128 l 1,28,-1
 418 128 l 1,29,-1
 482 128 l 1,30,-1
 546 128 l 1,31,-1
 610 128 l 1,32,-1
 674 128 l 1,33,-1
 674 64 l 1,34,-1
 674 0 l 1,35,-1
 610 0 l 1,16,-1
674 128 m 1,36,-1
 674 192 l 1,37,-1
 674 256 l 1,38,-1
 674 320 l 1,39,-1
 674 320 l 1,40,-1
 674 384 l 1,41,-1
 674 320 l 1,42,-1
 674 384 l 1,43,-1
 674 448 l 1,44,-1
 738 448 l 1,45,-1
 802 448 l 1,46,-1
 802 384 l 1,47,-1
 802 320 l 1,48,-1
 802 384 l 1,49,-1
 802 320 l 1,50,-1
 802 320 l 1,51,-1
 802 256 l 1,52,-1
 802 192 l 1,53,-1
 802 128 l 1,54,-1
 738 128 l 1,55,-1
 674 128 l 1,36,-1
162 128 m 1,56,-1
 98 128 l 1,57,-1
 34 128 l 1,58,-1
 34 192 l 1,59,-1
 34 256 l 1,60,-1
 34 320 l 1,61,-1
 34 320 l 1,62,-1
 34 384 l 1,63,-1
 34 320 l 1,64,-1
 34 384 l 1,65,-1
 34 448 l 1,66,-1
 98 448 l 1,67,-1
 162 448 l 1,68,-1
 162 384 l 1,69,-1
 162 320 l 1,70,-1
 162 384 l 1,71,-1
 162 320 l 1,72,-1
 162 320 l 1,73,-1
 162 256 l 1,74,-1
 162 192 l 1,75,-1
 162 128 l 1,56,-1
674 448 m 1,76,-1
 610 448 l 1,77,-1
 546 448 l 1,78,-1
 482 448 l 1,79,-1
 418 448 l 1,80,-1
 354 448 l 1,81,-1
 290 448 l 1,82,-1
 226 448 l 1,83,-1
 162 448 l 1,84,-1
 162 512 l 1,85,-1
 162 576 l 1,86,-1
 226 576 l 1,87,-1
 290 576 l 1,88,-1
 354 576 l 1,89,-1
 418 576 l 1,90,-1
 482 576 l 1,91,-1
 546 576 l 1,92,-1
 610 576 l 1,93,-1
 674 576 l 1,94,-1
 674 512 l 1,95,-1
 674 448 l 1,76,-1
EndSplineSet
Validated: 5
EndChar

StartChar: odieresis
Encoding: 246 246 113
Width: 576
Flags: W
LayerCount: 2
Fore
SplineSet
397 643 m 1,0,-1
 333 643 l 1,1,-1
 333 707 l 1,2,-1
 333 771 l 1,3,-1
 397 771 l 1,4,-1
 461 771 l 1,5,-1
 461 707 l 1,6,-1
 461 643 l 1,7,-1
 397 643 l 1,0,-1
141 640 m 1,8,-1
 77 640 l 1,9,-1
 77 704 l 1,10,-1
 77 768 l 1,11,-1
 141 768 l 1,12,-1
 205 768 l 1,13,-1
 205 704 l 1,14,-1
 205 640 l 1,15,-1
 141 640 l 1,8,-1
320 0 m 1,16,-1
 256 0 l 1,17,-1
 192 0 l 1,18,-1
 128 0 l 1,19,-1
 128 64 l 1,20,-1
 128 128 l 1,21,-1
 192 128 l 1,22,-1
 256 128 l 1,23,-1
 320 128 l 1,24,-1
 384 128 l 1,25,-1
 384 64 l 1,26,-1
 384 0 l 1,27,-1
 320 0 l 1,16,-1
384 128 m 1,28,-1
 384 192 l 1,29,-1
 384 256 l 1,30,-1
 384 320 l 1,31,-1
 384 384 l 1,32,-1
 384 448 l 1,33,-1
 448 448 l 1,34,-1
 512 448 l 1,35,-1
 512 384 l 1,36,-1
 512 320 l 1,37,-1
 512 256 l 1,38,-1
 512 192 l 1,39,-1
 512 128 l 1,40,-1
 448 128 l 1,41,-1
 384 128 l 1,28,-1
128 128 m 1,42,-1
 64 128 l 1,43,-1
 0 128 l 1,44,-1
 0 192 l 1,45,-1
 0 256 l 1,46,-1
 0 320 l 1,47,-1
 0 384 l 1,48,-1
 0 448 l 1,49,-1
 64 448 l 1,50,-1
 128 448 l 1,51,-1
 128 384 l 1,52,-1
 128 320 l 1,53,-1
 128 256 l 1,54,-1
 128 192 l 1,55,-1
 128 128 l 1,42,-1
384 448 m 1,56,-1
 320 448 l 1,57,-1
 256 448 l 1,58,-1
 192 448 l 1,59,-1
 128 448 l 1,60,-1
 128 512 l 1,61,-1
 128 576 l 1,62,-1
 192 576 l 1,63,-1
 256 576 l 1,64,-1
 320 576 l 1,65,-1
 384 576 l 1,66,-1
 384 512 l 1,67,-1
 384 448 l 1,56,-1
EndSplineSet
Validated: 5
EndChar

StartChar: Udieresis
Encoding: 220 220 114
Width: 704
Flags: W
LayerCount: 2
Fore
SplineSet
481 651 m 5,0,-1
 417 651 l 5,1,-1
 417 715 l 5,2,-1
 417 779 l 5,3,-1
 481 779 l 5,4,-1
 545 779 l 5,5,-1
 545 715 l 5,6,-1
 545 651 l 5,7,-1
 481 651 l 5,0,-1
225 648 m 5,8,-1
 161 648 l 5,9,-1
 161 712 l 5,10,-1
 161 776 l 5,11,-1
 225 776 l 5,12,-1
 289 776 l 5,13,-1
 289 712 l 5,14,-1
 289 648 l 5,15,-1
 225 648 l 5,8,-1
448 -184 m 1,16,-1
 384 -184 l 1,17,-1
 320 -184 l 1,18,-1
 256 -184 l 1,19,-1
 192 -184 l 1,20,-1
 192 -120 l 1,21,-1
 192 -56 l 1,22,-1
 256 -56 l 1,23,-1
 320 -56 l 1,24,-1
 384 -56 l 1,25,-1
 448 -56 l 1,26,-1
 512 -56 l 1,27,-1
 512 -120 l 1,28,-1
 512 -184 l 1,29,-1
 448 -184 l 1,16,-1
512 -56 m 1,30,-1
 512 8 l 1,31,-1
 512 72 l 1,32,-1
 512 136 l 1,33,-1
 512 200 l 1,34,-1
 512 264 l 1,35,-1
 512 328 l 1,36,-1
 512 392 l 1,37,-1
 512 456 l 1,38,-1
 512 520 l 1,39,-1
 512 584 l 1,40,-1
 576 584 l 1,41,-1
 640 584 l 1,42,-1
 640 520 l 1,43,-1
 640 456 l 1,44,-1
 640 392 l 1,45,-1
 640 328 l 1,46,-1
 640 264 l 1,47,-1
 640 200 l 1,48,-1
 640 136 l 1,49,-1
 640 72 l 1,50,-1
 640 8 l 1,51,-1
 640 -56 l 1,52,-1
 576 -56 l 1,53,-1
 512 -56 l 1,30,-1
192 -56 m 1,54,-1
 128 -56 l 1,55,-1
 64 -56 l 1,56,-1
 64 8 l 1,57,-1
 64 72 l 1,58,-1
 64 136 l 1,59,-1
 64 200 l 1,60,-1
 64 264 l 1,61,-1
 64 328 l 1,62,-1
 64 392 l 1,63,-1
 64 456 l 1,64,-1
 64 520 l 1,65,-1
 64 584 l 1,66,-1
 128 584 l 1,67,-1
 192 584 l 1,68,-1
 192 520 l 1,69,-1
 192 456 l 1,70,-1
 192 392 l 1,71,-1
 192 328 l 1,72,-1
 192 264 l 1,73,-1
 192 200 l 1,74,-1
 192 136 l 1,75,-1
 192 72 l 1,76,-1
 192 8 l 1,77,-1
 192 -56 l 1,54,-1
EndSplineSet
Validated: 5
EndChar

StartChar: udieresis
Encoding: 252 252 115
Width: 576
Flags: W
LayerCount: 2
Fore
SplineSet
321 640 m 5,0,-1
 257 640 l 5,1,-1
 257 704 l 5,2,-1
 257 768 l 5,3,-1
 321 768 l 5,4,-1
 385 768 l 5,5,-1
 385 704 l 5,6,-1
 385 640 l 5,7,-1
 321 640 l 5,0,-1
65 637 m 5,8,-1
 1 637 l 5,9,-1
 1 701 l 5,10,-1
 1 765 l 5,11,-1
 65 765 l 5,12,-1
 129 765 l 5,13,-1
 129 701 l 5,14,-1
 129 637 l 5,15,-1
 65 637 l 5,8,-1
448 0 m 1,16,-1
 384 0 l 1,17,-1
 320 0 l 1,18,-1
 256 0 l 1,19,-1
 192 0 l 1,20,-1
 128 0 l 1,21,-1
 128 64 l 1,22,-1
 128 128 l 1,23,-1
 192 128 l 1,24,-1
 256 128 l 1,25,-1
 320 128 l 1,26,-1
 384 128 l 1,27,-1
 384 192 l 1,28,-1
 384 256 l 1,29,-1
 384 320 l 1,30,-1
 384 384 l 1,31,-1
 384 448 l 1,32,-1
 384 512 l 1,33,-1
 384 576 l 1,34,-1
 448 576 l 1,35,-1
 512 576 l 1,36,-1
 512 512 l 1,37,-1
 512 448 l 1,38,-1
 512 384 l 1,39,-1
 512 320 l 1,40,-1
 512 256 l 1,41,-1
 512 192 l 1,42,-1
 512 128 l 1,43,-1
 512 64 l 1,44,-1
 512 0 l 1,45,-1
 448 0 l 1,16,-1
128 128 m 1,46,-1
 64 128 l 1,47,-1
 0 128 l 1,48,-1
 0 192 l 1,49,-1
 0 256 l 1,50,-1
 0 320 l 1,51,-1
 0 384 l 1,52,-1
 0 448 l 1,53,-1
 0 512 l 1,54,-1
 0 576 l 1,55,-1
 64 576 l 1,56,-1
 128 576 l 1,57,-1
 128 512 l 1,58,-1
 128 448 l 1,59,-1
 128 384 l 1,60,-1
 128 320 l 1,61,-1
 128 256 l 1,62,-1
 128 192 l 1,63,-1
 128 128 l 1,46,-1
EndSplineSet
Validated: 5
EndChar

StartChar: Ccedilla
Encoding: 199 199 116
Width: 768
Flags: W
LayerCount: 2
Fore
SplineSet
256 -256 m 1,0,-1
 192 -256 l 1,1,-1
 192 -192 l 1,2,-1
 192 -128 l 1,3,-1
 256 -128 l 1,4,-1
 320 -128 l 1,5,-1
 320 -192 l 1,6,-1
 320 -256 l 1,7,-1
 256 -256 l 1,0,-1
320 -128 m 1,8,-1
 256 -128 l 1,9,-1
 192 -128 l 1025,10,-1
256 -256 m 1,11,-1
 192 -256 l 1,12,-1
 192 -192 l 1,13,-1
 192 -128 l 1,14,-1
 256 -128 l 1,15,-1
 320 -128 l 1,16,-1
 320 -192 l 1,17,-1
 320 -256 l 1,18,-1
 256 -256 l 1,11,-1
320 -128 m 1,19,-1
 256 -128 l 1,20,-1
 192 -128 l 1025,21,-1
256 -256 m 1,22,-1
 192 -256 l 1,23,-1
 192 -192 l 1,24,-1
 192 -128 l 1,25,-1
 256 -128 l 1,26,-1
 320 -128 l 1,27,-1
 320 -192 l 1,28,-1
 320 -256 l 1,29,-1
 256 -256 l 1,22,-1
256 -128 m 1,30,-1
 320 -128 l 1025,31,-1
320 -128 m 1,32,-1
 256 -128 l 1,33,-1
 192 -128 l 1025,34,-1
320 -128 m 1,35,-1
 256 -128 l 1,36,-1
 192 -128 l 1025,37,-1
320 -128 m 1,38,-1
 256 -128 l 1,39,-1
 256 -64 l 1,40,-1
 256 0 l 1,41,-1
 320 0 l 1,42,-1
 384 0 l 1,43,-1
 384 -64 l 1,44,-1
 384 -128 l 1,45,-1
 320 -128 l 1,38,-1
384 0 m 1,46,-1
 320 0 l 1,47,-1
 256 0 l 1025,48,-1
320 -128 m 1,49,-1
 256 -128 l 1,50,-1
 256 -64 l 1,51,-1
 256 0 l 1,52,-1
 320 0 l 1,53,-1
 384 0 l 1,54,-1
 384 -64 l 1,55,-1
 384 -128 l 1,56,-1
 320 -128 l 1,49,-1
384 0 m 1,57,-1
 320 0 l 1,58,-1
 256 0 l 1025,59,-1
320 -128 m 1,60,-1
 256 -128 l 1,61,-1
 256 -64 l 1,62,-1
 256 0 l 1,63,-1
 320 0 l 1,64,-1
 384 0 l 1,65,-1
 384 -64 l 1,66,-1
 384 -128 l 1,67,-1
 320 -128 l 1,60,-1
320 0 m 1,68,-1
 384 0 l 1,69,-1
 448 0 l 1025,70,-1
384 0 m 1,71,-1
 320 0 l 1,72,-1
 256 0 l 1025,73,-1
576 0 m 1,74,-1
 512 0 l 1,75,-1
 448 0 l 1,76,-1
 384 0 l 1,77,-1
 320 0 l 1,78,-1
 256 0 l 1,79,-1
 192 0 l 1,80,-1
 128 0 l 1,81,-1
 128 64 l 1,82,-1
 128 128 l 1,83,-1
 192 128 l 1,84,-1
 256 128 l 1,85,-1
 320 128 l 1,86,-1
 384 128 l 1,87,-1
 448 128 l 1,88,-1
 512 128 l 1,89,-1
 576 128 l 1,90,-1
 576 192 l 1,91,-1
 576 256 l 1,92,-1
 640 256 l 1,93,-1
 704 256 l 1,94,-1
 704 192 l 1,95,-1
 704 128 l 1,96,-1
 640 128 l 1,97,-1
 640 64 l 1,98,-1
 640 0 l 1,99,-1
 576 0 l 1,74,-1
128 128 m 1,100,-1
 64 128 l 1,101,-1
 0 128 l 1,102,-1
 0 192 l 1,103,-1
 0 256 l 1,104,-1
 0 320 l 1,105,-1
 0 384 l 1,106,-1
 0 448 l 1,107,-1
 0 512 l 1,108,-1
 0 576 l 1,109,-1
 0 640 l 1,110,-1
 64 640 l 1,111,-1
 128 640 l 1,112,-1
 128 576 l 1,113,-1
 128 512 l 1,114,-1
 128 448 l 1,115,-1
 128 384 l 1,116,-1
 128 320 l 1,117,-1
 128 256 l 1,118,-1
 128 192 l 1,119,-1
 128 128 l 1,100,-1
640 512 m 1,120,-1
 576 512 l 1,121,-1
 576 576 l 1,122,-1
 576 640 l 1,123,-1
 512 640 l 1,124,-1
 448 640 l 1,125,-1
 384 640 l 1,126,-1
 320 640 l 1,127,-1
 256 640 l 1,128,-1
 192 640 l 1,129,-1
 128 640 l 1,130,-1
 128 704 l 1,131,-1
 128 768 l 1,132,-1
 192 768 l 1,133,-1
 256 768 l 1,134,-1
 320 768 l 1,135,-1
 384 768 l 1,136,-1
 448 768 l 1,137,-1
 512 768 l 1,138,-1
 576 768 l 1,139,-1
 640 768 l 1,140,-1
 640 704 l 1,141,-1
 640 640 l 1,142,-1
 704 640 l 1,143,-1
 704 576 l 1,144,-1
 704 512 l 1,145,-1
 640 512 l 1,120,-1
EndSplineSet
Validated: 11
EndChar

StartChar: ccedilla
Encoding: 231 231 117
Width: 640
Flags: W
LayerCount: 2
Fore
SplineSet
256 -128 m 1,0,-1
 192 -128 l 1,1,-1
 192 -64 l 1,2,-1
 192 0 l 1,3,-1
 256 0 l 1,4,-1
 320 0 l 1,5,-1
 320 -64 l 1,6,-1
 320 -128 l 1,7,-1
 256 -128 l 1,0,-1
384 0 m 1,8,-1
 320 0 l 1,9,-1
 256 0 l 1,10,-1
 192 0 l 1,11,-1
 128 0 l 1,12,-1
 128 64 l 1,13,-1
 128 128 l 1,14,-1
 192 128 l 1,15,-1
 256 128 l 1,16,-1
 320 128 l 1,17,-1
 384 128 l 1,18,-1
 448 128 l 1,19,-1
 448 64 l 1,20,-1
 448 0 l 1,21,-1
 384 0 l 1,8,-1
448 128 m 1,22,-1
 448 192 l 1,23,-1
 448 256 l 1,24,-1
 512 256 l 1,25,-1
 576 256 l 1,26,-1
 576 192 l 1,27,-1
 576 128 l 1,28,-1
 512 128 l 1,29,-1
 448 128 l 1,22,-1
128 128 m 1,30,-1
 64 128 l 1,31,-1
 0 128 l 1,32,-1
 0 192 l 1,33,-1
 0 256 l 1,34,-1
 0 320 l 1,35,-1
 0 384 l 1,36,-1
 0 448 l 1,37,-1
 64 448 l 1,38,-1
 128 448 l 1,39,-1
 128 384 l 1,40,-1
 128 320 l 1,41,-1
 128 256 l 1,42,-1
 128 192 l 1,43,-1
 128 128 l 1,30,-1
512 320 m 1,44,-1
 448 320 l 1,45,-1
 448 384 l 1,46,-1
 448 448 l 1,47,-1
 512 448 l 1,48,-1
 576 448 l 1,49,-1
 576 384 l 1,50,-1
 576 320 l 1,51,-1
 512 320 l 1,44,-1
448 448 m 1,52,-1
 384 448 l 1,53,-1
 320 448 l 1,54,-1
 256 448 l 1,55,-1
 192 448 l 1,56,-1
 128 448 l 1,57,-1
 128 512 l 1,58,-1
 128 576 l 1,59,-1
 192 576 l 1,60,-1
 256 576 l 1,61,-1
 320 576 l 1,62,-1
 384 576 l 1,63,-1
 448 576 l 1,64,-1
 448 512 l 1,65,-1
 448 448 l 1,52,-1
EndSplineSet
Validated: 5
EndChar

StartChar: scedilla
Encoding: 351 351 118
Width: 512
Flags: W
LayerCount: 2
Fore
SplineSet
192 -130 m 1025,0,-1
192 -130 m 1,1,-1
 128 -130 l 1,2,-1
 64 -130 l 1,3,-1
 64 -66 l 1,4,-1
 64 -2 l 1,5,-1
 128 -2 l 1,6,-1
 192 -2 l 1,7,-1
 192 -66 l 1,8,-1
 192 -130 l 1,1,-1
192 -2 m 1025,9,-1
256 0 m 1,10,-1
 192 0 l 1,11,-1
 128 0 l 1,12,-1
 64 0 l 1,13,-1
 0 0 l 1,14,-1
 0 64 l 1,15,-1
 0 128 l 1,16,-1
 64 128 l 1,17,-1
 128 128 l 1,18,-1
 192 128 l 1,19,-1
 256 128 l 1,20,-1
 320 128 l 1,21,-1
 320 64 l 1,22,-1
 320 0 l 1,23,-1
 256 0 l 1,10,-1
320 128 m 1,24,-1
 320 192 l 1,25,-1
 320 256 l 1,26,-1
 384 256 l 1,27,-1
 448 256 l 1,28,-1
 448 192 l 1,29,-1
 448 128 l 1,30,-1
 384 128 l 1,31,-1
 320 128 l 1,24,-1
320 256 m 1,32,-1
 256 256 l 1,33,-1
 192 256 l 1,34,-1
 128 256 l 1,35,-1
 128 320 l 1,36,-1
 128 384 l 1,37,-1
 192 384 l 1,38,-1
 256 384 l 1,39,-1
 320 384 l 1,40,-1
 320 320 l 1,41,-1
 320 256 l 1,32,-1
128 384 m 1,42,-1
 64 384 l 1,43,-1
 0 384 l 1,44,-1
 0 448 l 1,45,-1
 0 512 l 1,46,-1
 64 512 l 1,47,-1
 128 512 l 1,48,-1
 128 448 l 1,49,-1
 128 384 l 1,42,-1
384 512 m 1,50,-1
 320 512 l 1,51,-1
 256 512 l 1,52,-1
 192 512 l 1,53,-1
 128 512 l 1,54,-1
 128 576 l 1,55,-1
 128 640 l 1,56,-1
 192 640 l 1,57,-1
 256 640 l 1,58,-1
 320 640 l 1,59,-1
 384 640 l 1,60,-1
 448 640 l 1,61,-1
 448 576 l 1,62,-1
 448 512 l 1,63,-1
 384 512 l 1,50,-1
EndSplineSet
Validated: 5
EndChar

StartChar: Scedilla
Encoding: 350 350 119
Width: 640
Flags: W
LayerCount: 2
Fore
SplineSet
320 -130 m 1029,0,-1
320 -130 m 5,1,-1
 256 -130 l 5,2,-1
 192 -130 l 5,3,-1
 192 -66 l 5,4,-1
 192 -2 l 5,5,-1
 256 -2 l 5,6,-1
 320 -2 l 5,7,-1
 320 -66 l 5,8,-1
 320 -130 l 5,1,-1
320 -2 m 1029,9,-1
128 512 m 1025,10,-1
128 512 m 1,11,-1
 64 512 l 1,12,-1
 0 512 l 1,13,-1
 0 576 l 1,14,-1
 0 640 l 1,15,-1
 64 640 l 1,16,-1
 128 640 l 1,17,-1
 128 576 l 1,18,-1
 128 512 l 1,11,-1
128 640 m 1025,19,-1
128 512 m 1025,20,-1
128 512 m 1,21,-1
 64 512 l 1,22,-1
 0 512 l 1,23,-1
 0 576 l 1,24,-1
 0 640 l 1,25,-1
 64 640 l 1,26,-1
 128 640 l 1,27,-1
 128 576 l 1,28,-1
 128 512 l 1,21,-1
128 640 m 1025,29,-1
384 0 m 1,30,-1
 320 0 l 1,31,-1
 256 0 l 1,32,-1
 192 0 l 1,33,-1
 128 0 l 1,34,-1
 64 0 l 1,35,-1
 0 0 l 1,36,-1
 0 64 l 1,37,-1
 0 128 l 1,38,-1
 64 128 l 1,39,-1
 128 128 l 1,40,-1
 192 128 l 1,41,-1
 256 128 l 1,42,-1
 320 128 l 1,43,-1
 384 128 l 1,44,-1
 448 128 l 1,45,-1
 448 64 l 1,46,-1
 448 0 l 1,47,-1
 384 0 l 1,30,-1
448 128 m 1,48,-1
 448 192 l 1,49,-1
 448 256 l 1,50,-1
 448 320 l 1,51,-1
 448 384 l 1,52,-1
 512 384 l 1,53,-1
 576 384 l 1,54,-1
 576 320 l 1,55,-1
 576 256 l 1,56,-1
 576 192 l 1,57,-1
 576 128 l 1,58,-1
 512 128 l 1,59,-1
 448 128 l 1,48,-1
448 384 m 1,60,-1
 384 384 l 1,61,-1
 320 384 l 1,62,-1
 256 384 l 1,63,-1
 192 384 l 1,64,-1
 128 384 l 1,65,-1
 128 448 l 1,66,-1
 128 512 l 1,67,-1
 192 512 l 1,68,-1
 256 512 l 1,69,-1
 320 512 l 1,70,-1
 384 512 l 1,71,-1
 448 512 l 1,72,-1
 448 448 l 1,73,-1
 448 384 l 1,60,-1
128 512 m 1,74,-1
 64 512 l 1,75,-1
 0 512 l 1,76,-1
 0 576 l 1,77,-1
 0 640 l 1,78,-1
 64 640 l 1,79,-1
 128 640 l 1,80,-1
 128 576 l 1,81,-1
 128 512 l 1,74,-1
512 640 m 1,82,-1
 448 640 l 1,83,-1
 384 640 l 1,84,-1
 320 640 l 1,85,-1
 256 640 l 1,86,-1
 192 640 l 1,87,-1
 128 640 l 1,88,-1
 128 704 l 1,89,-1
 128 768 l 1,90,-1
 192 768 l 1,91,-1
 256 768 l 1,92,-1
 320 768 l 1,93,-1
 384 768 l 1,94,-1
 448 768 l 1,95,-1
 512 768 l 1,96,-1
 576 768 l 1,97,-1
 576 704 l 1,98,-1
 576 640 l 1,99,-1
 512 640 l 1,82,-1
EndSplineSet
Validated: 5
EndChar

StartChar: gcaron
Encoding: 487 487 120
Width: 576
Flags: W
LayerCount: 2
Fore
SplineSet
319 631 m 5,0,-1
 191 631 l 5,1,-1
 191 695 l 5,2,-1
 191 759 l 5,3,-1
 319 759 l 5,4,-1
 447 759 l 5,5,-1
 447 695 l 5,6,-1
 447 631 l 5,7,-1
 319 631 l 5,0,-1
384 576 m 5,8,-1
 320 576 l 5,9,-1
 256 576 l 1029,10,-1
384 576 m 1029,11,-1
320 -256 m 5,12,-1
 256 -256 l 5,13,-1
 192 -256 l 5,14,-1
 128 -256 l 5,15,-1
 128 -192 l 5,16,-1
 128 -128 l 5,17,-1
 192 -128 l 5,18,-1
 256 -128 l 5,19,-1
 320 -128 l 5,20,-1
 384 -128 l 5,21,-1
 384 -192 l 5,22,-1
 384 -256 l 5,23,-1
 320 -256 l 5,12,-1
384 -128 m 5,24,-1
 384 -64 l 5,25,-1
 384 0 l 5,26,-1
 384 64 l 5,27,-1
 384 128 l 5,28,-1
 384 192 l 5,29,-1
 320 192 l 5,30,-1
 256 192 l 5,31,-1
 192 192 l 5,32,-1
 128 192 l 5,33,-1
 128 256 l 5,34,-1
 128 320 l 5,35,-1
 64 320 l 5,36,-1
 0 320 l 5,37,-1
 0 384 l 5,38,-1
 0 448 l 5,39,-1
 64 448 l 5,40,-1
 128 448 l 5,41,-1
 128 512 l 5,42,-1
 128 576 l 5,43,-1
 192 576 l 5,44,-1
 256 576 l 5,45,-1
 320 576 l 5,46,-1
 384 576 l 5,47,-1
 448 576 l 5,48,-1
 512 576 l 5,49,-1
 512 512 l 5,50,-1
 512 448 l 5,51,-1
 512 384 l 5,52,-1
 512 320 l 5,53,-1
 512 256 l 5,54,-1
 512 192 l 5,55,-1
 512 128 l 5,56,-1
 512 64 l 5,57,-1
 512 0 l 5,58,-1
 512 -64 l 5,59,-1
 512 -128 l 5,60,-1
 448 -128 l 5,61,-1
 384 -128 l 5,24,-1
128 -128 m 5,62,-1
 64 -128 l 5,63,-1
 0 -128 l 5,64,-1
 0 -64 l 5,65,-1
 0 0 l 5,66,-1
 64 0 l 5,67,-1
 128 0 l 5,68,-1
 128 -64 l 5,69,-1
 128 -128 l 5,62,-1
320 320 m 5,70,-1
 384 320 l 5,71,-1
 384 384 l 5,72,-1
 384 448 l 5,73,-1
 320 448 l 5,74,-1
 256 448 l 5,75,-1
 192 448 l 5,76,-1
 128 448 l 5,77,-1
 128 384 l 5,78,-1
 128 320 l 5,79,-1
 192 320 l 5,80,-1
 256 320 l 5,81,-1
 320 320 l 5,70,-1
EndSplineSet
Validated: 3
EndChar

StartChar: Gcaron
Encoding: 486 486 121
Width: 779
Flags: W
LayerCount: 2
Fore
SplineSet
414 640 m 1,0,-1
 286 640 l 1,1,-1
 286 704 l 1,2,-1
 286 768 l 1,3,-1
 414 768 l 1,4,-1
 542 768 l 1,5,-1
 542 704 l 1,6,-1
 542 640 l 1,7,-1
 414 640 l 1,0,-1
542 -192 m 1,8,-1
 478 -192 l 1,9,-1
 414 -192 l 1,10,-1
 350 -192 l 1,11,-1
 286 -192 l 1,12,-1
 222 -192 l 1,13,-1
 158 -192 l 1,14,-1
 158 -128 l 1,15,-1
 158 -64 l 1,16,-1
 222 -64 l 1,17,-1
 286 -64 l 1,18,-1
 350 -64 l 1,19,-1
 414 -64 l 1,20,-1
 478 -64 l 1,21,-1
 542 -64 l 1,22,-1
 606 -64 l 1,23,-1
 606 -128 l 1,24,-1
 606 -192 l 1,25,-1
 542 -192 l 1,8,-1
606 -64 m 1,26,-1
 606 0 l 1,27,-1
 606 64 l 1,28,-1
 606 128 l 1,29,-1
 606 192 l 1,30,-1
 542 192 l 1,31,-1
 478 192 l 1,32,-1
 478 256 l 1,33,-1
 478 320 l 1,34,-1
 542 320 l 1,35,-1
 606 320 l 1,36,-1
 670 320 l 1,37,-1
 734 320 l 1,38,-1
 734 256 l 1,39,-1
 734 192 l 1,40,-1
 734 128 l 1,41,-1
 734 64 l 1,42,-1
 734 0 l 1,43,-1
 734 -64 l 1,44,-1
 670 -64 l 1,45,-1
 606 -64 l 1,26,-1
158 -64 m 1,46,-1
 94 -64 l 1,47,-1
 30 -64 l 1,48,-1
 30 0 l 1,49,-1
 30 64 l 1,50,-1
 30 128 l 1,51,-1
 30 192 l 1,52,-1
 30 256 l 1,53,-1
 30 320 l 1,54,-1
 30 384 l 1,55,-1
 30 448 l 1,56,-1
 94 448 l 1,57,-1
 158 448 l 1,58,-1
 158 384 l 1,59,-1
 158 320 l 1,60,-1
 158 256 l 1,61,-1
 158 192 l 1,62,-1
 158 128 l 1,63,-1
 158 64 l 1,64,-1
 158 0 l 1,65,-1
 158 -64 l 1,46,-1
670 448 m 1,66,-1
 606 448 l 1,67,-1
 542 448 l 1,68,-1
 478 448 l 1,69,-1
 414 448 l 1,70,-1
 350 448 l 1,71,-1
 286 448 l 1,72,-1
 222 448 l 1,73,-1
 158 448 l 1,74,-1
 158 512 l 1,75,-1
 158 576 l 1,76,-1
 222 576 l 1,77,-1
 286 576 l 1,78,-1
 350 576 l 1,79,-1
 414 576 l 1,80,-1
 478 576 l 1,81,-1
 542 576 l 1,82,-1
 606 576 l 1,83,-1
 670 576 l 1,84,-1
 734 576 l 1,85,-1
 734 512 l 1,86,-1
 734 448 l 1,87,-1
 670 448 l 1,66,-1
EndSplineSet
Validated: 5
EndChar

StartChar: gbreve
Encoding: 287 287 123
Width: 576
Flags: W
LayerCount: 2
Fore
SplineSet
319 631 m 5,0,-1
 191 631 l 5,1,-1
 191 695 l 5,2,-1
 191 759 l 5,3,-1
 319 759 l 5,4,-1
 447 759 l 5,5,-1
 447 695 l 5,6,-1
 447 631 l 5,7,-1
 319 631 l 5,0,-1
384 576 m 5,8,-1
 320 576 l 5,9,-1
 256 576 l 1029,10,-1
384 576 m 1029,11,-1
320 -256 m 5,12,-1
 256 -256 l 5,13,-1
 192 -256 l 5,14,-1
 128 -256 l 5,15,-1
 128 -192 l 5,16,-1
 128 -128 l 5,17,-1
 192 -128 l 5,18,-1
 256 -128 l 5,19,-1
 320 -128 l 5,20,-1
 384 -128 l 5,21,-1
 384 -192 l 5,22,-1
 384 -256 l 5,23,-1
 320 -256 l 5,12,-1
384 -128 m 5,24,-1
 384 -64 l 5,25,-1
 384 0 l 5,26,-1
 384 64 l 5,27,-1
 384 128 l 5,28,-1
 384 192 l 5,29,-1
 320 192 l 5,30,-1
 256 192 l 5,31,-1
 192 192 l 5,32,-1
 128 192 l 5,33,-1
 128 256 l 5,34,-1
 128 320 l 5,35,-1
 64 320 l 5,36,-1
 0 320 l 5,37,-1
 0 384 l 5,38,-1
 0 448 l 5,39,-1
 64 448 l 5,40,-1
 128 448 l 5,41,-1
 128 512 l 5,42,-1
 128 576 l 5,43,-1
 192 576 l 5,44,-1
 256 576 l 5,45,-1
 320 576 l 5,46,-1
 384 576 l 5,47,-1
 448 576 l 5,48,-1
 512 576 l 5,49,-1
 512 512 l 5,50,-1
 512 448 l 5,51,-1
 512 384 l 5,52,-1
 512 320 l 5,53,-1
 512 256 l 5,54,-1
 512 192 l 5,55,-1
 512 128 l 5,56,-1
 512 64 l 5,57,-1
 512 0 l 5,58,-1
 512 -64 l 5,59,-1
 512 -128 l 5,60,-1
 448 -128 l 5,61,-1
 384 -128 l 5,24,-1
128 -128 m 5,62,-1
 64 -128 l 5,63,-1
 0 -128 l 5,64,-1
 0 -64 l 5,65,-1
 0 0 l 5,66,-1
 64 0 l 5,67,-1
 128 0 l 5,68,-1
 128 -64 l 5,69,-1
 128 -128 l 5,62,-1
320 320 m 5,70,-1
 384 320 l 5,71,-1
 384 384 l 5,72,-1
 384 448 l 5,73,-1
 320 448 l 5,74,-1
 256 448 l 5,75,-1
 192 448 l 5,76,-1
 128 448 l 5,77,-1
 128 384 l 5,78,-1
 128 320 l 5,79,-1
 192 320 l 5,80,-1
 256 320 l 5,81,-1
 320 320 l 5,70,-1
EndSplineSet
Validated: 3
EndChar

StartChar: Gbreve
Encoding: 286 286 124
Width: 779
Flags: W
LayerCount: 2
Fore
SplineSet
414 640 m 5,0,-1
 286 640 l 5,1,-1
 286 704 l 5,2,-1
 286 768 l 5,3,-1
 414 768 l 5,4,-1
 542 768 l 5,5,-1
 542 704 l 5,6,-1
 542 640 l 5,7,-1
 414 640 l 5,0,-1
542 -192 m 1,8,-1
 478 -192 l 1,9,-1
 414 -192 l 1,10,-1
 350 -192 l 1,11,-1
 286 -192 l 1,12,-1
 222 -192 l 1,13,-1
 158 -192 l 1,14,-1
 158 -128 l 1,15,-1
 158 -64 l 1,16,-1
 222 -64 l 1,17,-1
 286 -64 l 1,18,-1
 350 -64 l 1,19,-1
 414 -64 l 1,20,-1
 478 -64 l 1,21,-1
 542 -64 l 1,22,-1
 606 -64 l 1,23,-1
 606 -128 l 1,24,-1
 606 -192 l 1,25,-1
 542 -192 l 1,8,-1
606 -64 m 1,26,-1
 606 0 l 1,27,-1
 606 64 l 1,28,-1
 606 128 l 1,29,-1
 606 192 l 1,30,-1
 542 192 l 1,31,-1
 478 192 l 1,32,-1
 478 256 l 1,33,-1
 478 320 l 1,34,-1
 542 320 l 1,35,-1
 606 320 l 1,36,-1
 670 320 l 1,37,-1
 734 320 l 1,38,-1
 734 256 l 1,39,-1
 734 192 l 1,40,-1
 734 128 l 1,41,-1
 734 64 l 1,42,-1
 734 0 l 1,43,-1
 734 -64 l 1,44,-1
 670 -64 l 1,45,-1
 606 -64 l 1,26,-1
158 -64 m 1,46,-1
 94 -64 l 1,47,-1
 30 -64 l 1,48,-1
 30 0 l 1,49,-1
 30 64 l 1,50,-1
 30 128 l 1,51,-1
 30 192 l 1,52,-1
 30 256 l 1,53,-1
 30 320 l 1,54,-1
 30 384 l 1,55,-1
 30 448 l 1,56,-1
 94 448 l 1,57,-1
 158 448 l 1,58,-1
 158 384 l 1,59,-1
 158 320 l 1,60,-1
 158 256 l 1,61,-1
 158 192 l 1,62,-1
 158 128 l 1,63,-1
 158 64 l 1,64,-1
 158 0 l 1,65,-1
 158 -64 l 1,46,-1
670 448 m 1,66,-1
 606 448 l 1,67,-1
 542 448 l 1,68,-1
 478 448 l 1,69,-1
 414 448 l 1,70,-1
 350 448 l 1,71,-1
 286 448 l 1,72,-1
 222 448 l 1,73,-1
 158 448 l 1,74,-1
 158 512 l 1,75,-1
 158 576 l 1,76,-1
 222 576 l 1,77,-1
 286 576 l 1,78,-1
 350 576 l 1,79,-1
 414 576 l 1,80,-1
 478 576 l 1,81,-1
 542 576 l 1,82,-1
 606 576 l 1,83,-1
 670 576 l 1,84,-1
 734 576 l 1,85,-1
 734 512 l 1,86,-1
 734 448 l 1,87,-1
 670 448 l 1,66,-1
EndSplineSet
Validated: 5
EndChar

StartChar: gcircumflex
Encoding: 285 285 125
Width: 576
Flags: W
LayerCount: 2
Fore
SplineSet
319 631 m 5,0,-1
 191 631 l 5,1,-1
 191 695 l 5,2,-1
 191 759 l 5,3,-1
 319 759 l 5,4,-1
 447 759 l 5,5,-1
 447 695 l 5,6,-1
 447 631 l 5,7,-1
 319 631 l 5,0,-1
384 576 m 5,8,-1
 320 576 l 5,9,-1
 256 576 l 1029,10,-1
384 576 m 1029,11,-1
320 -256 m 5,12,-1
 256 -256 l 5,13,-1
 192 -256 l 5,14,-1
 128 -256 l 5,15,-1
 128 -192 l 5,16,-1
 128 -128 l 5,17,-1
 192 -128 l 5,18,-1
 256 -128 l 5,19,-1
 320 -128 l 5,20,-1
 384 -128 l 5,21,-1
 384 -192 l 5,22,-1
 384 -256 l 5,23,-1
 320 -256 l 5,12,-1
384 -128 m 5,24,-1
 384 -64 l 5,25,-1
 384 0 l 5,26,-1
 384 64 l 5,27,-1
 384 128 l 5,28,-1
 384 192 l 5,29,-1
 320 192 l 5,30,-1
 256 192 l 5,31,-1
 192 192 l 5,32,-1
 128 192 l 5,33,-1
 128 256 l 5,34,-1
 128 320 l 5,35,-1
 64 320 l 5,36,-1
 0 320 l 5,37,-1
 0 384 l 5,38,-1
 0 448 l 5,39,-1
 64 448 l 5,40,-1
 128 448 l 5,41,-1
 128 512 l 5,42,-1
 128 576 l 5,43,-1
 192 576 l 5,44,-1
 256 576 l 5,45,-1
 320 576 l 5,46,-1
 384 576 l 5,47,-1
 448 576 l 5,48,-1
 512 576 l 5,49,-1
 512 512 l 5,50,-1
 512 448 l 5,51,-1
 512 384 l 5,52,-1
 512 320 l 5,53,-1
 512 256 l 5,54,-1
 512 192 l 5,55,-1
 512 128 l 5,56,-1
 512 64 l 5,57,-1
 512 0 l 5,58,-1
 512 -64 l 5,59,-1
 512 -128 l 5,60,-1
 448 -128 l 5,61,-1
 384 -128 l 5,24,-1
128 -128 m 5,62,-1
 64 -128 l 5,63,-1
 0 -128 l 5,64,-1
 0 -64 l 5,65,-1
 0 0 l 5,66,-1
 64 0 l 5,67,-1
 128 0 l 5,68,-1
 128 -64 l 5,69,-1
 128 -128 l 5,62,-1
320 320 m 5,70,-1
 384 320 l 5,71,-1
 384 384 l 5,72,-1
 384 448 l 5,73,-1
 320 448 l 5,74,-1
 256 448 l 5,75,-1
 192 448 l 5,76,-1
 128 448 l 5,77,-1
 128 384 l 5,78,-1
 128 320 l 5,79,-1
 192 320 l 5,80,-1
 256 320 l 5,81,-1
 320 320 l 5,70,-1
EndSplineSet
Validated: 3
EndChar

StartChar: Gcircumflex
Encoding: 284 284 126
Width: 779
Flags: W
LayerCount: 2
Fore
SplineSet
414 640 m 5,0,-1
 286 640 l 5,1,-1
 286 704 l 5,2,-1
 286 768 l 5,3,-1
 414 768 l 5,4,-1
 542 768 l 5,5,-1
 542 704 l 5,6,-1
 542 640 l 5,7,-1
 414 640 l 5,0,-1
542 -192 m 1,8,-1
 478 -192 l 1,9,-1
 414 -192 l 1,10,-1
 350 -192 l 1,11,-1
 286 -192 l 1,12,-1
 222 -192 l 1,13,-1
 158 -192 l 1,14,-1
 158 -128 l 1,15,-1
 158 -64 l 1,16,-1
 222 -64 l 1,17,-1
 286 -64 l 1,18,-1
 350 -64 l 1,19,-1
 414 -64 l 1,20,-1
 478 -64 l 1,21,-1
 542 -64 l 1,22,-1
 606 -64 l 1,23,-1
 606 -128 l 1,24,-1
 606 -192 l 1,25,-1
 542 -192 l 1,8,-1
606 -64 m 1,26,-1
 606 0 l 1,27,-1
 606 64 l 1,28,-1
 606 128 l 1,29,-1
 606 192 l 1,30,-1
 542 192 l 1,31,-1
 478 192 l 1,32,-1
 478 256 l 1,33,-1
 478 320 l 1,34,-1
 542 320 l 1,35,-1
 606 320 l 1,36,-1
 670 320 l 1,37,-1
 734 320 l 1,38,-1
 734 256 l 1,39,-1
 734 192 l 1,40,-1
 734 128 l 1,41,-1
 734 64 l 1,42,-1
 734 0 l 1,43,-1
 734 -64 l 1,44,-1
 670 -64 l 1,45,-1
 606 -64 l 1,26,-1
158 -64 m 1,46,-1
 94 -64 l 1,47,-1
 30 -64 l 1,48,-1
 30 0 l 1,49,-1
 30 64 l 1,50,-1
 30 128 l 1,51,-1
 30 192 l 1,52,-1
 30 256 l 1,53,-1
 30 320 l 1,54,-1
 30 384 l 1,55,-1
 30 448 l 1,56,-1
 94 448 l 1,57,-1
 158 448 l 1,58,-1
 158 384 l 1,59,-1
 158 320 l 1,60,-1
 158 256 l 1,61,-1
 158 192 l 1,62,-1
 158 128 l 1,63,-1
 158 64 l 1,64,-1
 158 0 l 1,65,-1
 158 -64 l 1,46,-1
670 448 m 1,66,-1
 606 448 l 1,67,-1
 542 448 l 1,68,-1
 478 448 l 1,69,-1
 414 448 l 1,70,-1
 350 448 l 1,71,-1
 286 448 l 1,72,-1
 222 448 l 1,73,-1
 158 448 l 1,74,-1
 158 512 l 1,75,-1
 158 576 l 1,76,-1
 222 576 l 1,77,-1
 286 576 l 1,78,-1
 350 576 l 1,79,-1
 414 576 l 1,80,-1
 478 576 l 1,81,-1
 542 576 l 1,82,-1
 606 576 l 1,83,-1
 670 576 l 1,84,-1
 734 576 l 1,85,-1
 734 512 l 1,86,-1
 734 448 l 1,87,-1
 670 448 l 1,66,-1
EndSplineSet
Validated: 5
EndChar

StartChar: uni01E5
Encoding: 485 485 127
Width: 576
Flags: W
LayerCount: 2
Fore
SplineSet
319 631 m 5,0,-1
 191 631 l 5,1,-1
 191 695 l 5,2,-1
 191 759 l 5,3,-1
 319 759 l 5,4,-1
 447 759 l 5,5,-1
 447 695 l 5,6,-1
 447 631 l 5,7,-1
 319 631 l 5,0,-1
384 576 m 5,8,-1
 320 576 l 5,9,-1
 256 576 l 1029,10,-1
384 576 m 1029,11,-1
320 -256 m 5,12,-1
 256 -256 l 5,13,-1
 192 -256 l 5,14,-1
 128 -256 l 5,15,-1
 128 -192 l 5,16,-1
 128 -128 l 5,17,-1
 192 -128 l 5,18,-1
 256 -128 l 5,19,-1
 320 -128 l 5,20,-1
 384 -128 l 5,21,-1
 384 -192 l 5,22,-1
 384 -256 l 5,23,-1
 320 -256 l 5,12,-1
384 -128 m 5,24,-1
 384 -64 l 5,25,-1
 384 0 l 5,26,-1
 384 64 l 5,27,-1
 384 128 l 5,28,-1
 384 192 l 5,29,-1
 320 192 l 5,30,-1
 256 192 l 5,31,-1
 192 192 l 5,32,-1
 128 192 l 5,33,-1
 128 256 l 5,34,-1
 128 320 l 5,35,-1
 64 320 l 5,36,-1
 0 320 l 5,37,-1
 0 384 l 5,38,-1
 0 448 l 5,39,-1
 64 448 l 5,40,-1
 128 448 l 5,41,-1
 128 512 l 5,42,-1
 128 576 l 5,43,-1
 192 576 l 5,44,-1
 256 576 l 5,45,-1
 320 576 l 5,46,-1
 384 576 l 5,47,-1
 448 576 l 5,48,-1
 512 576 l 5,49,-1
 512 512 l 5,50,-1
 512 448 l 5,51,-1
 512 384 l 5,52,-1
 512 320 l 5,53,-1
 512 256 l 5,54,-1
 512 192 l 5,55,-1
 512 128 l 5,56,-1
 512 64 l 5,57,-1
 512 0 l 5,58,-1
 512 -64 l 5,59,-1
 512 -128 l 5,60,-1
 448 -128 l 5,61,-1
 384 -128 l 5,24,-1
128 -128 m 5,62,-1
 64 -128 l 5,63,-1
 0 -128 l 5,64,-1
 0 -64 l 5,65,-1
 0 0 l 5,66,-1
 64 0 l 5,67,-1
 128 0 l 5,68,-1
 128 -64 l 5,69,-1
 128 -128 l 5,62,-1
320 320 m 5,70,-1
 384 320 l 5,71,-1
 384 384 l 5,72,-1
 384 448 l 5,73,-1
 320 448 l 5,74,-1
 256 448 l 5,75,-1
 192 448 l 5,76,-1
 128 448 l 5,77,-1
 128 384 l 5,78,-1
 128 320 l 5,79,-1
 192 320 l 5,80,-1
 256 320 l 5,81,-1
 320 320 l 5,70,-1
EndSplineSet
Validated: 3
EndChar

StartChar: uni01E4
Encoding: 484 484 128
Width: 779
Flags: W
LayerCount: 2
Fore
SplineSet
414 640 m 5,0,-1
 286 640 l 5,1,-1
 286 704 l 5,2,-1
 286 768 l 5,3,-1
 414 768 l 5,4,-1
 542 768 l 5,5,-1
 542 704 l 5,6,-1
 542 640 l 5,7,-1
 414 640 l 5,0,-1
542 -192 m 1,8,-1
 478 -192 l 1,9,-1
 414 -192 l 1,10,-1
 350 -192 l 1,11,-1
 286 -192 l 1,12,-1
 222 -192 l 1,13,-1
 158 -192 l 1,14,-1
 158 -128 l 1,15,-1
 158 -64 l 1,16,-1
 222 -64 l 1,17,-1
 286 -64 l 1,18,-1
 350 -64 l 1,19,-1
 414 -64 l 1,20,-1
 478 -64 l 1,21,-1
 542 -64 l 1,22,-1
 606 -64 l 1,23,-1
 606 -128 l 1,24,-1
 606 -192 l 1,25,-1
 542 -192 l 1,8,-1
606 -64 m 1,26,-1
 606 0 l 1,27,-1
 606 64 l 1,28,-1
 606 128 l 1,29,-1
 606 192 l 1,30,-1
 542 192 l 1,31,-1
 478 192 l 1,32,-1
 478 256 l 1,33,-1
 478 320 l 1,34,-1
 542 320 l 1,35,-1
 606 320 l 1,36,-1
 670 320 l 1,37,-1
 734 320 l 1,38,-1
 734 256 l 1,39,-1
 734 192 l 1,40,-1
 734 128 l 1,41,-1
 734 64 l 1,42,-1
 734 0 l 1,43,-1
 734 -64 l 1,44,-1
 670 -64 l 1,45,-1
 606 -64 l 1,26,-1
158 -64 m 1,46,-1
 94 -64 l 1,47,-1
 30 -64 l 1,48,-1
 30 0 l 1,49,-1
 30 64 l 1,50,-1
 30 128 l 1,51,-1
 30 192 l 1,52,-1
 30 256 l 1,53,-1
 30 320 l 1,54,-1
 30 384 l 1,55,-1
 30 448 l 1,56,-1
 94 448 l 1,57,-1
 158 448 l 1,58,-1
 158 384 l 1,59,-1
 158 320 l 1,60,-1
 158 256 l 1,61,-1
 158 192 l 1,62,-1
 158 128 l 1,63,-1
 158 64 l 1,64,-1
 158 0 l 1,65,-1
 158 -64 l 1,46,-1
670 448 m 1,66,-1
 606 448 l 1,67,-1
 542 448 l 1,68,-1
 478 448 l 1,69,-1
 414 448 l 1,70,-1
 350 448 l 1,71,-1
 286 448 l 1,72,-1
 222 448 l 1,73,-1
 158 448 l 1,74,-1
 158 512 l 1,75,-1
 158 576 l 1,76,-1
 222 576 l 1,77,-1
 286 576 l 1,78,-1
 350 576 l 1,79,-1
 414 576 l 1,80,-1
 478 576 l 1,81,-1
 542 576 l 1,82,-1
 606 576 l 1,83,-1
 670 576 l 1,84,-1
 734 576 l 1,85,-1
 734 512 l 1,86,-1
 734 448 l 1,87,-1
 670 448 l 1,66,-1
EndSplineSet
Validated: 5
EndChar
